<?xml version="1.0" encoding="utf-8"?>
<!-- Generator: Adobe Illustrator 22.1.0, SVG Export Plug-In . SVG Version: 6.00 Build 0)  -->
<svg version="1.0" xmlns="http://www.w3.org/2000/svg" xmlns:xlink="http://www.w3.org/1999/xlink" x="0px" y="0px"
	 viewBox="0 0 1100 800" style="enable-background:new 0 0 1100 800;" xml:space="preserve">
<style type="text/css">
	.st0{fill:#FFFFFF;}
	.st1{fill:#F7F7F7;}
	.st2{fill:#3B455A;}
	.st3{fill:#C67A6D;}
	.st4{fill:#305399;}
	.st5{fill:#7DB5DB;}
	.st6{fill:#BABCBE;}
	.st7{fill:#686E72;}
	.st8{fill:#606060;}
	.st9{fill:#E1CFB5;}
	.st10{fill:#D7E8F4;}
	.st11{fill:#EFBFA5;}
	.st12{fill:#BCBEC0;}
	.st13{opacity:0.1;fill:#272525;}
	.st14{opacity:0.2;fill:#FFFFFF;}
	.st15{opacity:0.1;}
	.st16{fill:#587BC9;}
	.st17{fill:#292949;}
	.st18{fill:#CAC8D6;}
</style>
<g id="background">
	<rect y="0" class="st0" width="1100" height="800"/>
</g>
<g id="shadow">
	<g>
		<path class="st1" d="M521.7,690.8c-27.6,0.1-55.3,0.6-82.9,3.2c-10.4,1-20.6,3.1-31,3.9c-20.8,1.7-41.3,4.9-62.2,6.3
			c-16.8,1.2-33.7,1.9-50.5,3.4c-15.7,1.4-33.1,1.1-48.8-1.2c-11.6-1.7-23.2-2.7-34.5-5.4c-12.7-3.1-26.5-5.3-39.8-5.2
			c-18.9,0.1-37.3,0.1-55.3,5.6c-6.3,1.9-14.1,5-18.9,9c-11,9.2-12.5,32-1.5,41.5c18.5,16,58.1,22.3,84.1,22.6
			c28.5,0.3,56.2-1.4,84.7-2.5c26.5-1,53-2.3,79.5-2.3c54.2,0.1,108.5,0,162.6-3c50.9-2.8,101.8-1.9,152.8-1.9
			c52.3,0,104.2,0.3,156.1,6.1c22.6,2.5,45.6,3.4,68.4,5.1c20.4,1.6,39.9,0,60.2-1.5c17-1.2,33.9-4.8,49.4-11
			c12.2-4.8,34.1-19.9,37.8-31.5c10.5-32.4-148.3-31.7-172.7-31.6c-27.3,0.1-54.8,0.8-82,0c-11.5-0.4-22.8-2.2-34-4.3
			c-11.1-2-22.4-1.5-33.7-2.4c-47.1-3.6-94.4-3-141.7-3C552.5,690.9,537.1,690.8,521.7,690.8z"/>
	</g>
</g>
<g id="object">
	<g>
		<g>
			<path class="st2" d="M171.8,350.9c-0.2,0.8-0.4,1.7,0.1,2.4c0.4,0.6,1.1,0.9,1.8,1.1c16.2,4.9,33.5,0.6,49.9-3.7
				c2.7-0.7,5.5-1.4,8.2-2.2c1.3-0.4,2.7-0.8,3.7-1.7c1.5-1.2,2.1-3.2,2.2-5.1c0.4-4.5-1.3-9-3.1-13.2c-4.6-10.7-9.8-21.2-15.7-31.2
				c-0.8-1.3-1.5-2.6-2.7-3.6c-2.2-1.9-5.4-2.4-8.3-1.8s-5.5,2-8,3.5c-8.9,5.3-14.8,10.7-16.6,20.8
				C181.2,328.3,174.6,339,171.8,350.9z"/>
			<path class="st3" d="M233.5,293.1c-6.9-24.6-37.7-17.5-44.9,3.5c-4.3,12.7,3.5,29.7,15.6,36.1c-0.4,3.3,0.4,11.9,0.6,11.9
				c4.3,0,8.6,0,12.9,0c0.1-3.2,0-6.4-0.2-9.6c1.5-0.3,3-0.7,4.6-1.4c7.1-3,11.7-10.2,13.3-17.7
				C236.8,308.3,235.6,300.5,233.5,293.1z"/>
			<g>
				<g id="XMLID_546_">
					<g id="XMLID_548_">
						<polygon class="st2" points="204.4,744.2 203.6,752.3 187,759.3 179.9,750.7 188.6,743.1 205.2,736.1 						"/>
					</g>
					<g id="XMLID_547_">
						<polygon class="st4" points="218.3,580.4 205.5,741.7 189.5,743.8 176.3,606.4 165.3,562.7 						"/>
					</g>
				</g>
				<g id="XMLID_543_">
					<g id="XMLID_545_">
						<polygon class="st4" points="251.6,537.2 263.8,727.8 251.5,732.4 221.1,587.4 204.4,545.4 						"/>
					</g>
					<g id="XMLID_544_">
						<polygon class="st2" points="252.8,738.8 270.1,744 276.4,734.4 267,727.7 251.2,730.6 						"/>
					</g>
				</g>
				<g id="XMLID_542_">
					<path class="st5" d="M234.7,338.4c-3.3-0.4-6.7-0.1-10.1,0.4c-10.1,1.4-20,3.8-29.6,7.2c-3.1,1.1-6.2,2.3-9,3.9
						c-13.7,8.2-12.6,20.9-15.1,35.1c-1.7,9.9-4.3,20.1-5,30.1c-1.8,26.2-10,52.7-21.4,76.7c-4.8,10.1-10.5,19.9-13.9,30.5
						c-5.6,17.7-5.6,38.5-4,56.7c16.1,4.4,31.1,12.5,47.7,14.6c13.6,1.7,27.3-0.7,41-1.9c16.2-1.4,32.4-1,48.6-2.3
						c16.2-1.2,32.5-4.2,46.8-11.7c-1.5,0.8-22-54-23.4-58.9c-2.4-8.2-3.7-16.7-5.1-25.2c-6.7-41.8-15.2-83.4-28.8-123.6
						c-3.5-10.3-4.2-29.2-17.3-31.7C235.6,338.5,235.1,338.5,234.7,338.4z"/>
				</g>
				<g id="XMLID_539_">
					<g id="XMLID_541_">
						<path class="st2" d="M210.8,286.5c7.5,1.3,16.7,7.6,18.5,15.4c0.9,3.7-0.4,7.2,0.7,11.2c2.1,7.8-7.5,19.4,2,24.9
							c4.9,2.8,11,1.9,16.6,0.9c0.7-0.1,1.4-0.3,1.9-0.7c0.9-0.7,1-2,0.7-3.1c-0.3-1.1-1-2-1.7-2.9c-6.5-9.7-5-23.6-7.5-34.7
							c-2.5-11-8.6-22-19.6-26.6c-5.5,3.5-9.5,9.3-10.9,15.6L210.8,286.5z"/>
					</g>
					<g id="XMLID_540_">
						<path class="st2" d="M183.5,347.6c3.5-2.2,7-4.4,9-8.5c3.3-6.5,1.9-16.7,2.3-23.8c0.4-7.5,1.1-15.6,6.3-21.1
							c3.4-3.6,7.6-4.5,12.3-5c3.2-0.3,3.5,0.9,6-1.1c2-1.5,3.4-5.6,3.7-7.9c0.5-3.9-1.4-7.9-4.3-10.7c-4.4-4.3-9.3-6.2-15.3-5.8
							c-21.1,1.3-35.9,15-40,35.8c-2,10,1,20.7-1.2,30.3c-1.4,6-4.8,10.1-5.8,16.4c-2.6,16.4-9.8,37.6-7.7,54.1
							c0.1,0.6,0.2,1.3,0.7,1.7c1,0.7,2.4-0.4,3.1-1.4c4.3-5.9,8.7-11.9,13-17.8c1.7-2.3,3.4-4.7,4.4-7.4c2.5-6.7,0.2-15,4.4-20.8
							C176.9,351.6,180.3,349.6,183.5,347.6z"/>
					</g>
				</g>
				<g id="XMLID_537_">
					<g id="XMLID_538_">
						<polygon class="st5" points="161.8,354.7 118.2,435.3 166.9,471 178.2,460 150.7,434.8 192.6,402.3 187.6,349.5 						"/>
					</g>
				</g>
			</g>
			<g>
				<path class="st6" d="M222.3,333.9c8.8,0,16-7.2,16-16h3.2c0,10.6-8.6,19.2-19.2,19.2V333.9z"/>
				<path class="st7" d="M213.9,332.6h6c1.6,0,3,1.3,3,3v0.5c0,1.6-1.3,3-3,3h-6c-1.6,0-3-1.3-3-3v-0.5
					C210.9,334,212.2,332.6,213.9,332.6z"/>
				<g>
					<path class="st6" d="M238.2,306.1V293c0-14.2-11.5-25.8-25.8-25.8c-14.2,0-25.8,11.5-25.8,25.8v13.2h-5.7v-13.3
						c0-17.4,14.1-31.5,31.5-31.5c17.4,0,31.5,14.1,31.5,31.5v13.3H238.2z"/>
				</g>
				<g>
					<path class="st6" d="M173.4,303.8c-1,1.5-1,2.5-1,3.7v2.4v2.4c0,1.2,0,2.2,1,3.7l1.6,1.9v-8v-8L173.4,303.8z"/>
					<path class="st7" d="M183.5,321.8h-3c-3,0-5.5-2.5-5.5-5.5v-12.6c0-3,2.5-5.5,5.5-5.5h3c3,0,5.5,2.5,5.5,5.5v12.6
						C189.1,319.3,186.6,321.8,183.5,321.8z"/>
				</g>
				<g>
					<path class="st8" d="M251.8,303.8c1,1.5,1,2.5,1,3.7v2.4v2.4c0,1.2,0,2.2-1,3.7l-1.6,1.9v-8v-8L251.8,303.8z"/>
					<path class="st7" d="M241.6,321.8h3c3,0,5.5-2.5,5.5-5.5v-12.6c0-3-2.5-5.5-5.5-5.5h-3c-3,0-5.5,2.5-5.5,5.5v12.6
						C236.1,319.3,238.6,321.8,241.6,321.8z"/>
				</g>
			</g>
		</g>
		<g>
			<polygon class="st9" points="553,389.9 537,383.7 534.1,386.8 534.1,392 526,392 526.8,401.3 534.1,404.1 549.7,402 			"/>
			<g id="XMLID_370_">
				<g id="XMLID_520_">
					<g id="XMLID_534_">
						<g id="XMLID_536_">
							<path class="st2" d="M686.2,715.8c1.6-1.7,3.4-2.7,5.5-2.4c2,0.3,3.8,1.7,4.6,3.5c0.6,1.2,0.7,2.6,0.8,4
								c0.6,7,0.5,23.6-8.8,26c-3.9,1-7.2-1.8-8.2-5.3C678.5,736.3,680.9,721.6,686.2,715.8z"/>
						</g>
						<g id="XMLID_535_">
							<path class="st3" d="M682.8,610.1l0.5,42.7c-0.6,19,2.4,38.1,1.8,57c-0.1,4.4-1.3,9-0.2,13.3c1.1,4.2,4.5,5,8,2.8
								c4.7-2.9,4-9.6,4.8-14.5c2.2-13.4,4.7-26.8,7-40.2c1.1-6.6-1.2-15.8-0.7-22.5c0,0,6.9-35.8,6.9-35.8L682.8,610.1z"/>
						</g>
					</g>
					<g id="XMLID_533_">
						<polygon class="st5" points="731.7,541.1 713.1,623.7 709.1,701.7 679.6,701 671.6,482.8 728.8,483.9 						"/>
					</g>
					<g id="XMLID_528_">
						<g id="XMLID_530_">
							<g id="XMLID_532_">
								<path class="st2" d="M644,714.2c1.7-1.7,3.5-2.5,5.6-2c2,0.4,3.7,1.9,4.5,3.8c0.5,1.3,0.6,2.7,0.6,4
									c0.3,7-0.5,23.7-9.9,25.5c-4,0.8-7.1-2.2-8-5.8C635.5,734.3,638.5,719.8,644,714.2z"/>
							</g>
							<g id="XMLID_531_">
								<path class="st3" d="M659.5,616.1l-2.5,42.7c-0.2,11.9-1.8,23.6-3,35.4c-1.1,10.9,0.6,22.3-5.1,32.3
									c-1.8,3.1-5.4,5.2-7.9,1.4c-2-2.9-0.8-7.8-1.2-11.1c-1.5-13.5-3.4-27-5.1-40.5c-0.8-6.6,1.9-15.7,1.7-22.4l-5.2-36.1
									L659.5,616.1z"/>
							</g>
						</g>
						<g id="XMLID_529_">
							<polygon class="st5" points="622.2,536 619.8,616.2 632.4,697.3 662.4,698.2 661.1,610.4 676.9,537.7 682.3,490 634.7,484.4 
															"/>
						</g>
					</g>
					<g id="XMLID_527_">
						<polygon class="st10" points="659.9,320.3 711.1,319.1 740.9,374.4 730.3,426.2 728.4,488.1 655.3,489.1 631.2,485.2 
							637.6,419 633.9,330.6 						"/>
					</g>
					<g id="XMLID_526_">
						<polygon class="st10" points="658,353.8 631.3,407.2 602.5,412.9 544.9,404.1 551.9,386.1 604.8,386.1 634.7,330.6 						"/>
					</g>
					<g id="XMLID_521_">
						<g id="XMLID_525_">
							<path class="st3" d="M663.1,277.4c7.7-22.5,37.4-14.1,43.5,6c4,13.1-6.1,30-19.6,33.7c-0.1,0.5-0.1,1-0.1,1.4
								c0,2.1-0.3,4.2-0.6,6.3c-0.1,0.8-12-1.5-13.3-1.8c-0.5-0.1-1-0.2-1.2-0.6c-0.5-0.7,0.3-2.9,0.4-3.8c0.1-1,0.2-1.9,0.3-2.9
								c-6.7-3.3-10.9-10.2-12.1-17.3C659.2,291.3,660.8,284.1,663.1,277.4z"/>
						</g>
						<g id="XMLID_522_">
							<g id="XMLID_524_">
								<path class="st2" d="M682.4,257.1c1.6,1.6,2.2,3.9,2.7,6c0.3,1.3,0.5,2.6,0.2,3.9c-1.1,5.1-6.2,4.8-10.1,6.5
									c-4.8,2-9,5.8-11.7,10.1c-4.2,6.7-2.3,15.4-0.6,22.8c0.6,2.6,1.8,6.5-0.2,8.8c-2.1,2.4-6.8,2-9.3,0.8
									c-2.3-1.1-4.1-3.2-6.6-3.6c-2.6-0.4-6.2,0.7-7.4-1.7c-0.3-0.7-0.4-1.5-0.8-2.1c-1.4-2.1-5.1,0.4-7.1-1.1
									c-1.3-0.9-1.2-2.8-0.8-4.3c0.4-1.5,1.1-3.1,0.8-4.6c-0.3-1.3-1.2-2.4-1.8-3.6c-1.2-2.4-0.8-5.5,1-7.5
									c3.2-3.7,9.5-3,12.9-6.5c1.8-1.8,2.5-4.5,3.2-7c0.7-2.5,1.5-5.1,3.4-6.8c2.4-2.1,5.8-1.7,8.2-4.2c1.4-1.5,2.3-3.4,3.8-4.6
									c2-1.7,6-3,8.6-3.8C674.9,253.1,679.4,254,682.4,257.1z"/>
							</g>
							<g id="XMLID_523_">
								<path class="st2" d="M701.2,292.9c0.1,7.4-3.5,15.4-0.1,21.9c3.4,6.6,12,7.8,19.3,8.1c1.2,0.1,16.6,1.4,16.7,1.1
									c1.2-5.2,2.3-10.4,5-14.9c2.7-4.5,7.2-8.3,12.4-8.6c-1.5-0.3-2.2-2.1-2.1-3.6c0.2-1.5,1-2.9,1.4-4.4c1.1-3.6,0-7.9-2.7-10.4
									c-5.5-5.1-15.3-3-20-8.8c-2.9-3.6-2.6-8.9-4.1-13.3c-2.9-8.5-12.3-10.3-19.3-14.2c-7.4-4.1-14.3-6.3-22.9-4.9
									c-10.6,1.8-18.4,12.5-14.3,22.6c5.2,13,26.1,11.9,30,25C701,290,701.2,291.4,701.2,292.9z"/>
							</g>
						</g>
					</g>
				</g>
				<g id="XMLID_519_">
					<polygon class="st5" points="696,320 680.1,342.5 672.6,341.9 660.1,319.1 					"/>
				</g>
			</g>
		</g>
		<g>
			<polygon class="st11" points="339.4,287 329.5,268.9 339.3,250.2 349.4,255.6 348.2,270.9 353.5,276.1 351.5,289.3 			"/>
			<g>
				<g>
					<g>
						<polygon class="st12" points="491.5,457.8 492.8,574.2 480.4,724 463.6,724 443.4,585.8 420.3,447.4 						"/>
						<polygon class="st2" points="463.7,731.1 481.9,740.2 491,731.1 481.9,722 463.7,722 						"/>
					</g>
					<g>
						<polygon class="st12" points="375.9,457.8 375.6,525.2 386.9,724 403.8,724 432,592 447.1,447.4 						"/>
						<polygon class="st2" points="403.7,731.1 385.5,740.2 376.4,731.1 385.5,722 403.7,722 						"/>
					</g>
				</g>
				<path class="st2" d="M358.4,498.4c-0.4,10.7-0.1,25,4.4,25.5c0.8,0.1,1.7-0.3,2.4-0.6c7.8-3.8,13.4-9.2,21.1-12.8
					c8.1-3.8,17.3-5.9,26.2-7.2c13.4-2.1,27-3.4,40.5-3.5c11.6-0.1,23.6,5.2,34.6,8.1c4.2,1.1,7.6,4.2,11.1,6.6
					c5.2,3.6,7.4,5,6.7-2.3c-1.2-11.9-2.3-23.7-3.8-35.5c-2.9-23.6-6.9-47.1-13.6-69.9c-2.6-8.7-5.5-17.3-8.5-25.9
					c-3.6-10.5-7.2-20.9-10.8-31.4c-4.5-13-12-22.2-25.2-26.7c-11.4-3.9-25.6-5-36.7,0.5c-12.3,6.1-18.2,27-24.2,38.1
					c-5.3,9.8-11.9,36.4-13.8,46.9c-2.4,12.7-4.6,25.3-6.3,37.9c-1.9,13.9-3.2,27.8-3.6,41.6C358.9,489,358.5,493.3,358.4,498.4z"/>
				<path class="st0" d="M419.3,324.8l22.8,0.2c0,0,24.4,85.4,25.3,100.2c0.9,14.5,7.1,73.1,7.1,73.1s-25.2,0.6-54.3,4.1
					c-28.4,6.1-30.8,2.5-30.8,2.5s15.3-61.6,15.8-79.3c0.5-18.1,2.8-77.9,2.8-77.9L419.3,324.8z"/>
				<g>
					<path class="st11" d="M425,324.6c0.3,0.2,0.6,0.4,0.9,0.5c0.7,0.2,1.5,0.1,2.2,0.1c3-0.4,6-0.7,9-1.1c-1-9.2,4.4-11.3,9.7-17.3
						c5.3-6,3.7-14.1,3.4-21.5c-0.1-2.1-0.2-4.2-1.1-6c-1.5-3.3-5.1-5.1-8.5-6.1c-8.8-2.7-18.8-2.1-26.5,2.9c-2.1,1.3-4,3-5.1,5.2
						c-1.7,3.4-1.3,7.4-0.8,11.1c0.7,5.8,2.4,11.4,5.7,16.2c3,4.5,8.8,6.7,9.5,12.1C423.6,322.2,424,323.7,425,324.6z"/>
					<g>
						<path class="st2" d="M408.5,285.7c0.5,2.3,1.6,4.7,1,7c-3.7-1.3-6.1-5-7.4-8.8c-0.6-1.7-1-3.6-0.9-5.4
							c0.1-1.8,0.9-3.7,2.4-4.7c2-1.4,5.7-0.9,6.2,1.7C410.5,278.1,407.8,282.2,408.5,285.7z"/>
						<path class="st2" d="M389,265.4c0.1-2.8,1.1-5.3,3.6-6.9c2.1-1.4,4.6-2.6,5.9-4.9c1-1.8,1.2-4,2.2-5.8
							c1.8-3.2,5.7-4.2,9.2-5.3c8.6-2.7,13.2-5.9,22.2-2.4c6.4,2.5,14.8,2.8,20.7,6.5c2.5,1.5,4.6,4,6.4,6.7
							c6,9.4,7.5,22.7,3.6,32.6c-0.9,2.2-2,4.2-3.2,6.2c-2.4,3.9-5,8.7-9.2,10.6c-0.3-1.8-1.6-2.8-2.1-4.6c-0.3-1.3-0.2-2.6-0.1-4
							c0.3-5.2,1.8-13.4-3.3-15.9c-6.5-3.2-18.8-0.3-25.1,2.4c-5.6,2.4-15,5.6-20.9,3C393.3,280.9,388.8,271.3,389,265.4z"/>
					</g>
				</g>
			</g>
			<polygon class="st2" points="406.8,323 366.6,356.8 357.2,287.7 335.9,283.6 332.2,377.4 355,398.8 396.5,378.4 			"/>
		</g>
		<g>
			<g>
				<g id="XMLID_368_">
					<circle id="XMLID_369_" class="st4" cx="569.7" cy="490.9" r="143.9"/>
				</g>
				<g>
					<path class="st0" d="M603.4,394.9c-4.3-3.8-10.3-5.7-17.9-5.7c-6.3,0-12,1.3-17.1,4c-5.1,2.7-9.2,6.2-12,10.6
						c-2.9,4.4-4.3,9.2-4.3,14.5c0,6,2.2,10.9,6.5,14.7c4.3,3.8,10.3,5.7,18.1,5.7c6.3,0,12-1.3,17-3.9c5.1-2.6,9-6.1,11.9-10.6
						c2.9-4.5,4.3-9.3,4.3-14.4C609.9,403.7,607.7,398.7,603.4,394.9z"/>
					<path class="st0" d="M599.8,565.6c0,0-22.9,9.1-20.8-2.6l15.7-88.9c2-11.1-6.6-21.2-17.8-21.2H552h-2.5h-16.2l-1.3,5.5
						c0,0,16.4,0.9,13.9,15.1c-5.7,32.3-16.1,91.2-16.1,91.2c-1.4,7.9,1.4,16.1,7.4,21.5c8.9,8.1,21.1,7.5,31.9,4.1
						c3.6-1.1,34.9-15.1,34.8-15.3L599.8,565.6z"/>
				</g>
				<path class="st13" d="M652.8,373.5c16.6,23.5,26.5,52.1,26.5,83.1c0,79.5-64.4,143.9-143.9,143.9c-31,0-59.6-9.8-83.1-26.5
					c26.1,36.8,68.9,60.8,117.4,60.8c79.5,0,143.9-64.4,143.9-143.9C713.5,442.4,689.5,399.5,652.8,373.5z"/>
			</g>
			<path class="st14" d="M601.9,368c0.6,0,1.3,0,1.9,0c-12.5-4.5-25.9-7-40-7c-39.6,0-74.6,19.5-95.9,49.5c-0.8,0.2-1.3,1-1.3,1.9v0
				c-12.8,18.8-20.3,41.5-20.3,65.9c0,0.5,0,1.1,0,1.6C468,414.9,529.4,368,601.9,368z"/>
		</g>
		<g>
			<path class="st2" d="M74.3,240c-3.1,25.2-0.4,65.2,26.7,119.2c27.1,54,57.6,80.1,79.7,92.6c15.8,9,35.7,9.2,52.7,0.6l9.5-4.8
				c7.7-3.9,11-12.9,7.4-20.1l-22.7-45.2c-3.6-7.2-12.8-9.9-20.5-6l-13.3,6.7c-4.4,2.2-9.5,2.2-13.6-0.1
				c-20.6-11.8-36.9-44.9-36.9-44.9s-16.9-32.8-14-56.4c0.6-4.6,3.6-8.8,8-11l13.3-6.7c7.7-3.9,11-12.9,7.4-20.1l-22.7-45.2
				c-3.6-7.2-12.8-9.9-20.5-6l-9.5,4.8C88.3,205.9,76.6,222,74.3,240z"/>
			<path class="st15" d="M91.3,337.7c2.9,6.9,6.1,14,9.8,21.5c27.1,54,57.6,80.1,79.7,92.6c15.8,9,35.7,9.2,52.7,0.6l9.5-4.8
				c2.4-1.2,4.4-3,5.9-5C163.8,457,92.6,339.9,91.3,337.7z"/>
		</g>
		<g id="XMLID_366_">
			<g id="XMLID_367_">
				<path class="st3" d="M175.2,474.8c2.6,3.3,12.5,8.2,16.8,7c10-2.8-1.9-9.7-5.4-13c1.5-0.9,3-1.7,4.3-2.9
					c1.2-1.1-12.4-7.5-14.4-7.3c-4.9,0.5-5.6,3.6-8.4,7.2C170.5,468.8,172.8,471.9,175.2,474.8z"/>
			</g>
		</g>
		<g>
			<path class="st6" d="M439.5,310.5c9.3,0,16.9-7.6,16.9-16.9h3.4c0,11.2-9.1,20.2-20.2,20.2V310.5z"/>
			<path class="st7" d="M430.7,309.1h6.3c1.7,0,3.1,1.4,3.1,3.1v0.5c0,1.7-1.4,3.1-3.1,3.1h-6.3c-1.7,0-3.1-1.4-3.1-3.1v-0.5
				C427.5,310.5,428.9,309.1,430.7,309.1z"/>
			<g>
				<path class="st6" d="M456.2,281.2v-13.9c0-15-12.2-27.1-27.1-27.1s-27.1,12.2-27.1,27.1v13.9h-6v-14c0-18.3,14.8-33.1,33.1-33.1
					s33.1,14.8,33.1,33.1v14H456.2z"/>
			</g>
			<g>
				<path class="st6" d="M388,278.8c-1,1.5-1,2.6-1,3.9v2.5c0,0,0,2.5,0,2.5c0,1.3,0,2.4,1,3.9l1.7,2v-8.4v-8.4L388,278.8z"/>
				<path class="st7" d="M398.7,297.7h-3.2c-3.2,0-5.8-2.6-5.8-5.8v-13.3c0-3.2,2.6-5.8,5.8-5.8h3.2c3.2,0,5.8,2.6,5.8,5.8v13.3
					C404.5,295.1,401.9,297.7,398.7,297.7z"/>
			</g>
			<g>
				<path class="st6" d="M470.6,278.8c1,1.5,1,2.6,1,3.9v2.5c0,0,0,2.5,0,2.5c0,1.3,0,2.4-1,3.9l-1.7,2v-8.4v-8.4L470.6,278.8z"/>
				<path class="st7" d="M459.9,297.7h3.2c3.2,0,5.8-2.6,5.8-5.8v-13.3c0-3.2-2.6-5.8-5.8-5.8h-3.2c-3.2,0-5.8,2.6-5.8,5.8v13.3
					C454.1,295.1,456.7,297.7,459.9,297.7z"/>
			</g>
		</g>
		<g>
			<path class="st6" d="M692,316.7c8.9,0,16-7.2,16-16h3.2c0,10.6-8.6,19.2-19.2,19.2V316.7z"/>
			<path class="st7" d="M683.6,315.4h6c1.6,0,3,1.3,3,3v0.5c0,1.6-1.3,3-3,3h-6c-1.6,0-3-1.3-3-3v-0.5
				C680.6,316.7,681.9,315.4,683.6,315.4z"/>
			<g>
				<path class="st6" d="M707.9,288.9v-13.2c0-14.3-11.6-25.8-25.8-25.8c-14.3,0-25.8,11.6-25.8,25.8v13.2h-5.7v-13.3
					c0-17.4,14.1-31.5,31.5-31.5c17.4,0,31.5,14.1,31.5,31.5v13.3H707.9z"/>
			</g>
			<g>
				<path class="st6" d="M643,286.5c-1,1.5-1,2.5-1,3.7v2.4v2.4c0,1.2,0,2.2,1,3.7l1.6,1.9v-8v-8L643,286.5z"/>
				<path class="st7" d="M653.2,304.5h-3c-3.1,0-5.5-2.5-5.5-5.5v-12.6c0-3.1,2.5-5.5,5.5-5.5h3c3.1,0,5.5,2.5,5.5,5.5V299
					C658.7,302,656.2,304.5,653.2,304.5z"/>
			</g>
			<g>
				<path class="st6" d="M721.5,286.5c1,1.5,1,2.5,1,3.7v2.4v2.4c0,1.2,0,2.2-1,3.7l-1.6,1.9v-8v-8L721.5,286.5z"/>
				<path class="st7" d="M711.4,304.5h3c3.1,0,5.5-2.5,5.5-5.5v-12.6c0-3.1-2.5-5.5-5.5-5.5h-3c-3.1,0-5.5,2.5-5.5,5.5V299
					C705.8,302,708.3,304.5,711.4,304.5z"/>
			</g>
		</g>
		<polygon class="st11" points="502.2,226.9 497.4,207.7 481,200.8 477.9,211.8 486.7,222.9 487.9,232.7 		"/>
		<polygon class="st2" points="447.1,324.3 498.3,303.7 482.2,223 500.7,220.8 531.7,305.1 525.3,330.6 467.3,369.6 		"/>
		<path class="st5" d="M620.2,27.4l-277.7,1.2c-14.4,0.1-26.1,11.9-26,26.3l0.6,137.8c0.1,14.4,11.9,26.1,26.3,26l192.4-0.8
			l45.7,61.7l8-61.9l31.6-0.1c14.4-0.1,26.1-11.9,26-26.3l-0.6-137.8C646.4,39.1,634.5,27.4,620.2,27.4z"/>
		<g>
			<g id="XMLID_365_">
				<polygon class="st3" points="714,448.8 718.8,455.9 708.9,468.8 697.9,467.9 692.5,459.4 699.4,454.5 698.5,452.5 699.9,449.5 
									"/>
			</g>
			<g id="XMLID_364_">
				<polygon class="st10" points="712.8,322.9 769.6,388.2 772.4,416.8 716.4,461.1 706.3,446.5 742.6,407.8 707.5,373.5 				"/>
			</g>
		</g>
		<g>
			<g>
				<path class="st2" d="M879.4,746.2l14.5-13.4c4.2-2.1,8.6-3.6,12.2-3.6c2.6,0,4.8,0.9,6.1,2.9c1.3,1.9,1.5,4.4,0.7,6.4
					c-0.3,0.7-0.8,1.4-1.3,2l0,0c0,0,0,0,0,0c-0.4,0.5-0.9,1.1-1.4,1.6c-0.3,0.3-0.6,0.7-1,1c-3,3.2-8,8.5-10,9.7
					c-2.9,1.8-9.4,6.4-17,1.2c0,0,0.1,0,0.1-0.1C879.6,752.2,878.8,749.1,879.4,746.2z"/>
				<path class="st11" d="M890.8,629.8l1.2,16.8l5.7,81.7l-5.7,9.5c0,0-1.2,7.6,7.6,7c2.6-0.2,11.8-11.9,11.8-11.9l-1.3-5.4
					l6.5-61.4l-0.1-17.8l3.1-19.8L890.8,629.8z"/>
			</g>
			<g>
				<path class="st2" d="M982.6,725.5c2.7-0.8,5.2-0.7,7.2,0.9c1.9,1.5,3,4,2.8,6.4c-0.1,1.6-0.8,3.1-1.5,4.6
					c-3.5,7.6-13.3,24.7-24.6,21.6c-4.7-1.3-6.5-6.1-5.6-10.4C962.5,742.1,973.6,728.3,982.6,725.5z"/>
			</g>
			<path class="st11" d="M925.9,620l2,24.2l47.4,85.4c0,0-6.8,11.9-2.5,12.9c4.3,1,17-2.6,17-16c-5-16.3-24.6-71.6-24.6-71.6
				l-9.2-14.3l0.1-26.8L925.9,620z"/>
			<path class="st4" d="M979.5,539.1c0.4-7.1-1.9-25.7-4.2-32.4c-8.5-24.3-10.2-36.3-10.2-56c0-19.8-3.8-81.5-3.8-81.5l-17.9-19.2
				l-36.5,1l-20.3,6.7c0,0-4.3,78.9-5.5,104.3c-0.9,18.1-2.1,33.8-3.8,54.9c0,0-4.6,47.9,2.5,99.3c0,0,1.6,17.1,2.3,18.6
				c0.1,0.5,0.1,0.8,0.1,0.8s0.3,0,0.3,0l81.2,0l0-29.3c2.7-9.4,5.3-18.8,7.7-28.3C974.6,565.8,978.8,552.3,979.5,539.1z"/>
			<path class="st16" d="M962.3,355.4l6.9,8.3c0,0-3.6,74.3-4.2,86.9c-0.6,12.6,15.7,62.9,15.7,62.9l-67.2,8.8
				c0,0-9.9-53.8-12.7-80.5c-2.8-26.7,37.8-91.8,37.8-91.8L962.3,355.4z"/>
			<path class="st16" d="M894.9,354.2l-13.7,6.5c0,0,1.9,80.2-1.6,100.6c-2.1,12.4-10.5,52.7-10.5,52.7l21.7,7.4
				c0,0,13.4-50.3,16-77c2.7-26.7-0.2-93.1-0.2-93.1L894.9,354.2z"/>
			<g>
				<g>
					<path class="st17" d="M897.5,324.8c-1.8,6.9,2.3,13.7,5.9,19.5c1.5,2.4,3.7,5.7,1.8,8.4c-2.1,3-7.4,2.4-9.7,0.2
						c-1.6-1.6-2.4-3.8-3.1-5.9c-3.1-9.5-7.5-22.8-6.6-32.8c0.7-8,10.5-22.2,20.6-17.1c1.8,0.9,3,2.7,4,4.4c0.6,1,1.2,2.1,1.3,3.2
						c0.5,4.6-4,5.8-6.9,8.3C901.2,316,898.7,320.4,897.5,324.8z"/>
					<path class="st11" d="M914.4,349.5c-6.8-0.9-12.4-5.6-15.4-11.3c-3-5.7-3.7-12.2-3.6-18.6c0.4-21.2,28.5-22.4,39.5-7.1
						C944.4,325.8,934,352,914.4,349.5z"/>
					<path class="st2" d="M933.6,322.6c0.2,2.6,1.5,5.3,1.9,7.9c0.7,4.9-0.4,11.2,1.4,15.6c4.9-0.7,10.9-3.8,14.6-7.1
						c3.7-3.5,3.1-8.6,3.9-13.7c0.8-4.7,1.8-9.4,1.5-14.2c-1.5-26.1-27.5-40.4-50.5-28.6c-8.7,4.5-12.5,15.8-6.1,23.2
						c6.9,8,20.8,4.5,29,10.5C931.2,317.4,932.6,319.8,933.6,322.6z"/>
				</g>
				<path class="st11" d="M913.8,347.4c0.3,1.6,0.7,3.2,1,4.7c0.2,0.7,0.1,2.8,0.7,3.3c0.3,0.3,0.8,0.2,1.2,0.2
					c1.2-0.1,12.1-1.5,12-2.2c-0.3-1.9-0.7-3.7-1.3-5.5c-0.5-1.4-0.6-4.1-1.5-5.2c-1.9,1.3-3.8,2.1-6,2.7c-2.1,0.6-4.2,1.2-6.4,1.7
					C913.8,347.1,913.8,347.2,913.8,347.4z"/>
			</g>
			<polygon class="st11" points="870.2,254.4 876.8,234.7 894.6,228.9 896.9,240.8 886.7,251.6 884.6,261.8 			"/>
			<polygon class="st16" points="906.3,372.1 868.6,337.4 891.4,252.1 872.2,248.2 832.4,333.7 836.8,361 894.1,407 			"/>
			<g>
				<path class="st6" d="M910.2,348.5c-9.1,0-16.4-7.3-16.4-16.4h-3.3c0,10.9,8.8,19.7,19.7,19.7V348.5z"/>
				<path class="st7" d="M918.8,347.2h-6.1c-1.7,0-3.1,1.4-3.1,3.1v0.5c0,1.7,1.4,3.1,3.1,3.1h6.1c1.7,0,3.1-1.4,3.1-3.1v-0.5
					C921.8,348.6,920.5,347.2,918.8,347.2z"/>
				<g>
					<path class="st6" d="M894,320.1v-13.5c0-14.6,11.8-26.4,26.4-26.4c14.6,0,26.4,11.8,26.4,26.4v13.5h5.8v-13.6
						c0-17.8-14.4-32.2-32.2-32.2c-17.8,0-32.2,14.4-32.2,32.2v13.6H894z"/>
				</g>
				<g>
					<path class="st18" d="M960.2,317.7c1,1.5,1,2.5,1,3.8v2.5v2.5c0,1.3,0,2.3-1,3.8l-1.6,1.9V324v-8.2L960.2,317.7z"/>
					<path class="st7" d="M949.9,336.1h3.1c3.1,0,5.6-2.5,5.6-5.6v-12.9c0-3.1-2.5-5.6-5.6-5.6h-3.1c-3.1,0-5.6,2.5-5.6,5.6v12.9
						C944.2,333.6,946.7,336.1,949.9,336.1z"/>
				</g>
				<g>
					<path class="st18" d="M880,317.7c-1,1.5-1,2.5-1,3.8v2.5v2.5c0,1.3,0,2.3,1,3.8l1.6,1.9V324v-8.2L880,317.7z"/>
					<path class="st7" d="M890.4,336.1h-3.1c-3.1,0-5.6-2.5-5.6-5.6v-12.9c0-3.1,2.5-5.6,5.6-5.6h3.1c3.1,0,5.6,2.5,5.6,5.6v12.9
						C896,333.6,893.5,336.1,890.4,336.1z"/>
				</g>
			</g>
			<g>
				<g>
					<g>
						<path class="st4" d="M817.2,295.1c-8.3-2-16.1-0.8-23.2,3.6c-7.1,4.4-11.8,10.8-13.8,19.1c-2,8.3-0.8,16.1,3.6,23.2
							c4.4,7.1,10.8,11.8,19.1,13.8c3.3,0.8,6.5,1.1,9.6,0.9c4.7-0.3,9.3-1.8,13.6-4.4c7.1-4.4,11.8-10.8,13.8-19.1
							c2-8.3,0.8-16.1-3.6-23.2C831.9,301.8,825.5,297.1,817.2,295.1z"/>
					</g>
					<g class="st15">
						<g>
							<path d="M836.3,308.9c-4.4-7.1-10.8-11.8-19.1-13.8c-2.7-0.6-5.3-0.9-7.9-0.9c5.3,2.5,9.6,6.4,12.8,11.6
								c4.4,7.2,5.6,15,3.6,23.2c-2,8.3-6.6,14.7-13.8,19.1c-4.3,2.6-8.9,4.1-13.6,4.4c-0.6,0-1.2,0.1-1.8,0.1
								c2,0.9,4.1,1.7,6.3,2.2c3.3,0.8,6.5,1.1,9.6,0.9c4.7-0.3,9.3-1.8,13.6-4.4c7.1-4.4,11.8-10.8,13.8-19.1
								C841.8,323.9,840.6,316.1,836.3,308.9z"/>
						</g>
					</g>
					<g>
						<path class="st4" d="M973.8,83.9c-14.2-21.2-36.5-35.6-66.4-42.8c-29.9-7.2-56.5-4.6-79,7.8c-19.6,10.7-33.3,27.6-40.8,50.2
							c-1.3,3.8-0.9,8,1.1,11.5c1.9,3.5,5.3,6.1,9.2,7l17.8,4.3c7.1,1.7,14.3-2.2,16.8-9.1c4.4-12.2,11.3-20.8,21-26.1
							c11.8-6.5,26.4-7.7,43.6-3.6c17.1,4.1,29.4,12,36.7,23.5c7.2,11.5,8.9,25.8,4.8,42.5c-5.6,23.1-15.9,37.1-30.8,41.5
							c-15.7,4.7-38.2,3.4-67-3.9l-7.7-1.9c-7.7-1.9-15.5,2.9-17.3,10.6l-16.2,67.1c-0.9,3.7-0.3,7.6,1.7,10.8
							c2,3.3,5.2,5.6,8.9,6.5l18.1,4.3c1.5,0.4,2.9,0.5,4.3,0.4c6.1-0.4,11.5-4.7,13-11l10.5-43.4c0.1-0.5,0.7-0.9,1.2-0.8
							c33.9,7.2,61.5,6,82.2-3.7c22-10.3,36.9-31.4,44.5-62.7C991.4,131.8,988,105.2,973.8,83.9z"/>
					</g>
					<g class="st15">
						<g>
							<path d="M973.8,83.9c-14.2-21.2-36.5-35.6-66.4-42.8c-18.5-4.5-35.7-5.2-51.5-2.1c8.4,0.4,17.2,1.7,26.2,3.8
								c29.9,7.2,52.2,21.6,66.4,42.8c14.2,21.3,17.6,47.9,10.1,79.1c-7.5,31.3-22.5,52.4-44.5,62.7c-6.3,3-13.4,5.1-21,6.5
								c18,0.5,33.5-2.3,46.3-8.2c22-10.3,36.9-31.4,44.5-62.7C991.4,131.8,988,105.2,973.8,83.9z"/>
						</g>
					</g>
				</g>
			</g>
			<g>
				<g>
					<g>
						<path class="st2" d="M928.9,598.8l-118.8-3.9c-1,0-1.7-0.8-1.7-1.8l6.6-202c0-1,0.8-1.7,1.8-1.7l118.8,3.9
							c1,0,1.7,0.8,1.7,1.8l-6.6,202C930.6,598.1,929.8,598.8,928.9,598.8z"/>
					</g>
					
						<rect x="821" y="402" transform="matrix(0.9995 3.243598e-02 -3.243598e-02 0.9995 16.2009 -28.0648)" class="st1" width="104.2" height="166.6"/>
					<path class="st1" d="M882.3,589l-25.2-0.8c-0.6,0-1.1-0.5-1.1-1.1l0.2-6.5c0-0.6,0.5-1.1,1.1-1.1l25.2,0.8
						c0.6,0,1.1,0.5,1.1,1.1l-0.2,6.5C883.5,588.5,882.9,589,882.3,589z"/>
				</g>
			</g>
			<g>
				<polygon class="st11" points="954.8,484.2 946.3,503.3 928.1,507.4 926.9,495.4 938,485.5 941.1,475.6 				"/>
				<polygon class="st16" points="946.4,367.8 971.8,422.9 941.1,475.6 953.7,487.3 996.8,433.1 1003.3,414.5 969.2,363.7 				"/>
			</g>
		</g>
		<g>
			<polygon class="st3" points="279.7,319.7 277.9,311.9 279.9,310 283.7,313.4 288.7,303.4 296.9,298.5 301.2,303.1 294.1,313.8 
				289.6,320.6 285.7,334.8 278.9,332.8 			"/>
			<path class="st5" d="M269.5,361.7c2.6-12.9,4.7-25.9,6.1-39c5.5-0.4,11,0.4,16.1,2.5c1.4,23.1,0.3,46.3-3.2,69.2
				c-0.1,1-0.4,2.1-1.1,2.7c-0.7,0.5-1.6,0.6-2.4,0.6c-8.1,0-16-2.4-23.6-5c-11.7-4-23.1-8.7-34.2-14c1.2-7,1.5-14.2,0.8-21.4
				c-1-9.8,1.3-23.3,13.4-15.7C244.6,343.6,270.1,359,269.5,361.7z"/>
		</g>
	</g>
</g>
</svg>
