<?xml version="1.0" encoding="utf-8"?>
<!-- Generator: Adobe Illustrator 22.1.0, SVG Export Plug-In . SVG Version: 6.00 Build 0)  -->
<svg version="1.0" xmlns="http://www.w3.org/2000/svg" xmlns:xlink="http://www.w3.org/1999/xlink" x="0px" y="0px"
	 viewBox="0 0 500 500" style="enable-background:new 0 0 500 500;" xml:space="preserve">
<style type="text/css">
	.st0{fill:#FFFFFF;}
	.st1{fill:#D6953E;}
	.st2{fill:#B57B35;}
	.st3{fill:#285C77;}
	.st4{fill:#868689;}
	.st5{fill:#6D6D6D;}
	.st6{fill:#C5C4D7;}
	.st7{fill:#A5A5AD;}
	.st8{fill:#172F47;}
	.st9{fill:#202739;}
	.st10{fill:#A7A6BB;}
	.st11{fill:#FEFEFE;}
	.st12{fill:#FD7C3A;}
	.st13{fill:#004DB9;}
	.st14{fill:#D3D3D3;}
	.st15{fill:#ADADAD;}
	.st16{fill:#E4E4EF;}
	.st17{fill:#897762;}
	.st18{fill:#331D0B;}
	.st19{fill:#635140;}
	.st20{fill:#EDAC7C;}
	.st21{fill:#F7A588;}
	.st22{fill:#CF9166;}
	.st23{fill:#B57223;}
	.st24{fill:#39748E;}
	.st25{fill:#77BFD8;}
	.st26{display:none;fill:#285C77;}
	.st27{font-family:'Montserrat-Bold';}
	.st28{font-size:25.0376px;}
	.st29{display:none;}
	.st30{display:inline;}
</style>
<g id="BACKGROUND">
	<rect id="XMLID_1_" class="st0" width="500" height="500"/>
</g>
<g id="OBJECTS">
	<g>
		<g>
			<polygon class="st1" points="115.1,251.5 150.6,167.9 150.6,151.4 108.1,251.5 			"/>
			<polygon class="st2" points="145.5,166.9 150.6,167.9 150.6,151.4 144.5,165.8 143.4,168.3 			"/>
		</g>
		<g>
			<path class="st3" d="M307.3,67.4l-14.1,13.1l4.9,7.4c1,1.5,1.1,3.4,0.3,5.1c0,0,0,0,0,0.1c-0.8,1.6-2.3,2.8-4.1,3.1l-8.8,1.2
				l-0.7,19.2l8.7,1.8c1.8,0.4,3.2,1.7,3.8,3.3c0,0,0,0,0,0.1c0.6,1.7,0.4,3.6-0.7,5l-5.4,7l6.5,7.1l6.5,7.1l7.4-4.9
				c1.5-1,3.4-1.1,5.1-0.3c0,0,0,0,0.1,0c1.6,0.8,2.8,2.3,3.1,4.1l1.2,8.8l19.2,0.7l1.8-8.7c0.4-1.8,1.7-3.2,3.3-3.8c0,0,0,0,0.1,0
				c1.7-0.6,3.6-0.4,5,0.7l7,5.4l14.1-13.1l-4.9-7.4c-1-1.5-1.1-3.4-0.3-5.1c0,0,0,0,0-0.1c0.8-1.6,2.3-2.8,4.1-3.1l8.8-1.2
				l0.7-19.2l-8.7-1.8c-1.8-0.4-3.2-1.7-3.8-3.3c0,0,0,0,0-0.1c-0.6-1.7-0.4-3.6,0.7-5l5.4-7l-6.5-7.1l-6.5-7.1l-7.4,4.9
				c-1.5,1-3.4,1.1-5.1,0.3c0,0,0,0-0.1,0c-1.6-0.8-2.8-2.3-3.1-4.1l-1.2-8.8L324.5,61l-1.8,8.7c-0.4,1.8-1.7,3.2-3.3,3.8
				c0,0,0,0-0.1,0c-1.7,0.6-3.6,0.4-5-0.7L307.3,67.4z M353.2,89.2c10.7,11.5,10,29.5-1.5,40.1c-11.5,10.7-29.5,10-40.1-1.5
				c-10.7-11.5-10-29.5,1.5-40.1C324.5,77.1,342.5,77.7,353.2,89.2z"/>
			<path class="st1" d="M394.9,89.7l-6.2,5.8l2.1,3.3c0.4,0.7,0.5,1.5,0.1,2.2c0,0,0,0,0,0c-0.3,0.7-1,1.2-1.8,1.3l-3.9,0.5
				l-0.3,8.5l3.8,0.8c0.8,0.2,1.4,0.7,1.7,1.5c0,0,0,0,0,0c0.3,0.7,0.2,1.6-0.3,2.2l-2.4,3.1l2.9,3.1l2.9,3.1l3.3-2.1
				c0.7-0.4,1.5-0.5,2.2-0.1c0,0,0,0,0,0c0.7,0.3,1.2,1,1.3,1.8l0.5,3.9l8.5,0.3l0.8-3.8c0.2-0.8,0.7-1.4,1.5-1.7c0,0,0,0,0,0
				c0.7-0.3,1.6-0.2,2.2,0.3l3.1,2.4l6.2-5.8l-2.1-3.3c-0.4-0.7-0.5-1.5-0.1-2.2c0,0,0,0,0,0c0.3-0.7,1-1.2,1.8-1.3l3.9-0.5l0.3-8.5
				l-3.8-0.8c-0.8-0.2-1.4-0.7-1.7-1.5c0,0,0,0,0,0c-0.3-0.7-0.2-1.6,0.3-2.2l2.4-3.1l-2.9-3.1l-2.9-3.1l-3.3,2.1
				c-0.7,0.4-1.5,0.5-2.2,0.1c0,0,0,0,0,0c-0.7-0.3-1.2-1-1.3-1.8l-0.5-3.9l-8.5-0.3l-0.8,3.8c-0.2,0.8-0.7,1.4-1.5,1.7c0,0,0,0,0,0
				c-0.7,0.3-1.6,0.2-2.2-0.3L394.9,89.7z M415.2,99.4c4.7,5.1,4.4,13-0.7,17.7c-5.1,4.7-13,4.4-17.7-0.7c-4.7-5.1-4.4-13,0.7-17.7
				C402.6,94,410.5,94.3,415.2,99.4z"/>
			<path class="st1" d="M246.5,39.5l-9.2,8.5l3.2,4.8c0.6,1,0.7,2.2,0.2,3.3c0,0,0,0,0,0c-0.5,1.1-1.5,1.8-2.6,2l-5.7,0.8l-0.5,12.5
				l5.6,1.2c1.2,0.2,2.1,1.1,2.5,2.2c0,0,0,0,0,0c0.4,1.1,0.3,2.3-0.5,3.3l-3.5,4.6l4.3,4.6l4.3,4.6l4.8-3.2c1-0.6,2.2-0.7,3.3-0.2
				c0,0,0,0,0,0c1.1,0.5,1.8,1.5,2,2.6l0.8,5.7l12.5,0.5l1.2-5.6c0.2-1.2,1.1-2.1,2.2-2.5c0,0,0,0,0,0c1.1-0.4,2.3-0.3,3.3,0.5
				l4.6,3.5l9.2-8.5l-3.2-4.8c-0.6-1-0.7-2.2-0.2-3.3c0,0,0,0,0,0c0.5-1.1,1.5-1.8,2.6-2l5.7-0.8l0.5-12.5l-5.6-1.2
				c-1.2-0.2-2.1-1.1-2.5-2.2c0,0,0,0,0,0c-0.4-1.1-0.3-2.3,0.5-3.3l3.5-4.6l-4.3-4.6l-4.3-4.6l-4.8,3.2c-1,0.6-2.2,0.7-3.3,0.2
				c0,0,0,0,0,0c-1.1-0.5-1.8-1.5-2-2.6l-0.8-5.7l-12.5-0.5l-1.2,5.6c-0.2,1.2-1.1,2.1-2.2,2.5c0,0,0,0,0,0
				c-1.1,0.4-2.3,0.3-3.3-0.5L246.5,39.5z M276.3,53.7c6.9,7.5,6.5,19.1-1,26.1c-7.5,6.9-19.1,6.5-26.1-1c-6.9-7.5-6.5-19.1,1-26.1
				C257.7,45.8,269.4,46.2,276.3,53.7z"/>
		</g>
		<g>
			<g>
				<path id="XMLID_206_" class="st4" d="M89.3,260.1h321.5c2.4,0,4.3-1.9,4.3-4.3l0,0c0-2.4-1.9-4.3-4.3-4.3H89.3
					c-2.4,0-4.3,1.9-4.3,4.3l0,0C84.9,258.2,86.9,260.1,89.3,260.1z"/>
				<path class="st5" d="M85.3,257.5c0.7,1.5,2.2,2.6,4,2.6h321.5c1.8,0,3.3-1.1,4-2.6H85.3z"/>
			</g>
			
				<rect id="XMLID_42_" x="184" y="246.9" transform="matrix(-1 -1.224647e-16 1.224647e-16 -1 487.3196 498.3535)" class="st6" width="119.3" height="4.5"/>
			
				<rect id="XMLID_270_" x="196.1" y="246.9" transform="matrix(-1 -1.224647e-16 1.224647e-16 -1 511.5421 498.3535)" class="st7" width="119.3" height="4.5"/>
		</g>
		<g>
			<path id="XMLID_520_" class="st8" d="M339.2,219.6H161.6c-3.9,0-7-3.1-7-7V106.8c0-3.9,3.1-7,7-7h177.6c3.9,0,7,3.1,7,7v105.8
				C346.2,216.4,343.1,219.6,339.2,219.6z"/>
			<rect x="249.1" y="117.7" class="st9" width="2.6" height="83.8"/>
			<path class="st10" d="M346.2,112.3v-6.1c0-3.6-2.9-6.5-6.5-6.5H161.1c-3.6,0-6.5,2.9-6.5,6.5v6.1H346.2z"/>
			<g>
				<g>
					<rect x="265.6" y="161.2" class="st11" width="26.3" height="4.5"/>
					<rect x="265.6" y="169.9" class="st12" width="32.8" height="4.5"/>
					<rect x="301.7" y="169.9" class="st11" width="16.2" height="4.5"/>
					<rect x="265.6" y="178.7" class="st11" width="12.9" height="4.5"/>
					<rect x="283" y="178.7" class="st11" width="48.5" height="4.5"/>
					<rect x="298.1" y="161.2" class="st13" width="15.1" height="4.5"/>
				</g>
				<g>
					<rect x="265.6" y="120" class="st11" width="26.3" height="4.5"/>
					<rect x="265.6" y="128.8" class="st12" width="32.8" height="4.5"/>
					<rect x="301.7" y="128.8" class="st11" width="16.2" height="4.5"/>
					<rect x="265.6" y="137.6" class="st11" width="12.9" height="4.5"/>
					<rect x="283" y="137.6" class="st11" width="48.5" height="4.5"/>
					<rect x="298.1" y="120" class="st13" width="15.1" height="4.5"/>
				</g>
			</g>
			<g>
				<g>
					<rect x="176" y="161.2" class="st11" width="26.3" height="4.5"/>
					<rect x="176" y="169.9" class="st12" width="32.8" height="4.5"/>
					<rect x="212.2" y="169.9" class="st11" width="16.2" height="4.5"/>
					<rect x="176" y="178.7" class="st11" width="12.9" height="4.5"/>
					<rect x="193.4" y="178.7" class="st11" width="48.5" height="4.5"/>
					<rect x="208.5" y="161.2" class="st13" width="15.1" height="4.5"/>
				</g>
				<g>
					<rect x="176" y="120" class="st11" width="26.3" height="4.5"/>
					<rect x="176" y="128.8" class="st12" width="32.8" height="4.5"/>
					<rect x="212.2" y="128.8" class="st11" width="16.2" height="4.5"/>
					<rect x="176" y="137.6" class="st11" width="12.9" height="4.5"/>
					<rect x="193.4" y="137.6" class="st11" width="48.5" height="4.5"/>
					<rect x="208.5" y="120" class="st13" width="15.1" height="4.5"/>
				</g>
			</g>
			<g id="XMLID_327_">
				<path class="st4" d="M336.9,223.6H164c-7.4,0-13.4-6-13.4-13.4v-101c0-7.4,6-13.4,13.4-13.4h172.8c7.4,0,13.4,6,13.4,13.4v101
					C350.3,217.6,344.2,223.6,336.9,223.6z M164,103.8c-3,0-5.4,2.4-5.4,5.4v83.1c0,3,2.4,5.4,5.4,5.4h172.8c3,0,5.4-2.4,5.4-5.4
					v-83.1c0-3-2.4-5.4-5.4-5.4H164z"/>
			</g>
			<path class="st14" d="M332.7,201.2l0.4-1.7c1.1-4.8-0.5-9.8-4-13.1v0c-3.6-3.3-8.7-4.5-13.3-3l-0.8,0.3l10.3,9.6l-1.6,6.9
				l-6.7,2.1l-10.3-9.6l-0.2,0.8c-1.1,4.8,0.5,9.8,4,13.1l0,0c3.6,3.3,8.7,4.5,13.3,3l1.7-0.5l15.1,14c3.6-1,6.6-3.6,8.3-6.9
				L332.7,201.2z"/>
			<g>
				<path class="st5" d="M336.9,101.8H164c-3,0-5.4,2.4-5.4,5.4v2c0-3,2.4-5.4,5.4-5.4h172.8c3,0,5.4,2.4,5.4,5.4v-2
					C342.2,104.2,339.8,101.8,336.9,101.8z"/>
				<path class="st5" d="M336.9,221.6H164c-7.4,0-13.4-6-13.4-13.4v2c0,7.4,6,13.4,13.4,13.4h172.8c7.4,0,13.4-6,13.4-13.4v-2
					C350.3,215.6,344.2,221.6,336.9,221.6z"/>
			</g>
			<path class="st11" d="M333.5,108.2c0,1.1-0.9,2-2,2c-1.1,0-2-0.9-2-2c0-1.1,0.9-2,2-2C332.6,106.2,333.5,107.1,333.5,108.2z"/>
			<path class="st9" d="M326.5,108.2c0,1.1-0.9,2-2,2s-2-0.9-2-2c0-1.1,0.9-2,2-2S326.5,107.1,326.5,108.2z"/>
			<path class="st12" d="M319.5,108.2c0,1.1-0.9,2-2,2s-2-0.9-2-2c0-1.1,0.9-2,2-2S319.5,107.1,319.5,108.2z"/>
		</g>
		<g>
			<polygon class="st1" points="144.8,251.5 188.1,149.6 182.2,147 137.8,251.5 			"/>
			<path class="st1" d="M145.1,168.5L145.1,168.5c0-1.8,1.4-3.2,3.2-3.2H176v6.5h-27.7C146.5,171.7,145.1,170.3,145.1,168.5z"/>
			
				<rect x="148.5" y="176.1" transform="matrix(-1.836970e-16 1 -1 -1.836970e-16 343.2913 39.7661)" class="st1" width="6.5" height="30.8"/>
			
				<rect x="139" y="198.8" transform="matrix(-1.836970e-16 1 -1 -1.836970e-16 356.7336 72.3373)" class="st1" width="6.5" height="31.5"/>
			
				<rect x="129.2" y="222.3" transform="matrix(-1.836970e-16 1 -1 -1.836970e-16 369.9455 105.139)" class="st1" width="6.5" height="30.5"/>
		</g>
		<g>
			<path class="st15" d="M370.6,243.2l-34.5-49l0.7-1.6c2.1-4.4,1.6-9.6-1.2-13.6c-2.8-4-7.5-6.2-12.4-5.8l-0.9,0.1l8.1,11.5l-3,6.4
				l-7,0.6l-8.1-11.5l-0.4,0.8c-2.1,4.4-1.6,9.6,1.2,13.6c2.8,4,7.5,6.2,12.4,5.8l1.7-0.2l34.5,49c1.7,2.4,5,3,7.4,1.3
				S372.3,245.6,370.6,243.2z"/>
			<path class="st4" d="M365.4,245.1L365.4,245.1c-1.2,0.8-2.8,0.5-3.7-0.6l-28.9-41.1c-0.8-1.2-0.5-2.8,0.6-3.7l0,0
				c1.2-0.8,2.8-0.5,3.7,0.6l28.9,41.1C366.9,242.6,366.6,244.3,365.4,245.1z"/>
		</g>
	</g>
	<g>
		<path class="st16" d="M422,368.7H78c-3.1,0-5.6-2.5-5.6-5.6l0,0c0-3.1,2.5-5.6,5.6-5.6h344c3.1,0,5.6,2.5,5.6,5.6l0,0
			C427.6,366.2,425.1,368.7,422,368.7z"/>
		<path class="st6" d="M316.2,368.7H183.8c-3.1,0-5.6-2.5-5.6-5.6l0,0c0-3.1,2.5-5.6,5.6-5.6h132.5c3.1,0,5.6,2.5,5.6,5.6l0,0
			C321.9,366.2,319.3,368.7,316.2,368.7z"/>
	</g>
	<g>
		<path class="st17" d="M249.1,266.6h31.7c0.5,0,1.1,0,1.6,0.1c10.8,1.1,18,11.8,15.4,22.3l-13,60.4h-18.7l9-57.3h-26.1V266.6z"/>
		<path class="st18" d="M266.3,349.4h15.6c0,0,16.6,1.6,16.6,12.5h-32.1V349.4z"/>
		<path class="st17" d="M250.9,266.6h-31.7c-0.5,0-1.1,0-1.6,0.1c-10.8,1.1-18,11.8-15.4,22.3l13,60.4h18.7l-9-57.3h26.1V266.6z"/>
		<path class="st19" d="M277.2,349.4c0.1-0.2,0.1-0.4,0.2-0.6c2.2-7.1,4.2-24.1,6.2-31.3c2.2-7.7,4.2-15.4,5.7-23.2
			c0.3-1.6,0.6-3.2,0.8-4.8c0.1-0.7,0.2-1.2,0.2-1.4c0.1-0.8,0.2-1.7,0.3-2.5c0-0.2,0-0.4,0.1-0.6h-41.5v7.2h26.1l-9,57.3H277.2z"/>
		<path class="st19" d="M250.9,284.9H211c0.2,0.8,0.4,1.6,0.6,2.4c1.8,6.9,4,13.7,6.3,20.4c2.2,6.6,4.5,13.2,6.2,19.9
			c1,4,1.7,17.8,2.7,21.7h7l-9-57.3h26.1V284.9z"/>
		<g id="XMLID_534_">
			<g id="XMLID_535_">
				<g id="XMLID_537_">
					<g id="XMLID_570_">
						<path id="XMLID_573_" class="st20" d="M231.7,160.8c0,0-4-6.3-8.5-2.8c-4.5,3.4,0.3,15.8,8.5,13.8L231.7,160.8z"/>
						<path id="XMLID_572_" class="st21" d="M231.7,164.9l0,5.6c-7,0.6-10.1-9.4-6.7-10.5C227.7,159.3,230.5,163,231.7,164.9z"/>
						<path id="XMLID_571_" class="st22" d="M223.7,162c0,0,0,0,0-0.1c0-0.1,0.1-0.2,0.1-0.3c0.1-0.3,0.3-0.7,0.7-0.9
							c0.1-0.1,0.2-0.1,0.3-0.2c0.1,0,0.1,0,0.2-0.1l0,0l0,0c0,0,0,0,0,0l0,0l0,0l0,0l0.1,0c0.1,0,0.1,0,0.2,0c0.1,0,0.1,0,0.2,0
							c0.1,0,0.1,0,0.2,0c0.1,0,0.1,0,0.2,0c0.6,0.1,1.1,0.4,1.7,0.7c0.3,0.2,0.5,0.4,0.8,0.6c0.3,0.2,0.5,0.4,0.7,0.6
							c0.5,0.4,0.9,0.9,1.2,1.2c0.7,0.8,1.2,1.3,1.2,1.3s-0.1-0.2-0.2-0.5c-0.1-0.3-0.3-0.7-0.6-1.2c-0.1-0.2-0.3-0.5-0.5-0.7
							c-0.2-0.3-0.4-0.5-0.6-0.8c-0.4-0.5-1-1-1.6-1.4c-0.3-0.2-0.7-0.4-1-0.5c-0.4-0.1-0.7-0.2-1.1-0.3c-0.1,0-0.2,0-0.3,0
							c-0.1,0-0.2,0-0.3,0c-0.1,0-0.2,0-0.3,0c-0.1,0-0.2,0-0.2,0.1l-0.1,0l-0.1,0l-0.1,0c-0.1,0-0.2,0.1-0.2,0.1
							c-0.1,0.1-0.3,0.2-0.4,0.3c-0.2,0.2-0.3,0.5-0.4,0.7c-0.1,0.2-0.1,0.4-0.1,0.6c0,0.2,0,0.3,0,0.4
							C223.7,162,223.7,162,223.7,162z"/>
					</g>
					<g id="XMLID_566_">
						<path id="XMLID_569_" class="st20" d="M273.8,164.4c0,0,5-5.5,8.9-1.3c3.9,4.2-3,15.5-10.8,12.1L273.8,164.4z"/>
						<path id="XMLID_568_" class="st21" d="M273.1,168.5l-1,5.6c6.8,1.8,11.5-7.6,8.4-9.2C278.1,163.6,274.6,166.8,273.1,168.5z"/>
						<path id="XMLID_567_" class="st22" d="M281.5,167c0,0,0,0,0-0.1c0-0.1,0-0.2-0.1-0.3c-0.1-0.3-0.2-0.7-0.5-1
							c-0.1-0.1-0.2-0.1-0.3-0.2c-0.1,0-0.1-0.1-0.2-0.1l0,0l0,0c0,0,0,0,0,0l0,0l0,0l0,0l-0.1,0c-0.1,0-0.1,0-0.2-0.1
							c-0.1,0-0.1,0-0.2,0c-0.1,0-0.1,0-0.2,0c-0.1,0-0.1,0-0.2,0c-0.6,0-1.2,0.2-1.8,0.4c-0.3,0.1-0.6,0.3-0.9,0.4
							c-0.3,0.2-0.6,0.3-0.8,0.5c-0.5,0.4-1,0.7-1.4,1c-0.8,0.6-1.4,1.1-1.4,1.1s0.1-0.2,0.3-0.4c0.2-0.3,0.4-0.6,0.8-1
							c0.2-0.2,0.4-0.4,0.6-0.6c0.2-0.2,0.5-0.4,0.7-0.7c0.5-0.4,1.1-0.8,1.8-1.2c0.3-0.1,0.7-0.3,1.1-0.3c0.4-0.1,0.8-0.1,1.1-0.1
							c0.1,0,0.2,0,0.3,0c0.1,0,0.2,0,0.3,0.1c0.1,0,0.2,0.1,0.3,0.1c0.1,0,0.2,0.1,0.2,0.1l0.1,0.1l0.1,0l0.1,0
							c0.1,0,0.1,0.1,0.2,0.2c0.1,0.1,0.2,0.2,0.3,0.4c0.2,0.3,0.2,0.5,0.3,0.7c0,0.2,0,0.4,0,0.6c0,0.2,0,0.3-0.1,0.4
							C281.5,167,281.5,167,281.5,167z"/>
					</g>
					<path id="XMLID_565_" class="st20" d="M245.2,180.8l11.4,0c0,0,0.5,17.9,0.5,17.9c0,0-0.8,3.6-5.9,3.7
						c-5.1,0.1-6.3-3.6-6.3-3.6C244.9,198.6,245.2,180.8,245.2,180.8z"/>
					<path id="XMLID_14_" class="st22" d="M245.2,180.8l11.4,0c0,0,0.5,17.9,0.5,17.9c0,0-0.8,3.6-5.9,3.7c-5.1,0.1-6.3-3.6-6.3-3.6
						C244.9,198.6,245.2,180.8,245.2,180.8z"/>
					<path id="XMLID_563_" class="st22" d="M245.9,183.6l11.4,1c0,0-0.1,2.3-0.1,4.2c0,0.3-3.3,0.5-3.7,0.5
						c-2.8,0.2-5.5-0.4-8.2-1.3C245.6,186,245.9,183.6,245.9,183.6z"/>
					<path id="XMLID_561_" class="st22" d="M229.3,155.5c1-7.9,5-15.1,13.1-17.5c4.1-1.2,8.5-1.3,12.8-0.8c4.2,0.4,8.7,1.1,12.5,3
						c6.8,3.3,5.5,6.9,5.6,14.2c0,0.7,4.5,4.6,4.4,5.3c-0.1,1.6-0.1,3.3-0.3,4.9c-0.5,3.7-1.4,7.3-2.9,10.7
						c-1.8,4.1-4.6,7.8-8.4,10.4c-2.1,1.5-4.6,2.5-7.1,3.2c-4.2,1.1-8.1,1.2-12.2,0.1c-2.8-0.8-5.5-2-7.9-3.6
						c-4-2.8-6.8-6.8-8.4-11.3c-1.3-3.8-1.8-7.8-1.8-11.8c0-2.2,0.2-4.4,0.6-6.5C229.3,155.6,229.3,155.6,229.3,155.5z"/>
					<g id="XMLID_538_">
						<path id="XMLID_539_" class="st22" d="M228.9,155.7c0,0-0.1-3.1,0.2-7.1C228.8,152.7,228.9,155.7,228.9,155.7z"/>
					</g>
					<path id="XMLID_574_" class="st23" d="M233.4,139.5c7.2-10.8,45.5-14,48,22.3c1.8,26.4-28.1,29.7-42.5,23.5
						C214.4,174.7,226.2,150.3,233.4,139.5z"/>
				</g>
				<path id="XMLID_536_" class="st23" d="M228.5,166.6c0,0-3.4-1-5.3-8.7c-1.3-5.2,0.2-16.2,6.6-21.5c3.8-3.1,4.8-1.7,4.8-1.7
					s1-3.7,8.1-6.8c23.4-10.1,29.4,0.9,32.7,10c4.5,12.4,2.3,21.7-22.2,13.7c-9.9-3.2-16.2-4.8-16.2-4.8s0.1,3.2-1.9,7.7
					c-2,4.5-6.7,9.5-6.7,9.5"/>
			</g>
		</g>
		<path class="st13" d="M294.9,236.5l-13.7-31.1c-2-4.5-7.2-7.4-13.1-7.4h-16.3H250h-16.3c-5.9,0-11.1,3-13.1,7.4L207,236.5
			c-3.2,7.2,3.5,14.8,13.1,14.8h30h1.8h30C291.4,251.3,298.1,243.7,294.9,236.5z"/>
		<path class="st24" d="M271.2,283.8h-39.8c-7.8,0-14.1-6.3-14.1-14.1v-52.2c0-7.8,6.3-14.1,14.1-14.1h39.8
			c7.8,0,14.1,6.3,14.1,14.1v52.2C285.3,277.5,279,283.8,271.2,283.8z"/>
		<path class="st3" d="M267.9,278.9h-33.2c-7.8,0-14.1-6.3-14.1-14.1v-47.3c0-7.8,6.3-14.1,14.1-14.1h33.2c7.8,0,14.1,6.3,14.1,14.1
			v47.3C282,272.6,275.7,278.9,267.9,278.9z"/>
		<path class="st24" d="M266.9,194.2h-33.2c-7.8,0-14.1-6.3-14.1-14.1v-11.7c0-7.8,6.3-14.1,14.1-14.1h33.2
			c7.8,0,14.1,6.3,14.1,14.1v11.7C281,187.9,274.7,194.2,266.9,194.2z"/>
		<path class="st3" d="M265.8,190.8h-31c-6.3,0-11.4-5.1-11.4-11.4v-12.2c0-6.3,5.1-11.4,11.4-11.4h31c6.3,0,11.4,5.1,11.4,11.4
			v12.2C277.1,185.7,272.1,190.8,265.8,190.8z"/>
		<ellipse class="st3" cx="250" cy="294.4" rx="39.8" ry="9.4"/>
		<path class="st24" d="M219.6,288.4c7.3,0.8,18.2,1.3,30.4,1.3c12.2,0,23.1-0.5,30.4-1.3c-7.3-2-18.2-3.3-30.4-3.3
			C237.8,285.1,226.9,286.4,219.6,288.4z"/>
		<path class="st25" d="M210.9,296.3c3.6,4.3,19.7,7.5,39,7.5s35.4-3.2,39-7.5H210.9z"/>
		<path class="st9" d="M255.8,350.3h-11.7v-95.7c0-3.2,2.6-5.8,5.8-5.8l0,0c3.2,0,5.8,2.6,5.8,5.8V350.3z"/>
		<path class="st9" d="M254.1,250.2h-8.2v-82c0-2.3,1.8-4.1,4.1-4.1l0,0c2.3,0,4.1,1.8,4.1,4.1V250.2z"/>
		<path class="st18" d="M233.8,349.4h-15.6c0,0-16.6,1.6-16.6,12.5h32.1V349.4z"/>
		<g>
			<g>
				<path class="st9" d="M249.5,302.4c-0.2,0-16.4,1.4-34.2-3.9c-12.8-3.8-11.2-30.3-9.1-42.9c5-0.2,8.9-1.3,8.9-2.7
					c0-1.5-4.7-2.7-10.5-2.7c-5.8,0-10.5,1.2-10.5,2.7c0,1.2,3.2,2.3,7.7,2.6c-1.6,9.9-5.1,41.4,12.1,46.5
					c12.2,3.6,23.6,4.3,30.2,4.3c3.5,0,5.7-0.2,6-0.2L249.5,302.4z"/>
			</g>
			<g>
				<path class="st9" d="M252.2,302.4c0.2,0,16.4,1.4,34.2-3.9c12.8-3.8,11.2-30.3,9.1-42.9c-5-0.2-8.9-1.3-8.9-2.7
					c0-1.5,4.7-2.7,10.5-2.7c5.8,0,10.5,1.2,10.5,2.7c0,1.2-3.2,2.3-7.7,2.6c1.6,9.9,5.1,41.4-12.1,46.5
					c-12.2,3.6-23.6,4.3-30.2,4.3c-3.5,0-5.7-0.2-6-0.2L252.2,302.4z"/>
			</g>
		</g>
		<path class="st9" d="M256.9,357.2c0,3.8-3.1,6.9-6.9,6.9c-3.8,0-6.9-3.1-6.9-6.9c0-3.8,3.1-6.9,6.9-6.9
			C253.8,350.3,256.9,353.4,256.9,357.2z"/>
		<path class="st9" d="M256.9,251.3c0,3.8-3.1,6.9-6.9,6.9c-3.8,0-6.9-3.1-6.9-6.9c0-3.8,3.1-6.9,6.9-6.9
			C253.8,244.4,256.9,247.5,256.9,251.3z"/>
		<g>
			<path class="st9" d="M234.2,357.2c0,3.8-3.1,6.9-6.9,6.9c-3.8,0-6.9-3.1-6.9-6.9c0-3.8,3.1-6.9,6.9-6.9
				C231.1,350.3,234.2,353.4,234.2,357.2z"/>
			<path class="st9" d="M279.5,357.2c0,3.8-3.1,6.9-6.9,6.9c-3.8,0-6.9-3.1-6.9-6.9c0-3.8,3.1-6.9,6.9-6.9
				C276.4,350.3,279.5,353.4,279.5,357.2z"/>
		</g>
		<rect x="229.2" y="349.4" class="st9" width="41.6" height="4.8"/>
	</g>
	<text transform="matrix(1 0 0 1 72.3853 441.3311)" class="st26 st27 st28">PROGRAMMERS CONCEPT </text>
</g>
<g id="DESIGNED_BY_FREEPIK" class="st29">
	<g id="XMLID_405_" class="st30">
		<g>
			<g id="XMLID_581_">
				<path id="XMLID_606_" class="st3" d="M177.1,479.6v-0.2c-0.2,0.3-0.5,0.5-0.7,0.6c-0.2,0.2-0.5,0.3-0.7,0.4
					c-0.3,0.1-0.5,0.1-0.8,0.1c-0.4,0-0.8-0.1-1.1-0.3c-0.3-0.2-0.6-0.4-0.9-0.7c-0.3-0.3-0.4-0.7-0.6-1.1c-0.1-0.4-0.2-0.9-0.2-1.4
					c0-1.1,0.3-1.9,0.8-2.5c0.5-0.6,1.2-0.9,2-0.9c0.5,0,0.9,0.1,1.2,0.3c0.3,0.2,0.7,0.4,1,0.8v-2.5c0-0.3,0.1-0.6,0.2-0.8
					c0.1-0.2,0.3-0.3,0.6-0.3c0.3,0,0.5,0.1,0.6,0.2c0.1,0.2,0.2,0.4,0.2,0.7v7.5c0,0.3-0.1,0.6-0.2,0.7c-0.1,0.2-0.3,0.2-0.6,0.2
					c-0.2,0-0.4-0.1-0.6-0.3C177.2,480.1,177.1,479.9,177.1,479.6z M173.8,477.1c0,0.5,0.1,0.9,0.2,1.2c0.1,0.3,0.3,0.6,0.6,0.7
					c0.2,0.2,0.5,0.2,0.8,0.2c0.3,0,0.6-0.1,0.8-0.2c0.2-0.2,0.4-0.4,0.6-0.7c0.1-0.3,0.2-0.7,0.2-1.2c0-0.5-0.1-0.8-0.2-1.2
					c-0.1-0.3-0.3-0.6-0.6-0.7c-0.3-0.2-0.5-0.3-0.8-0.3c-0.3,0-0.6,0.1-0.8,0.3c-0.2,0.2-0.4,0.4-0.6,0.8
					C173.9,476.3,173.8,476.6,173.8,477.1z"/>
				<path id="XMLID_603_" class="st3" d="M184.6,477.5h-3.3c0,0.4,0.1,0.7,0.2,1c0.1,0.3,0.4,0.5,0.6,0.7c0.3,0.1,0.5,0.2,0.8,0.2
					c0.2,0,0.4,0,0.6-0.1c0.2,0,0.3-0.1,0.5-0.2c0.2-0.1,0.3-0.2,0.4-0.3c0.1-0.1,0.3-0.3,0.5-0.5c0.1-0.1,0.2-0.1,0.4-0.1
					c0.2,0,0.3,0,0.4,0.1c0.1,0.1,0.2,0.2,0.2,0.4c0,0.2-0.1,0.3-0.2,0.5c-0.1,0.2-0.3,0.4-0.5,0.6c-0.2,0.2-0.5,0.3-0.9,0.5
					c-0.4,0.1-0.8,0.2-1.3,0.2c-1.1,0-1.9-0.3-2.5-0.9c-0.6-0.6-0.9-1.5-0.9-2.5c0-0.5,0.1-1,0.2-1.4c0.1-0.4,0.4-0.8,0.7-1.1
					c0.3-0.3,0.6-0.5,1.1-0.7c0.4-0.2,0.9-0.2,1.4-0.2c0.7,0,1.2,0.1,1.7,0.4c0.5,0.3,0.8,0.6,1.1,1.1c0.2,0.4,0.4,0.9,0.4,1.4
					c0,0.4-0.1,0.7-0.4,0.8C185.4,477.4,185,477.5,184.6,477.5z M181.3,476.5h3.1c0-0.6-0.2-1-0.5-1.3c-0.3-0.3-0.6-0.4-1.1-0.4
					c-0.4,0-0.8,0.1-1,0.4C181.5,475.5,181.3,476,181.3,476.5z"/>
				<path id="XMLID_601_" class="st3" d="M192.3,478.3c0,0.5-0.1,0.9-0.3,1.2c-0.2,0.3-0.6,0.6-1,0.8c-0.4,0.2-1,0.3-1.6,0.3
					c-0.6,0-1.1-0.1-1.6-0.3c-0.4-0.2-0.8-0.4-1-0.7c-0.2-0.3-0.3-0.6-0.3-0.8c0-0.2,0.1-0.3,0.2-0.5c0.1-0.1,0.3-0.2,0.5-0.2
					c0.2,0,0.3,0,0.4,0.1c0.1,0.1,0.2,0.2,0.3,0.4c0.2,0.3,0.4,0.5,0.6,0.7c0.2,0.1,0.6,0.2,1,0.2c0.3,0,0.6-0.1,0.8-0.2
					c0.2-0.2,0.3-0.3,0.3-0.5c0-0.3-0.1-0.5-0.3-0.7c-0.2-0.1-0.6-0.3-1.1-0.4c-0.6-0.1-1.1-0.3-1.4-0.5c-0.4-0.2-0.7-0.4-0.9-0.6
					c-0.2-0.3-0.3-0.6-0.3-1c0-0.3,0.1-0.7,0.3-1c0.2-0.3,0.5-0.5,0.9-0.7c0.4-0.2,0.9-0.3,1.4-0.3c0.4,0,0.8,0,1.2,0.1
					c0.4,0.1,0.6,0.2,0.9,0.4c0.2,0.2,0.4,0.3,0.5,0.5c0.1,0.2,0.2,0.4,0.2,0.5c0,0.2-0.1,0.4-0.2,0.5c-0.1,0.1-0.3,0.2-0.6,0.2
					c-0.2,0-0.3,0-0.4-0.1c-0.1-0.1-0.3-0.2-0.4-0.4c-0.1-0.2-0.3-0.3-0.5-0.4c-0.2-0.1-0.4-0.1-0.7-0.1c-0.3,0-0.6,0.1-0.8,0.2
					c-0.2,0.1-0.3,0.3-0.3,0.5c0,0.2,0.1,0.3,0.2,0.4c0.1,0.1,0.4,0.2,0.6,0.3c0.3,0.1,0.6,0.2,1,0.3c0.5,0.1,1,0.3,1.3,0.5
					c0.3,0.2,0.6,0.4,0.8,0.6C192.2,477.7,192.3,478,192.3,478.3z"/>
				<path id="XMLID_598_" class="st3" d="M194,472.9c-0.2,0-0.4-0.1-0.6-0.2c-0.2-0.1-0.3-0.3-0.3-0.6c0-0.2,0.1-0.4,0.3-0.6
					c0.2-0.2,0.4-0.2,0.6-0.2c0.2,0,0.4,0.1,0.6,0.2c0.2,0.1,0.3,0.3,0.3,0.6c0,0.3-0.1,0.5-0.2,0.6
					C194.5,472.8,194.3,472.9,194,472.9z M194.9,474.6v4.9c0,0.3-0.1,0.6-0.2,0.8c-0.2,0.2-0.4,0.3-0.6,0.3c-0.2,0-0.4-0.1-0.6-0.3
					c-0.2-0.2-0.2-0.4-0.2-0.8v-4.8c0-0.3,0.1-0.6,0.2-0.8c0.2-0.2,0.4-0.3,0.6-0.3c0.2,0,0.5,0.1,0.6,0.3
					C194.8,474.1,194.9,474.3,194.9,474.6z"/>
				<path id="XMLID_595_" class="st3" d="M202.3,474.9v4.9c0,0.6-0.1,1-0.2,1.5c-0.1,0.4-0.3,0.7-0.6,1c-0.3,0.3-0.6,0.5-1,0.6
					c-0.4,0.1-1,0.2-1.6,0.2c-0.6,0-1.1-0.1-1.6-0.2c-0.5-0.2-0.8-0.4-1.1-0.6c-0.2-0.3-0.4-0.5-0.4-0.8c0-0.2,0.1-0.4,0.2-0.5
					c0.1-0.1,0.3-0.2,0.5-0.2c0.2,0,0.5,0.1,0.7,0.3c0.1,0.1,0.2,0.2,0.3,0.3c0.1,0.1,0.2,0.2,0.3,0.3c0.1,0.1,0.3,0.1,0.4,0.2
					c0.2,0,0.4,0.1,0.6,0.1c0.4,0,0.8-0.1,1-0.2c0.2-0.1,0.4-0.3,0.5-0.5c0.1-0.2,0.2-0.5,0.2-0.7c0-0.2,0-0.7,0-1.2
					c-0.3,0.4-0.6,0.6-0.9,0.8c-0.3,0.2-0.7,0.3-1.2,0.3c-0.6,0-1.1-0.1-1.5-0.4c-0.4-0.3-0.8-0.7-1-1.2c-0.2-0.5-0.3-1.1-0.3-1.8
					c0-0.5,0.1-1,0.2-1.4c0.1-0.4,0.3-0.8,0.6-1c0.3-0.3,0.6-0.5,0.9-0.6c0.3-0.1,0.7-0.2,1.1-0.2c0.5,0,0.9,0.1,1.2,0.3
					c0.4,0.2,0.7,0.5,1,0.9v-0.2c0-0.3,0.1-0.5,0.2-0.7c0.1-0.2,0.3-0.2,0.6-0.2c0.3,0,0.5,0.1,0.7,0.3
					C202.3,474.2,202.3,474.5,202.3,474.9z M197.4,477c0,0.7,0.1,1.2,0.4,1.6c0.3,0.4,0.7,0.5,1.2,0.5c0.3,0,0.5-0.1,0.8-0.2
					c0.3-0.2,0.5-0.4,0.6-0.7c0.2-0.3,0.2-0.7,0.2-1.1c0-0.7-0.2-1.2-0.5-1.6c-0.3-0.4-0.7-0.6-1.2-0.6c-0.5,0-0.9,0.2-1.2,0.6
					C197.5,475.8,197.4,476.4,197.4,477z"/>
				<path id="XMLID_593_" class="st3" d="M205,474.6v0.2c0.3-0.4,0.6-0.7,1-0.9c0.4-0.2,0.8-0.3,1.2-0.3c0.4,0,0.8,0.1,1.2,0.3
					c0.4,0.2,0.6,0.5,0.8,0.8c0.1,0.2,0.2,0.4,0.2,0.7c0,0.2,0.1,0.5,0.1,0.9v3.2c0,0.3-0.1,0.6-0.2,0.8c-0.2,0.2-0.4,0.3-0.6,0.3
					c-0.3,0-0.5-0.1-0.6-0.3c-0.2-0.2-0.2-0.4-0.2-0.8v-2.8c0-0.6-0.1-1-0.2-1.3c-0.2-0.3-0.5-0.4-0.9-0.4c-0.3,0-0.6,0.1-0.8,0.3
					c-0.2,0.2-0.4,0.4-0.5,0.7c-0.1,0.3-0.1,0.7-0.1,1.4v2.1c0,0.3-0.1,0.6-0.2,0.8c-0.2,0.2-0.4,0.3-0.6,0.3
					c-0.2,0-0.4-0.1-0.6-0.3c-0.2-0.2-0.2-0.4-0.2-0.8v-4.9c0-0.3,0.1-0.6,0.2-0.7c0.1-0.2,0.3-0.2,0.6-0.2c0.1,0,0.3,0,0.4,0.1
					c0.1,0.1,0.2,0.2,0.3,0.3C205,474.2,205,474.4,205,474.6z"/>
				<path id="XMLID_590_" class="st3" d="M215.3,477.5H212c0,0.4,0.1,0.7,0.2,1c0.2,0.3,0.4,0.5,0.6,0.7c0.2,0.1,0.5,0.2,0.8,0.2
					c0.2,0,0.4,0,0.6-0.1c0.2,0,0.3-0.1,0.5-0.2c0.2-0.1,0.3-0.2,0.4-0.3c0.1-0.1,0.3-0.3,0.5-0.5c0.1-0.1,0.2-0.1,0.4-0.1
					c0.2,0,0.3,0,0.4,0.1c0.1,0.1,0.2,0.2,0.2,0.4c0,0.2-0.1,0.3-0.2,0.5s-0.3,0.4-0.5,0.6c-0.2,0.2-0.5,0.3-0.9,0.5
					c-0.4,0.1-0.8,0.2-1.3,0.2c-1.1,0-1.9-0.3-2.5-0.9c-0.6-0.6-0.9-1.5-0.9-2.5c0-0.5,0.1-1,0.2-1.4c0.1-0.4,0.4-0.8,0.7-1.1
					c0.3-0.3,0.6-0.5,1.1-0.7c0.4-0.2,0.9-0.2,1.4-0.2c0.7,0,1.2,0.1,1.7,0.4c0.5,0.3,0.8,0.6,1.1,1.1c0.2,0.4,0.4,0.9,0.4,1.4
					c0,0.4-0.1,0.7-0.4,0.8C216.1,477.4,215.8,477.5,215.3,477.5z M212,476.5h3.1c0-0.6-0.2-1-0.5-1.3c-0.3-0.3-0.6-0.4-1.1-0.4
					c-0.4,0-0.8,0.1-1,0.4C212.2,475.5,212.1,476,212,476.5z"/>
				<path id="XMLID_587_" class="st3" d="M222.2,479.6v-0.2c-0.2,0.3-0.5,0.5-0.7,0.6c-0.2,0.2-0.5,0.3-0.7,0.4
					c-0.3,0.1-0.5,0.1-0.8,0.1c-0.4,0-0.8-0.1-1.1-0.3c-0.3-0.2-0.6-0.4-0.9-0.7c-0.3-0.3-0.4-0.7-0.6-1.1c-0.1-0.4-0.2-0.9-0.2-1.4
					c0-1.1,0.3-1.9,0.8-2.5c0.5-0.6,1.2-0.9,2-0.9c0.5,0,0.9,0.1,1.2,0.3c0.3,0.2,0.7,0.4,1,0.8v-2.5c0-0.3,0.1-0.6,0.2-0.8
					c0.1-0.2,0.3-0.3,0.6-0.3c0.3,0,0.5,0.1,0.6,0.2c0.1,0.2,0.2,0.4,0.2,0.7v7.5c0,0.3-0.1,0.6-0.2,0.7c-0.1,0.2-0.3,0.2-0.6,0.2
					c-0.2,0-0.4-0.1-0.6-0.3C222.3,480.1,222.2,479.9,222.2,479.6z M218.9,477.1c0,0.5,0.1,0.9,0.2,1.2c0.1,0.3,0.3,0.6,0.6,0.7
					c0.2,0.2,0.5,0.2,0.8,0.2c0.3,0,0.6-0.1,0.8-0.2c0.2-0.2,0.4-0.4,0.6-0.7c0.1-0.3,0.2-0.7,0.2-1.2c0-0.5-0.1-0.8-0.2-1.2
					c-0.1-0.3-0.3-0.6-0.6-0.7c-0.3-0.2-0.5-0.3-0.8-0.3c-0.3,0-0.6,0.1-0.8,0.3c-0.2,0.2-0.4,0.4-0.6,0.8
					C219,476.3,218.9,476.6,218.9,477.1z"/>
				<path id="XMLID_584_" class="st3" d="M229.1,472.1v2.6c0.3-0.3,0.6-0.6,1-0.8c0.3-0.2,0.7-0.3,1.2-0.3c0.6,0,1.1,0.1,1.5,0.4
					c0.4,0.3,0.8,0.7,1,1.2c0.2,0.5,0.4,1.1,0.4,1.8c0,0.5-0.1,1-0.2,1.4c-0.1,0.4-0.3,0.8-0.6,1.1c-0.2,0.3-0.5,0.6-0.9,0.7
					c-0.4,0.2-0.7,0.3-1.2,0.3c-0.3,0-0.5,0-0.7-0.1c-0.2-0.1-0.4-0.1-0.6-0.2c-0.2-0.1-0.3-0.2-0.4-0.3c-0.1-0.1-0.3-0.3-0.5-0.5
					v0.2c0,0.3-0.1,0.6-0.2,0.7c-0.2,0.2-0.3,0.2-0.6,0.2c-0.2,0-0.4-0.1-0.6-0.2c-0.1-0.2-0.2-0.4-0.2-0.7v-7.4
					c0-0.3,0.1-0.6,0.2-0.8c0.1-0.2,0.3-0.3,0.6-0.3c0.3,0,0.5,0.1,0.6,0.3C229.1,471.5,229.1,471.8,229.1,472.1z M229.2,477.1
					c0,0.7,0.2,1.2,0.5,1.6c0.3,0.4,0.7,0.5,1.2,0.5c0.4,0,0.8-0.2,1.1-0.6c0.3-0.4,0.5-0.9,0.5-1.6c0-0.4-0.1-0.8-0.2-1.2
					c-0.1-0.3-0.3-0.6-0.5-0.8c-0.2-0.2-0.5-0.3-0.8-0.3c-0.3,0-0.6,0.1-0.9,0.3c-0.3,0.2-0.5,0.4-0.6,0.8
					C229.3,476.3,229.2,476.7,229.2,477.1z"/>
				<path id="XMLID_582_" class="st3" d="M236.4,480.8l0.2-0.4l-2.1-5.3c-0.1-0.3-0.2-0.5-0.2-0.7c0-0.1,0-0.3,0.1-0.4
					c0.1-0.1,0.2-0.2,0.3-0.3c0.1-0.1,0.3-0.1,0.4-0.1c0.2,0,0.4,0.1,0.6,0.2c0.1,0.2,0.2,0.4,0.3,0.7l1.4,4.2l1.4-3.9
					c0.1-0.3,0.2-0.6,0.3-0.7c0.1-0.2,0.2-0.3,0.3-0.4c0.1-0.1,0.2-0.1,0.4-0.1c0.1,0,0.3,0,0.4,0.1c0.1,0.1,0.2,0.2,0.3,0.3
					c0.1,0.1,0.1,0.2,0.1,0.4c0,0.1,0,0.2-0.1,0.3c0,0.1-0.1,0.3-0.1,0.4L238,481c-0.2,0.5-0.4,0.9-0.6,1.2
					c-0.2,0.3-0.4,0.5-0.7,0.7c-0.3,0.2-0.7,0.2-1.2,0.2c-0.5,0-0.9-0.1-1.1-0.2c-0.2-0.1-0.4-0.3-0.4-0.6c0-0.2,0.1-0.3,0.2-0.5
					c0.1-0.1,0.3-0.2,0.5-0.2c0.1,0,0.2,0,0.3,0c0.1,0,0.2,0,0.3,0c0.2,0,0.3,0,0.5-0.1c0.1-0.1,0.2-0.2,0.3-0.3
					C236.1,481.2,236.3,481,236.4,480.8z"/>
			</g>
			<g id="XMLID_547_">
				<path id="XMLID_580_" class="st3" d="M260.9,473.8h0.4v-0.5c0-0.5,0.1-1,0.2-1.3c0.1-0.3,0.4-0.5,0.7-0.7
					c0.3-0.1,0.8-0.2,1.3-0.2c1,0,1.5,0.2,1.5,0.7c0,0.2-0.1,0.3-0.2,0.4c-0.1,0.1-0.2,0.2-0.4,0.2c-0.1,0-0.2,0-0.3,0
					c-0.2,0-0.3,0-0.4,0c-0.3,0-0.5,0.1-0.6,0.3c-0.1,0.2-0.1,0.4-0.1,0.8v0.4h0.4c0.6,0,1,0.2,1,0.6c0,0.3-0.1,0.5-0.3,0.5
					c-0.2,0.1-0.4,0.1-0.7,0.1H263v4.5c0,0.3-0.1,0.6-0.2,0.8c-0.2,0.2-0.4,0.3-0.6,0.3c-0.2,0-0.4-0.1-0.6-0.3
					c-0.2-0.2-0.2-0.4-0.2-0.8V475h-0.5c-0.3,0-0.4-0.1-0.6-0.2c-0.1-0.1-0.2-0.3-0.2-0.4C260.1,474,260.3,473.8,260.9,473.8"/>
				<path id="XMLID_579_" class="st3" d="M266.5,478.1v1.4c0,0.3-0.1,0.6-0.2,0.8c-0.2,0.2-0.4,0.3-0.6,0.3c-0.3,0-0.5-0.1-0.6-0.3
					c-0.2-0.2-0.2-0.4-0.2-0.8v-4.7c0-0.8,0.3-1.1,0.8-1.1c0.3,0,0.5,0.1,0.6,0.3c0.1,0.2,0.2,0.4,0.2,0.8c0.2-0.3,0.4-0.6,0.6-0.8
					c0.2-0.2,0.5-0.3,0.9-0.3c0.4,0,0.7,0.1,1,0.3c0.3,0.2,0.5,0.4,0.5,0.7c0,0.2-0.1,0.4-0.2,0.5c-0.1,0.1-0.3,0.2-0.5,0.2
					c-0.1,0-0.2,0-0.5-0.1c-0.2-0.1-0.5-0.1-0.6-0.1c-0.2,0-0.5,0.1-0.6,0.2c-0.2,0.1-0.3,0.3-0.4,0.6c-0.1,0.3-0.1,0.6-0.2,0.9
					C266.5,477.2,266.5,477.6,266.5,478.1"/>
				<path id="XMLID_576_" class="st3" d="M274.3,477.5h-3.3c0,0.4,0.1,0.7,0.2,1c0.2,0.3,0.4,0.5,0.6,0.7c0.3,0.1,0.5,0.2,0.8,0.2
					c0.2,0,0.4,0,0.6-0.1c0.2,0,0.3-0.1,0.5-0.2c0.2-0.1,0.3-0.2,0.4-0.3c0.1-0.1,0.3-0.3,0.5-0.5c0.1-0.1,0.2-0.1,0.4-0.1
					c0.2,0,0.3,0,0.4,0.1c0.1,0.1,0.2,0.2,0.2,0.4c0,0.2-0.1,0.3-0.2,0.5c-0.1,0.2-0.3,0.4-0.5,0.6c-0.2,0.2-0.5,0.3-0.9,0.5
					c-0.4,0.1-0.8,0.2-1.3,0.2c-1.1,0-1.9-0.3-2.5-0.9c-0.6-0.6-0.9-1.5-0.9-2.5c0-0.5,0.1-1,0.2-1.4c0.1-0.4,0.4-0.8,0.7-1.1
					c0.3-0.3,0.6-0.5,1.1-0.7c0.4-0.2,0.9-0.2,1.4-0.2c0.7,0,1.2,0.1,1.7,0.4c0.5,0.3,0.8,0.6,1.1,1.1c0.2,0.4,0.4,0.9,0.4,1.4
					c0,0.4-0.1,0.7-0.4,0.8C275,477.4,274.7,477.5,274.3,477.5 M270.9,476.5h3.1c0-0.6-0.2-1-0.5-1.3c-0.3-0.3-0.6-0.4-1.1-0.4
					c-0.4,0-0.8,0.1-1,0.4C271.2,475.5,271,476,270.9,476.5"/>
				<path id="XMLID_562_" class="st3" d="M281.3,477.5H278c0,0.4,0.1,0.7,0.2,1c0.2,0.3,0.4,0.5,0.6,0.7c0.3,0.1,0.5,0.2,0.8,0.2
					c0.2,0,0.4,0,0.6-0.1c0.2,0,0.3-0.1,0.5-0.2c0.2-0.1,0.3-0.2,0.4-0.3c0.1-0.1,0.3-0.3,0.5-0.5c0.1-0.1,0.2-0.1,0.4-0.1
					c0.2,0,0.3,0,0.4,0.1c0.1,0.1,0.2,0.2,0.2,0.4c0,0.2-0.1,0.3-0.2,0.5c-0.1,0.2-0.3,0.4-0.5,0.6c-0.2,0.2-0.5,0.3-0.9,0.5
					c-0.4,0.1-0.8,0.2-1.3,0.2c-1.1,0-1.9-0.3-2.5-0.9c-0.6-0.6-0.9-1.5-0.9-2.5c0-0.5,0.1-1,0.2-1.4c0.1-0.4,0.4-0.8,0.7-1.1
					c0.3-0.3,0.6-0.5,1.1-0.7c0.4-0.2,0.9-0.2,1.4-0.2c0.7,0,1.2,0.1,1.7,0.4c0.5,0.3,0.8,0.6,1.1,1.1c0.2,0.4,0.4,0.9,0.4,1.4
					c0,0.4-0.1,0.7-0.4,0.8C282.1,477.4,281.7,477.5,281.3,477.5 M278,476.5h3.1c0-0.6-0.2-1-0.5-1.3c-0.3-0.3-0.6-0.4-1.1-0.4
					c-0.4,0-0.8,0.1-1,0.4C278.2,475.5,278,476,278,476.5"/>
				<path id="XMLID_558_" class="st3" d="M285,474.6v0.2c0.3-0.4,0.7-0.7,1-0.9c0.3-0.2,0.7-0.3,1.2-0.3c0.5,0,1,0.1,1.4,0.4
					c0.4,0.3,0.8,0.7,1,1.2c0.3,0.5,0.4,1.1,0.4,1.8c0,0.5-0.1,1-0.2,1.4c-0.1,0.4-0.4,0.8-0.6,1.1c-0.3,0.3-0.6,0.5-0.9,0.7
					c-0.4,0.2-0.7,0.2-1.1,0.2c-0.5,0-0.9-0.1-1.2-0.3c-0.3-0.2-0.6-0.5-0.9-0.9v2.5c0,0.7-0.3,1.1-0.8,1.1c-0.3,0-0.5-0.1-0.6-0.3
					c-0.1-0.2-0.2-0.5-0.2-0.8v-7.3c0-0.3,0.1-0.6,0.2-0.7c0.1-0.2,0.3-0.2,0.6-0.2c0.2,0,0.4,0.1,0.6,0.2
					C284.9,474.1,285,474.3,285,474.6 M288.3,477.1c0-0.4-0.1-0.8-0.2-1.2c-0.1-0.3-0.3-0.6-0.6-0.7c-0.2-0.2-0.5-0.3-0.8-0.3
					c-0.5,0-0.9,0.2-1.2,0.6c-0.3,0.4-0.5,0.9-0.5,1.6c0,0.7,0.2,1.2,0.5,1.6c0.3,0.4,0.7,0.6,1.2,0.6c0.3,0,0.5-0.1,0.8-0.2
					c0.2-0.2,0.4-0.4,0.6-0.7C288.3,477.9,288.3,477.5,288.3,477.1"/>
				<path id="XMLID_555_" class="st3" d="M291.8,472.9c-0.2,0-0.4-0.1-0.6-0.2c-0.2-0.1-0.3-0.3-0.3-0.6c0-0.2,0.1-0.4,0.3-0.6
					c0.2-0.2,0.4-0.2,0.6-0.2c0.2,0,0.4,0.1,0.6,0.2c0.2,0.1,0.3,0.4,0.3,0.6c0,0.3-0.1,0.5-0.2,0.6
					C292.2,472.8,292,472.9,291.8,472.9 M292.6,474.6v4.9c0,0.3-0.1,0.6-0.2,0.8c-0.2,0.2-0.4,0.3-0.6,0.3c-0.2,0-0.4-0.1-0.6-0.3
					c-0.2-0.2-0.2-0.4-0.2-0.8v-4.9c0-0.3,0.1-0.6,0.2-0.8c0.2-0.2,0.4-0.3,0.6-0.3c0.2,0,0.5,0.1,0.6,0.3
					C292.5,474.1,292.6,474.3,292.6,474.6"/>
				<path id="XMLID_554_" class="st3" d="M298.1,479.8l-1.5-2.5l-0.9,0.9v1.3c0,0.3-0.1,0.6-0.3,0.8c-0.2,0.2-0.4,0.3-0.6,0.3
					c-0.3,0-0.5-0.1-0.6-0.3c-0.1-0.2-0.2-0.4-0.2-0.8v-7.2c0-0.4,0.1-0.7,0.2-0.9c0.1-0.2,0.4-0.3,0.6-0.3c0.3,0,0.5,0.1,0.6,0.3
					c0.2,0.2,0.2,0.4,0.2,0.8v4.1l1.9-2c0.2-0.2,0.4-0.4,0.5-0.5c0.1-0.1,0.3-0.1,0.5-0.1c0.2,0,0.4,0.1,0.5,0.2
					c0.1,0.1,0.2,0.3,0.2,0.5c0,0.2-0.2,0.6-0.7,1l-0.9,0.8l1.7,2.7c0.1,0.2,0.2,0.4,0.3,0.5c0.1,0.1,0.1,0.2,0.1,0.3
					c0,0.3-0.1,0.5-0.2,0.6c-0.1,0.2-0.3,0.2-0.6,0.2c-0.2,0-0.4-0.1-0.5-0.2C298.4,480.3,298.2,480.1,298.1,479.8"/>
				<path id="XMLID_553_" class="st3" d="M301.7,480.5c-0.3,0-0.5-0.1-0.7-0.2c-0.2-0.2-0.3-0.4-0.3-0.7c0-0.3,0.1-0.5,0.3-0.7
					c0.2-0.2,0.4-0.3,0.7-0.3c0.3,0,0.5,0.1,0.7,0.3c0.2,0.2,0.3,0.4,0.3,0.7c0,0.3-0.1,0.5-0.3,0.7
					C302.2,480.5,302,480.5,301.7,480.5"/>
				<path id="XMLID_552_" class="st3" d="M310.2,478.4c0,0.2-0.1,0.4-0.2,0.7c-0.1,0.2-0.3,0.5-0.6,0.7c-0.3,0.2-0.6,0.4-1,0.5
					c-0.4,0.1-0.8,0.2-1.3,0.2c-1,0-1.9-0.3-2.5-0.9c-0.6-0.6-0.9-1.4-0.9-2.5c0-0.7,0.1-1.3,0.4-1.8c0.3-0.5,0.7-0.9,1.2-1.2
					c0.5-0.3,1.1-0.4,1.8-0.4c0.4,0,0.8,0.1,1.2,0.2c0.4,0.1,0.7,0.3,0.9,0.5c0.3,0.2,0.4,0.4,0.6,0.6c0.1,0.2,0.2,0.4,0.2,0.6
					c0,0.2-0.1,0.4-0.2,0.5c-0.2,0.1-0.3,0.2-0.5,0.2c-0.1,0-0.3,0-0.4-0.1c-0.1-0.1-0.2-0.2-0.3-0.4c-0.2-0.3-0.4-0.5-0.6-0.7
					c-0.2-0.2-0.5-0.2-0.9-0.2c-0.5,0-0.9,0.2-1.2,0.6c-0.3,0.4-0.5,0.9-0.5,1.6c0,0.3,0,0.6,0.1,0.9c0.1,0.3,0.2,0.5,0.3,0.7
					c0.2,0.2,0.3,0.3,0.5,0.4c0.2,0.1,0.4,0.1,0.7,0.1c0.3,0,0.6-0.1,0.9-0.2c0.2-0.2,0.5-0.4,0.6-0.7c0.1-0.2,0.2-0.3,0.3-0.4
					c0.1-0.1,0.3-0.2,0.4-0.2c0.2,0,0.4,0.1,0.5,0.2C310.1,478.1,310.2,478.3,310.2,478.4"/>
				<path id="XMLID_549_" class="st3" d="M317.5,477.1c0,0.5-0.1,1-0.2,1.4c-0.2,0.4-0.4,0.8-0.7,1.1c-0.3,0.3-0.7,0.5-1.1,0.7
					c-0.4,0.2-0.9,0.2-1.4,0.2c-0.5,0-1-0.1-1.4-0.3c-0.4-0.2-0.8-0.4-1.1-0.7c-0.3-0.3-0.5-0.7-0.7-1.1c-0.1-0.4-0.2-0.9-0.2-1.4
					c0-0.5,0.1-1,0.2-1.4c0.2-0.4,0.4-0.8,0.7-1.1c0.3-0.3,0.6-0.5,1.1-0.7c0.4-0.2,0.9-0.2,1.4-0.2c0.5,0,1,0.1,1.4,0.2
					c0.4,0.2,0.8,0.4,1.1,0.7c0.3,0.3,0.5,0.7,0.7,1.1C317.4,476.1,317.5,476.6,317.5,477.1 M315.8,477.1c0-0.7-0.2-1.2-0.5-1.6
					c-0.3-0.4-0.7-0.6-1.2-0.6c-0.3,0-0.6,0.1-0.9,0.3c-0.3,0.2-0.4,0.4-0.6,0.8c-0.1,0.3-0.2,0.7-0.2,1.2c0,0.4,0.1,0.8,0.2,1.2
					c0.1,0.3,0.3,0.6,0.6,0.8c0.3,0.2,0.5,0.3,0.9,0.3c0.5,0,0.9-0.2,1.2-0.6C315.6,478.3,315.8,477.8,315.8,477.1"/>
				<path id="XMLID_548_" class="st3" d="M323.9,477.2v2.3c0,0.4-0.1,0.6-0.2,0.8c-0.2,0.2-0.4,0.3-0.6,0.3c-0.3,0-0.5-0.1-0.6-0.3
					c-0.2-0.2-0.2-0.4-0.2-0.8v-2.7c0-0.4,0-0.8,0-1c0-0.2-0.1-0.4-0.2-0.6c-0.1-0.2-0.3-0.2-0.6-0.2c-0.6,0-0.9,0.2-1.1,0.6
					c-0.2,0.4-0.3,0.9-0.3,1.6v2.3c0,0.4-0.1,0.6-0.2,0.8c-0.2,0.2-0.4,0.3-0.6,0.3c-0.3,0-0.5-0.1-0.6-0.3
					c-0.2-0.2-0.2-0.4-0.2-0.8v-4.9c0-0.3,0.1-0.6,0.2-0.7c0.2-0.2,0.3-0.2,0.6-0.2c0.2,0,0.4,0.1,0.6,0.2c0.2,0.2,0.2,0.4,0.2,0.6
					v0.2c0.3-0.3,0.6-0.6,0.9-0.8c0.3-0.2,0.7-0.3,1.1-0.3c0.4,0,0.8,0.1,1.1,0.3c0.3,0.2,0.6,0.4,0.8,0.8c0.3-0.3,0.6-0.6,0.9-0.8
					c0.3-0.2,0.7-0.3,1.1-0.3c0.5,0,0.9,0.1,1.2,0.3c0.3,0.2,0.6,0.4,0.8,0.8c0.1,0.3,0.2,0.8,0.2,1.4v3.3c0,0.4-0.1,0.6-0.2,0.8
					c-0.2,0.2-0.4,0.3-0.6,0.3c-0.3,0-0.5-0.1-0.6-0.3c-0.2-0.2-0.2-0.4-0.2-0.8v-2.9c0-0.4,0-0.7,0-0.9c0-0.2-0.1-0.4-0.3-0.6
					c-0.1-0.1-0.3-0.2-0.6-0.2c-0.2,0-0.4,0.1-0.6,0.2c-0.2,0.1-0.4,0.3-0.5,0.5C324,476,323.9,476.5,323.9,477.2"/>
			</g>
			<g id="XMLID_527_">
				<path id="XMLID_546_" class="st3" d="M245.1,476.7C245.1,476.7,245.1,476.7,245.1,476.7C245.1,476.7,245.1,476.7,245.1,476.7z"
					/>
				<path id="XMLID_545_" class="st3" d="M245.1,477.2C245.1,477.2,245.1,477.2,245.1,477.2c0-0.2-0.1-0.3-0.1-0.5
					C245.1,476.9,245.1,477.1,245.1,477.2z"/>
				<path id="XMLID_544_" class="st3" d="M245.7,478.8C245.7,478.8,245.7,478.8,245.7,478.8C245.7,478.8,245.7,478.8,245.7,478.8z"
					/>
				<path id="XMLID_543_" class="st3" d="M245.6,478.7C245.6,478.7,245.6,478.6,245.6,478.7C245.6,478.6,245.6,478.7,245.6,478.7z"
					/>
				<path id="XMLID_542_" class="st3" d="M245.3,477.8c0.1,0.3,0.2,0.5,0.3,0.8C245.5,478.3,245.4,478.1,245.3,477.8L245.3,477.8z"
					/>
				<path id="XMLID_541_" class="st3" d="M251.6,470.2c0.3,0,0.6,0,0.8,0.1l0.1-0.5c0,0-0.8-0.2-1.8-0.2l-0.1-0.3
					c0.3-0.1,0.5-0.3,0.5-0.7c0-0.4-0.3-0.7-0.7-0.7c-0.4,0-0.7,0.3-0.7,0.7c0,0.3,0.2,0.6,0.5,0.7l0.1,0.3
					c-1.1,0.1-1.9,0.6-1.9,0.6l0.2,0.5c0.6-0.2,1.2-0.3,1.7-0.4C250.9,470.2,251.3,470.2,251.6,470.2z"/>
				<path id="XMLID_540_" class="st3" d="M245.7,472.7L245.7,472.7C245.7,472.7,245.7,472.6,245.7,472.7l-0.1-0.2l-0.3-0.2
					c0,0-0.5,0.5-0.9,1.3c0,0,0-0.1-0.1-0.1c-0.1-0.1-0.3-0.2-0.5-0.2c0,0,0,0,0,0c-0.1,0-0.2,0-0.3-0.1c0.1-0.1,0.1-0.2,0.1-0.3
					c0-0.2-0.2-0.4-0.4-0.4c-0.2,0-0.4,0.2-0.4,0.4c0,0.2,0.2,0.4,0.4,0.4c0,0,0.1,0,0.1,0c0.1,0.1,0.3,0.2,0.5,0.2
					c0.1,0,0.2,0,0.3,0.1c0.1,0.1,0.1,0.2,0.1,0.3c0,0,0,0,0,0c-0.3,0.8-0.2,1.7-0.2,1.7l0.7,0c0-0.4,0.1-1,0.2-1.5
					C245.2,473.3,245.7,472.7,245.7,472.7z"/>
				<path id="XMLID_533_" class="st3" d="M257.6,470.8c-0.2,0-0.4,0.2-0.4,0.4c0,0,0,0.1,0,0.1c-0.1,0.1-0.2,0.3-0.2,0.5
					c0,0.1,0,0.2-0.1,0.3c-0.1,0-0.1,0.1-0.2,0.1c-0.5-0.7-1.1-1.2-1.1-1.2l-0.5,0.5c0.4,0.3,0.8,0.8,1.1,1.3
					c0.3,0.4,0.5,0.8,0.7,1.3l0.7-0.3c0,0-0.3-0.8-0.7-1.4c0.1,0,0.2-0.1,0.2-0.1c0.1-0.1,0.2-0.3,0.2-0.5c0-0.1,0-0.2,0.1-0.3
					c0.1,0.1,0.2,0.1,0.3,0.1c0.2,0,0.4-0.2,0.4-0.4C258.1,471,257.9,470.8,257.6,470.8z"/>
				<path id="XMLID_532_" class="st3" d="M255.9,476.8c-0.9,0.4-2.4,1-4.4,1.3c-0.8,0.1-1.5,0.1-2.2,0.1c-0.9,0-1.7-0.1-2.3-0.1
					c-0.7-0.1-1.3-0.2-1.6-0.3c0.1,0.3,0.2,0.5,0.3,0.8c0,0,0,0,0,0c0,0,0,0.1,0,0.1c0,0,0,0.1,0,0.1c0,0,0,0,0,0
					c0.2,0.4,0.4,0.7,0.7,1c0.9,1,1.9,1.2,1.9,1.2l0,0l0,0c0,0,0.9,0.3,2.2,0.3c1.3,0,2.5-0.3,3.7-0.8c0.9-0.5,1.7-1.1,2.1-1.7
					c0.3-0.5,0.5-1,0.7-1.5c0.1-0.3,0.1-0.7,0.1-1.2C256.9,476.3,256.4,476.5,255.9,476.8z"/>
				<path id="XMLID_528_" class="st3" d="M246,472.9c0,0-0.4,0.6-0.7,1.5c-0.2,0.7-0.2,1.6-0.2,1.6v0c0,0.2,0,0.4,0,0.7c0,0,0,0,0,0
					c0,0,0,0.1,0,0.1c0,0.2,0,0.3,0.1,0.5c0.5,0.1,3.2,0.8,6.2,0.3c1.9-0.3,3.4-0.8,4.2-1.3c0.7-0.4,1.2-0.7,1.4-0.8
					c-0.2-0.7-0.7-1.7-1.1-2.4c-1.3-1.9-2.7-2.4-3.4-2.5c-0.3,0-0.5-0.1-0.8-0.1c-0.3,0-0.7,0-1.1,0.1c-0.5,0.1-1,0.2-1.7,0.4
					c-0.9,0.3-1.7,0.8-2.3,1.3l0,0C246.4,472.5,246.2,472.6,246,472.9z M254,472.5c0.6,0,1.1,0.5,1.1,1.1c0,0.6-0.5,1.1-1.1,1.1
					c-0.6,0-1.1-0.5-1.1-1.1C252.9,473,253.4,472.5,254,472.5z M248.6,472.4c1,0,1.8,0.8,1.8,1.8c0,1-0.8,1.8-1.8,1.8
					s-1.8-0.8-1.8-1.8C246.8,473.3,247.6,472.4,248.6,472.4z"/>
			</g>
		</g>
	</g>
</g>
</svg>
