<?xml version="1.0" encoding="utf-8"?>
<!-- Generator: Adobe Illustrator 22.1.0, SVG Export Plug-In . SVG Version: 6.00 Build 0)  -->
<svg version="1.0" xmlns="http://www.w3.org/2000/svg" xmlns:xlink="http://www.w3.org/1999/xlink" x="0px" y="0px"
	 viewBox="0 0 500 500" style="enable-background:new 0 0 500 500;" xml:space="preserve">
<style type="text/css">
	.st0{fill:#E3E3E3;}
	.st1{fill:#B6BAD1;}
	.st2{fill:#FFFFFF;}
	.st3{fill:#ABABAB;}
	.st4{fill:#55639E;}
	.st5{fill:#FF4747;}
	.st6{fill:#FFF75C;}
	.st7{fill:#DEE3FF;}
	.st8{fill:#FFD45C;}
	.st9{font-family:'Bebas';}
	.st10{font-size:18.9839px;}
	.st11{fill:#C1B3C7;}
	.st12{opacity:0.5;}
	.st13{display:none;fill:#55639E;}
	.st14{font-family:'ArchivoNarrow-Bold';}
	.st15{font-size:99.8208px;}
	.st16{display:none;}
	.st17{display:inline;}
	.st18{fill:#427290;}
</style>
<g id="BACKGROUND_1">
	<g>
		<path class="st0" d="M357.4,158.1c0,1.6-1.3,3-3,3h-43c-1.6,0-3-1.3-3-3V72.7c0-1.6,1.3-3,3-3h43c1.6,0,3,1.3,3,3V158.1z"/>
		<path class="st1" d="M353.8,143.7c0,1.4-1.1,2.5-2.5,2.5h-36.6c-1.4,0-2.5-1.1-2.5-2.5V75.5c0-1.4,1.1-2.5,2.5-2.5h36.6
			c1.4,0,2.5,1.1,2.5,2.5V143.7z"/>
		<rect x="324.8" y="87.5" class="st2" width="16.2" height="16.3"/>
		<rect x="316.2" y="108.9" class="st2" width="33.5" height="6.1"/>
		<rect x="316.2" y="120.2" class="st2" width="33.5" height="6.1"/>
		<path class="st3" d="M336.4,153.6c0,2-1.6,3.6-3.6,3.6c-2,0-3.6-1.6-3.6-3.6c0-2,1.6-3.6,3.6-3.6
			C334.8,150.1,336.4,151.7,336.4,153.6z"/>
	</g>
	<g>
		<rect x="172.3" y="378" class="st1" width="111.7" height="8.5"/>
		<path class="st0" d="M296.1,378.4c0,1.7-1.3,3-3,3H163.3c-1.7,0-3-1.3-3-3v-86.6c0-1.7,1.3-3,3-3h129.8c1.7,0,3,1.3,3,3V378.4z"/>
		<path class="st0" d="M296.1,389.5c0,1.7-1.3,3-3,3H163.3c-1.7,0-3-1.3-3-3v-1.1c0-1.7,1.3-3,3-3h129.8c1.7,0,3,1.3,3,3V389.5z"/>
		<path class="st1" d="M292.4,363.9c0,1.4-1.1,2.6-2.6,2.6H166.5c-1.4,0-2.6-1.1-2.6-2.6v-69.3c0-1.4,1.1-2.6,2.6-2.6h123.4
			c1.4,0,2.6,1.1,2.6,2.6V363.9z"/>
		<rect x="183.9" y="312" class="st2" width="87.5" height="54.4"/>
		<rect x="189.4" y="317.9" class="st4" width="74.7" height="11.3"/>
		<rect x="189.4" y="342" class="st5" width="21.2" height="20.4"/>
		<rect x="189.4" y="332.7" class="st0" width="74.7" height="3.2"/>
		<rect x="215.1" y="342" class="st6" width="49" height="3.8"/>
		<rect x="215.1" y="350.3" class="st0" width="49" height="3.8"/>
		<rect x="215.1" y="358.6" class="st0" width="49" height="3.8"/>
	</g>
	<g>
		<rect x="318.4" y="204.7" class="st0" width="75.4" height="46.9"/>
		<rect x="318.4" y="200.9" class="st1" width="75.4" height="3.7"/>
		<polygon class="st6" points="333.3,218.2 341.4,218.2 337.4,215.7 333.3,213.2 329.3,215.7 325.2,218.2 		"/>
		<polygon class="st6" points="351.5,218.2 363.7,218.2 357.6,213.9 351.5,209.7 345.4,213.9 339.3,218.2 		"/>
		<polygon class="st6" points="371.3,218.2 388.3,218.2 379.8,216.3 371.3,214.4 362.8,216.3 354.3,218.2 		"/>
		<rect x="323.7" y="234.7" class="st1" width="1.9" height="10.1"/>
		<rect x="327.2" y="239.7" class="st1" width="1.9" height="5.1"/>
		<rect x="330.7" y="232" class="st1" width="1.9" height="12.8"/>
		<rect x="374.7" y="234.4" class="st1" width="2.9" height="10.1"/>
		<rect x="379.9" y="239.4" class="st1" width="2.9" height="5.1"/>
		<rect x="385.2" y="231.7" class="st1" width="2.9" height="12.8"/>
		<rect x="334.2" y="229.9" class="st1" width="1.9" height="14.8"/>
		<rect x="345.6" y="229.9" class="st4" width="23.6" height="14.8"/>
		<polygon class="st2" points="345.6,244.8 350.8,239.1 355.4,242.2 362.5,233.7 369.1,244.8 		"/>
	</g>
	<path class="st7" d="M339.2,103.5c0,0.1,0,0.2,0,0.3h-12.6c0-0.1,0-0.2,0-0.3c0-3.8,2.8-6.8,6.3-6.8
		C336.4,96.8,339.2,99.8,339.2,103.5z"/>
	<path class="st7" d="M336.5,94.7c0,2-1.6,3.5-3.5,3.5s-3.5-1.6-3.5-3.5c0-2,1.6-3.5,3.5-3.5S336.5,92.7,336.5,94.7z"/>
	<g>
		<g>
			<path class="st0" d="M165.5,213.4v101.2c0,2.2-1.8,4-4,4h-71c-2.2,0-4-1.8-4-4V213.4c0-2.2,1.8-4,4-4h71
				C163.7,209.4,165.5,211.2,165.5,213.4z"/>
			<path class="st0" d="M140.8,226.2h-29.5c-6,0-10.9-4.9-10.9-10.9c0-6,4.9-10.9,10.9-10.9h29.5c6,0,10.9,4.9,10.9,10.9
				C151.6,221.3,146.7,226.2,140.8,226.2z M111.3,210.5c-2.7,0-4.9,2.2-4.9,4.9c0,2.7,2.2,4.9,4.9,4.9h29.5c2.7,0,4.9-2.2,4.9-4.9
				c0-2.7-2.2-4.9-4.9-4.9H111.3z"/>
			<rect x="94.3" y="216.5" class="st2" width="63.5" height="93.3"/>
			<rect x="118.1" y="232.5" class="st1" width="30.8" height="1.8"/>
			<rect x="118.1" y="244.8" class="st1" width="30.8" height="1.8"/>
			<rect x="118.1" y="257" class="st1" width="30.8" height="1.8"/>
			<rect x="118.1" y="269.3" class="st1" width="30.8" height="1.8"/>
			<rect x="118.1" y="281.5" class="st1" width="30.8" height="1.8"/>
			<rect x="118.1" y="293.8" class="st1" width="30.8" height="1.8"/>
			<path class="st1" d="M142.3,216.5c0,2-1.6,3.6-3.6,3.6h-25.3c-2,0-3.6-1.6-3.6-3.6l0,0c0-2,1.6-3.6,3.6-3.6h25.3
				C140.7,212.9,142.3,214.5,142.3,216.5L142.3,216.5z"/>
			<rect x="100.4" y="232.5" class="st1" width="14.1" height="14.1"/>
			<rect x="100.4" y="257" class="st1" width="14.1" height="14.1"/>
			<rect x="100.4" y="281.5" class="st1" width="14.1" height="14.1"/>
		</g>
		<g>
			
				<rect x="103.8" y="237.9" transform="matrix(0.6185 -0.7858 0.7858 0.6185 -149.6121 174.6246)" class="st6" width="2.4" height="6.9"/>
			
				<rect x="104" y="238.4" transform="matrix(0.6006 -0.7995 0.7995 0.6006 -147.886 183.0297)" class="st6" width="10.5" height="2.4"/>
		</g>
		<g>
			
				<rect x="103.8" y="262.4" transform="matrix(0.6185 -0.7858 0.7858 0.6185 -168.8644 183.9721)" class="st6" width="2.4" height="6.9"/>
			
				<rect x="104" y="262.9" transform="matrix(0.6006 -0.7995 0.7995 0.6006 -167.4748 192.8149)" class="st6" width="10.5" height="2.4"/>
		</g>
		
			<rect x="102.2" y="287.4" transform="matrix(0.6768 -0.7362 0.7362 0.6768 -177.6923 172.3763)" class="st5" width="10.5" height="2.4"/>
		
			<rect x="106.3" y="283.3" transform="matrix(0.6768 -0.7362 0.7362 0.6768 -177.6947 172.3806)" class="st5" width="2.4" height="10.5"/>
	</g>
	<g>
		<g>
			<rect x="257.5" y="171" class="st6" width="34.3" height="9.6"/>
			<rect x="260.1" y="171" class="st8" width="1.8" height="9.6"/>
			<rect x="264.6" y="171" class="st8" width="1.8" height="9.6"/>
			<rect x="269.1" y="171" class="st8" width="1.8" height="9.6"/>
			<rect x="273.6" y="171" class="st8" width="1.8" height="9.6"/>
			<rect x="278" y="171" class="st8" width="1.8" height="9.6"/>
			<rect x="282.5" y="171" class="st8" width="1.8" height="9.6"/>
			<rect x="287" y="171" class="st8" width="1.8" height="9.6"/>
		</g>
		<g>
			<rect x="266.3" y="161.3" class="st6" width="34.3" height="9.6"/>
			<rect x="268.9" y="161.3" class="st8" width="1.8" height="9.6"/>
			<rect x="273.4" y="161.3" class="st8" width="1.8" height="9.6"/>
			<rect x="277.9" y="161.3" class="st8" width="1.8" height="9.6"/>
			<rect x="282.4" y="161.3" class="st8" width="1.8" height="9.6"/>
			<rect x="286.8" y="161.3" class="st8" width="1.8" height="9.6"/>
			<rect x="291.3" y="161.3" class="st8" width="1.8" height="9.6"/>
			<rect x="295.8" y="161.3" class="st8" width="1.8" height="9.6"/>
		</g>
	</g>
	<g>
		<path class="st1" d="M394.1,290.1c0,9.7-7.8,17.5-17.5,17.5h-28.3c-9.7,0-17.5-7.8-17.5-17.5l0,0c0-9.7,7.8-17.5,17.5-17.5h28.3
			C386.3,272.6,394.1,280.5,394.1,290.1L394.1,290.1z"/>
		<path class="st7" d="M356.5,290.1c0,1.3-1.1,2.4-2.4,2.4c-1.3,0-2.4-1.1-2.4-2.4c0-1.3,1.1-2.4,2.4-2.4
			C355.4,287.7,356.5,288.8,356.5,290.1z"/>
		<path class="st7" d="M364.9,290.1c0,1.3-1.1,2.4-2.4,2.4c-1.3,0-2.4-1.1-2.4-2.4c0-1.3,1.1-2.4,2.4-2.4
			C363.8,287.7,364.9,288.8,364.9,290.1z"/>
		<path class="st7" d="M373.3,290.1c0,1.3-1.1,2.4-2.4,2.4c-1.3,0-2.4-1.1-2.4-2.4c0-1.3,1.1-2.4,2.4-2.4
			C372.2,287.7,373.3,288.8,373.3,290.1z"/>
		<polygon class="st1" points="362.5,306.2 365.8,306.2 364.1,309.1 362.5,312 360.8,309.1 359.1,306.2 		"/>
	</g>
	<g>
		<path class="st6" d="M179.7,354.2c0,10.7-8.7,19.4-19.4,19.4c-10.7,0-19.4-8.7-19.4-19.4c0-10.7,8.7-19.4,19.4-19.4
			C171,334.8,179.7,343.5,179.7,354.2z"/>
		<path class="st8" d="M160.3,368.7c-7.9,0-14.4-6.5-14.4-14.4c0-7.9,6.5-14.4,14.4-14.4c7.9,0,14.4,6.5,14.4,14.4
			C174.7,362.2,168.2,368.7,160.3,368.7z"/>
		<text transform="matrix(1 0 0 1 154.9438 361.8931)" class="st6 st9 st10">$</text>
	</g>
	<g>
		<g>
			
				<rect x="326.2" y="160.5" transform="matrix(0.7138 -0.7003 0.7003 0.7138 -22.2124 278.3701)" class="st11" width="6.6" height="11.8"/>
		</g>
		<path class="st11" d="M327.7,159.8l2.3,2.3c-0.6,0.9-1.3,1.7-2.1,2.5c-0.8,0.8-1.7,1.5-2.6,2.1l-2.3-2.3L327.7,159.8z"/>
		<g>
			<path class="st4" d="M326.9,119.3c12,12.2,11.8,31.9-0.4,43.8c-12.2,12-31.9,11.8-43.8-0.4c-12-12.2-11.8-31.9,0.4-43.8
				C295.3,106.9,314.9,107.1,326.9,119.3z"/>
		</g>
		<g>
			<path class="st1" d="M323.1,123c3.7,3.8,6,8.4,6.9,13.3c1.5,8.1-0.9,16.9-7.3,23.1c-10.1,9.9-26.4,9.8-36.4-0.3
				c-6.2-6.3-8.5-15.1-6.8-23.2c1-4.8,3.4-9.4,7.2-13.1C296.9,112.8,313.2,112.9,323.1,123z"/>
		</g>
		<g>
			<path class="st7" d="M323.1,123c3.7,3.8,6,8.4,6.9,13.3c-1,4.8-3.4,9.4-7.2,13.1c-10.1,9.9-26.4,9.8-36.4-0.3
				c-3.7-3.8-6-8.4-6.9-13.3c1-4.8,3.4-9.4,7.2-13.1C296.9,112.8,313.2,112.9,323.1,123z"/>
		</g>
		<path class="st1" d="M286.7,122.7c-3.8,3.7-6.2,8.3-7.2,13.1c-1.7,8.1,0.6,16.9,6.8,23.2c9.9,10.1,26.3,10.3,36.4,0.3
			c6.3-6.2,8.8-15,7.3-23.1c-0.9-4.9-3.2-9.5-6.9-13.3C313.2,112.9,296.9,112.8,286.7,122.7z M328,136.7c1.4,7.8-1.1,15.7-6.7,21.2
			c-9.3,9.1-24.3,9-33.4-0.3c-5.5-5.6-7.8-13.6-6.2-21.3c0.9-4.6,3.2-8.8,6.6-12.1c9.3-9.1,24.3-9,33.4,0.3
			C324.9,127.9,327.1,132.1,328,136.7z"/>
		<g>
			<path class="st4" d="M358.1,188.7c1.8,1.9,1.8,4.9-0.1,6.7l0,0c-1.9,1.8-4.9,1.8-6.7-0.1l-20.7-21.1c-1.8-1.9-1.8-4.9,0.1-6.7
				l0,0c1.9-1.8,4.9-1.8,6.7,0.1L358.1,188.7z"/>
		</g>
		<g class="st12">
			<path class="st2" d="M319,129.8c-0.5,0.5-1.4,0.5-1.9,0c-6.7-6.9-17.8-7-24.7-0.2c-0.5,0.5-1.4,0.5-1.9,0c-0.5-0.5-0.5-1.4,0-1.9
				c7.9-7.8,20.7-7.6,28.5,0.3C319.5,128.5,319.5,129.3,319,129.8z"/>
		</g>
		<path class="st2" d="M304.7,122.3c0.5,0.5,0.5,1.4,0,2c-0.5,0.5-1.4,0.5-2,0c-0.5-0.5-0.5-1.4,0-2
			C303.3,121.8,304.2,121.8,304.7,122.3z"/>
		<path class="st2" d="M308.1,123.5c0.3,0.3,0.3,0.8,0,1.1c-0.3,0.3-0.8,0.3-1.1,0c-0.3-0.3-0.3-0.8,0-1.1S307.8,123.2,308.1,123.5z
			"/>
	</g>
	<g>
		<path class="st1" d="M172.2,179.2c-0.9,0-1.8,0.1-2.7,0.4c0.5-1.9,0.8-4,0.8-6.1c0-13.2-10.7-23.8-23.8-23.8
			c-12.9,0-23.4,10.3-23.8,23.1c-0.8-0.2-1.6-0.2-2.4-0.2c-6.8,0-12.4,5.5-12.4,12.4c0,6.8,5.5,12.4,12.4,12.4l0,0h51.8
			c5,0,9.1-4.1,9.1-9.1C181.2,183.3,177.2,179.2,172.2,179.2z"/>
		<polygon class="st6" points="141.4,186.7 138.7,182.1 136,177.4 133.4,182.1 130.7,186.7 133.7,186.7 133.7,197.1 138.4,197.1 
			138.4,186.7 		"/>
		<polygon class="st6" points="157.6,176.3 154.9,171.7 152.2,167 149.5,171.7 146.9,176.3 149.9,176.3 149.9,197.1 154.5,197.1 
			154.5,176.3 		"/>
	</g>
	<g>
		<g>
			<path class="st4" d="M282.3,317.2c1.4-1.4,3.6-1.4,4.9,0l0,0c1.4,1.4,1.4,3.6,0,4.9l-6.1,6.1c-1.4,1.4-3.6,1.4-5,0l0,0
				c-1.4-1.4-1.4-3.6,0-4.9L282.3,317.2z"/>
			<path class="st4" d="M324.6,317.2c-1.4-1.4-3.6-1.4-4.9,0l0,0c-1.4,1.4-1.4,3.6,0,4.9l6.1,6.1c1.4,1.4,3.6,1.4,5,0l0,0
				c1.4-1.4,1.4-3.6,0-4.9L324.6,317.2z"/>
		</g>
		<circle class="st5" cx="303.1" cy="291" r="39.3"/>
		<circle class="st2" cx="303.1" cy="291" r="34.3"/>
		<circle class="st5" cx="303.1" cy="291" r="29.3"/>
		<circle class="st2" cx="303.1" cy="291" r="24.3"/>
		<circle class="st5" cx="303.1" cy="291" r="19.3"/>
		<circle class="st2" cx="303.1" cy="291" r="14.3"/>
		<circle class="st5" cx="303.1" cy="291" r="9.3"/>
		<g>
			<line class="st5" x1="342" y1="252.1" x2="303.1" y2="291"/>
			
				<rect x="295.1" y="270" transform="matrix(0.7071 -0.7071 0.7071 0.7071 -97.5148 307.6269)" class="st4" width="55" height="3"/>
		</g>
		<polygon class="st4" points="333.2,260.9 329.3,253.2 340.4,242.2 344.3,250 		"/>
		<polygon class="st4" points="340.6,264.2 333.1,260.6 344.2,249.7 351.7,253.3 		"/>
		<circle class="st4" cx="303.4" cy="290.7" r="1.6"/>
	</g>
	<g>
		<g>
			
				<rect x="108.7" y="337.7" transform="matrix(0.7071 -0.7071 0.7071 0.7071 -207.5945 180.9074)" class="st11" width="11.8" height="6.6"/>
		</g>
		<path class="st11" d="M121.1,339.2l-2.3,2.3c-0.9-0.6-1.7-1.3-2.5-2.1c-0.8-0.8-1.5-1.6-2.1-2.5l2.3-2.3L121.1,339.2z"/>
		<g>
			<path class="st4" d="M92.6,369.9c-1.9,1.9-4.9,1.9-6.7,0l0,0c-1.9-1.9-1.9-4.9,0-6.7l20.9-20.9c1.9-1.9,4.9-1.9,6.7,0l0,0
				c1.9,1.9,1.9,4.9,0,6.7L92.6,369.9z"/>
		</g>
		<path class="st4" d="M143.5,321.4l-13.2,13.2l-9.2-9.2l13.2-13.2c-5.7-2.2-12.3-1-16.9,3.6c-6.2,6.2-6.2,16.3,0,22.5
			c6.2,6.2,16.3,6.2,22.5,0C144.5,333.7,145.7,327,143.5,321.4z"/>
	</g>
	<g>
		<path class="st4" d="M201.4,294.7c0,5-1.4,9.7-3.7,13.7c-0.6,1-1.3,2-2,3c-5,6.3-12.7,10.4-21.3,10.4c-8.7,0-16.4-4.1-21.3-10.4
			c-0.7-0.9-1.4-1.9-2-3c-2.4-4-3.7-8.7-3.7-13.7c0-5.3,1.6-10.3,4.2-14.5c0.6-1,1.3-2,2.1-2.9c5-5.9,12.4-9.7,20.7-9.7
			c8.3,0,15.8,3.8,20.7,9.7c0.8,0.9,1.5,1.9,2.1,2.9C199.8,284.4,201.4,289.4,201.4,294.7z"/>
		<circle class="st7" cx="174.3" cy="294.7" r="23.6"/>
		<path class="st4" d="M174.4,321.6c-7.9,0-14.1-11.9-14.1-27c0-15.1,6.2-27,14.1-27c7.9,0,14.1,11.9,14.1,27
			C188.5,309.7,182.3,321.6,174.4,321.6z M174.4,271.1c-5,0-10.6,9.6-10.6,23.5c0,13.8,5.6,23.5,10.6,23.5c5,0,10.6-9.6,10.6-23.5
			C185,280.7,179.4,271.1,174.4,271.1z"/>
		<path class="st4" d="M195.1,277.3c-3.8,3.2-11.3,5.8-20.7,5.8c-9.4,0-16.9-2.6-20.7-5.8c-0.8,0.9-1.5,1.9-2.1,2.9
			c4.7,3.9,13.1,6.5,22.8,6.5c9.7,0,18.1-2.6,22.8-6.5C196.5,279.2,195.8,278.2,195.1,277.3z"/>
		<path class="st4" d="M174.3,301.5c-10.1,0-18.7,2.7-23.4,6.9c0.6,1,1.3,2,2,3c3.6-3.5,11.4-6.4,21.3-6.4c10,0,17.8,2.9,21.3,6.4
			c0.7-0.9,1.4-1.9,2-3C193.1,304.2,184.4,301.5,174.3,301.5z"/>
	</g>
	<g>
		<g>
			<path class="st1" d="M246.4,76.2c1.2,1.2,1.9,2.7,2.2,4.3c0.5,2.6-0.3,5.4-2.3,7.4c-3.3,3.2-8.5,3.1-11.7-0.1
				c-2-2-2.7-4.9-2.2-7.5c0.3-1.6,1.1-3,2.3-4.2C237.9,72.9,243.2,72.9,246.4,76.2z"/>
		</g>
		<g>
			<path class="st7" d="M246.4,76.2c1.2,1.2,1.9,2.7,2.2,4.3c-0.3,1.6-1.1,3-2.3,4.2c-3.3,3.2-8.5,3.1-11.7-0.1
				c-1.2-1.2-1.9-2.7-2.2-4.3c0.3-1.6,1.1-3,2.3-4.2C237.9,72.9,243.2,72.9,246.4,76.2z"/>
		</g>
		<g class="st12">
			<path class="st2" d="M245,78.3c-0.2,0.2-0.4,0.2-0.6,0c-2.2-2.2-5.7-2.2-7.9-0.1c-0.2,0.2-0.4,0.2-0.6,0c-0.2-0.2-0.2-0.4,0-0.6
				c2.5-2.5,6.7-2.5,9.2,0.1C245.2,77.9,245.2,78.2,245,78.3z"/>
		</g>
		<path class="st2" d="M240.4,75.9c0.2,0.2,0.2,0.5,0,0.6c-0.2,0.2-0.5,0.2-0.6,0c-0.2-0.2-0.2-0.5,0-0.6
			C240,75.7,240.3,75.8,240.4,75.9z"/>
		<path class="st2" d="M241.5,76.3c0.1,0.1,0.1,0.3,0,0.4c-0.1,0.1-0.3,0.1-0.4,0c-0.1-0.1-0.1-0.3,0-0.4
			C241.3,76.2,241.4,76.2,241.5,76.3z"/>
	</g>
	<g>
		<g>
			<path class="st1" d="M183.9,99.8c0.1,0.5-0.3,0.9-0.8,0.9h-7.9c-0.5,0-0.8-0.4-0.8-0.9l1.6-11.8c0.1-0.5,0.5-0.9,1-0.9h4.3
				c0.5,0,1,0.4,1,0.9L183.9,99.8z"/>
			<path class="st1" d="M170.3,101.4c0.4,0.3,0.4,0.8,0.1,1.2l-5.6,5.6c-0.3,0.3-0.9,0.3-1.2-0.1l-7.3-9.5c-0.3-0.4-0.3-1,0.1-1.3
				l3.1-3.1c0.3-0.3,1-0.4,1.3-0.1L170.3,101.4z"/>
			<path class="st1" d="M161.9,112.3c0.5-0.1,0.9,0.3,0.9,0.8v7.9c0,0.5-0.4,0.8-0.9,0.8l-11.8-1.6c-0.5-0.1-0.9-0.5-0.9-1l0-4.3
				c0-0.5,0.4-1,0.9-1L161.9,112.3z"/>
			<path class="st1" d="M163.5,125.9c0.3-0.4,0.8-0.4,1.2-0.1l5.6,5.6c0.3,0.3,0.3,0.9-0.1,1.2l-9.5,7.3c-0.4,0.3-1,0.3-1.3-0.1
				l-3.1-3.1c-0.3-0.3-0.4-1-0.1-1.3L163.5,125.9z"/>
			<path class="st1" d="M174.3,134.3c-0.1-0.5,0.3-0.9,0.8-0.9l7.9,0c0.5,0,0.8,0.4,0.8,0.9l-1.6,11.8c-0.1,0.5-0.5,0.9-1,0.9
				l-4.3,0c-0.5,0-1-0.4-1-0.9L174.3,134.3z"/>
			<path class="st1" d="M188,132.6c-0.4-0.3-0.4-0.8-0.1-1.2l5.6-5.6c0.3-0.3,0.9-0.3,1.2,0.1l7.3,9.5c0.3,0.4,0.3,1-0.1,1.3
				l-3.1,3.1c-0.3,0.3-1,0.4-1.3,0.1L188,132.6z"/>
			<path class="st1" d="M196.4,121.8c-0.5,0.1-0.9-0.3-0.9-0.8v-7.9c0-0.5,0.4-0.8,0.9-0.8l11.8,1.6c0.5,0.1,0.9,0.5,0.9,1v4.3
				c0,0.5-0.4,1-0.9,1L196.4,121.8z"/>
			<path class="st1" d="M194.7,108.2c-0.3,0.4-0.8,0.4-1.2,0.1l-5.6-5.6c-0.3-0.3-0.3-0.9,0.1-1.2l9.5-7.3c0.4-0.3,1-0.3,1.3,0.1
				l3.1,3.1c0.3,0.3,0.4,1,0.1,1.3L194.7,108.2z"/>
			<path class="st7" d="M179.2,91.7c-14,0-25.3,11.3-25.3,25.3c0,14,11.4,25.3,25.3,25.3c14,0,25.3-11.3,25.3-25.3
				C204.5,103.1,193.2,91.7,179.2,91.7z M179.2,128.3c-6.2,0-11.3-5-11.3-11.2c0-6.2,5-11.3,11.3-11.3c6.2,0,11.3,5,11.3,11.3
				C190.4,123.2,185.4,128.3,179.2,128.3z"/>
			<path class="st1" d="M179.2,100.8c-9,0-16.3,7.3-16.3,16.3c0,9,7.3,16.2,16.3,16.2c9,0,16.3-7.3,16.3-16.2
				C195.4,108.1,188.1,100.8,179.2,100.8z M179.2,128.3c-6.2,0-11.3-5-11.3-11.2c0-6.2,5-11.3,11.3-11.3c6.2,0,11.3,5,11.3,11.3
				C190.4,123.2,185.4,128.3,179.2,128.3z"/>
		</g>
		<g>
			<g class="st12">
				<path class="st2" d="M195.5,102.5c-0.6,0.6-1.5,0.6-2.1,0c-7.6-7.8-20.1-7.9-27.9-0.3c-0.6,0.6-1.5,0.6-2.1,0
					c-0.6-0.6-0.6-1.5,0-2.1c8.9-8.8,23.4-8.6,32.1,0.3C196.1,101,196.1,101.9,195.5,102.5z"/>
			</g>
			<path class="st2" d="M179.4,94c0.6,0.6,0.6,1.6,0,2.2c-0.6,0.6-1.6,0.6-2.2,0c-0.6-0.6-0.6-1.6,0-2.2
				C177.8,93.4,178.7,93.4,179.4,94z"/>
			<path class="st2" d="M183.2,95.3c0.3,0.4,0.3,0.9,0,1.3c-0.3,0.3-0.9,0.3-1.3,0c-0.3-0.4-0.3-0.9,0-1.3
				C182.2,95,182.8,95,183.2,95.3z"/>
		</g>
	</g>
	<g>
		<g>
			<path class="st1" d="M356.3,326.2c0.1,0.4-0.2,0.7-0.7,0.7H349c-0.4,0-0.7-0.3-0.7-0.7l1.3-9.9c0.1-0.4,0.4-0.7,0.8-0.7h3.6
				c0.4,0,0.8,0.3,0.8,0.7L356.3,326.2z"/>
			<path class="st1" d="M344.9,327.6c0.3,0.3,0.4,0.7,0.1,1l-4.7,4.7c-0.3,0.3-0.7,0.3-1-0.1l-6.1-7.9c-0.3-0.3-0.2-0.8,0.1-1.1
				l2.6-2.6c0.3-0.3,0.8-0.3,1.1-0.1L344.9,327.6z"/>
			<path class="st1" d="M337.9,336.6c0.4-0.1,0.7,0.2,0.7,0.7v6.6c0,0.4-0.3,0.7-0.7,0.7l-9.9-1.3c-0.4-0.1-0.7-0.4-0.7-0.8v-3.6
				c0-0.4,0.3-0.8,0.7-0.8L337.9,336.6z"/>
			<path class="st1" d="M339.3,347.9c0.3-0.3,0.7-0.4,1-0.1l4.7,4.7c0.3,0.3,0.3,0.7-0.1,1l-7.9,6.1c-0.3,0.3-0.8,0.2-1.1-0.1
				l-2.6-2.6c-0.3-0.3-0.3-0.8-0.1-1.1L339.3,347.9z"/>
			<path class="st1" d="M348.3,355c-0.1-0.4,0.2-0.7,0.7-0.7l6.6,0c0.4,0,0.7,0.3,0.6,0.7l-1.3,9.9c-0.1,0.4-0.4,0.7-0.8,0.7l-3.6,0
				c-0.4,0-0.8-0.3-0.8-0.7L348.3,355z"/>
			<path class="st1" d="M359.7,353.6c-0.3-0.3-0.4-0.7-0.1-1l4.7-4.7c0.3-0.3,0.7-0.3,1,0.1l6.1,7.9c0.3,0.3,0.2,0.8-0.1,1.1
				l-2.6,2.6c-0.3,0.3-0.8,0.3-1.1,0.1L359.7,353.6z"/>
			<path class="st1" d="M366.7,344.6c-0.4,0.1-0.7-0.2-0.7-0.7v-6.6c0-0.4,0.3-0.7,0.7-0.7l9.9,1.3c0.4,0.1,0.7,0.4,0.7,0.8v3.6
				c0,0.4-0.3,0.8-0.7,0.8L366.7,344.6z"/>
			<path class="st1" d="M365.3,333.2c-0.2,0.3-0.7,0.4-1,0.1l-4.7-4.7c-0.3-0.3-0.3-0.7,0.1-1l7.9-6.1c0.3-0.3,0.8-0.2,1.1,0.1
				l2.6,2.6c0.3,0.3,0.3,0.8,0.1,1.1L365.3,333.2z"/>
			<path class="st7" d="M352.3,319.4c-11.7,0-21.1,9.5-21.1,21.1c0,11.7,9.5,21.1,21.1,21.1c11.7,0,21.1-9.5,21.1-21.1
				C373.5,328.9,364,319.4,352.3,319.4z M352.3,349.9c-5.2,0-9.4-4.2-9.4-9.4c0-5.2,4.2-9.4,9.4-9.4c5.2,0,9.4,4.2,9.4,9.4
				C361.7,345.7,357.5,349.9,352.3,349.9z"/>
			<path class="st1" d="M352.3,327c-7.5,0-13.5,6.1-13.5,13.6c0,7.5,6.1,13.6,13.5,13.6c7.5,0,13.5-6.1,13.5-13.6
				C365.9,333.1,359.8,327,352.3,327z M352.3,349.9c-5.2,0-9.4-4.2-9.4-9.4c0-5.2,4.2-9.4,9.4-9.4c5.2,0,9.4,4.2,9.4,9.4
				C361.7,345.7,357.5,349.9,352.3,349.9z"/>
		</g>
		<g>
			<g class="st12">
				<path class="st2" d="M366.6,328.8c-0.5,0.5-1.3,0.5-1.8,0c-6.6-6.8-17.5-6.9-24.3-0.2c-0.5,0.5-1.3,0.5-1.8,0
					c-0.5-0.5-0.5-1.3,0-1.8c7.8-7.6,20.3-7.5,28,0.3C367.2,327.5,367.1,328.3,366.6,328.8z"/>
			</g>
			<path class="st2" d="M352.6,321.5c0.5,0.5,0.5,1.4,0,1.9c-0.5,0.5-1.4,0.5-1.9,0c-0.5-0.5-0.5-1.4,0-1.9
				C351.2,320.9,352.1,320.9,352.6,321.5z"/>
			<path class="st2" d="M355.9,322.6c0.3,0.3,0.3,0.8,0,1.1c-0.3,0.3-0.8,0.3-1.1,0c-0.3-0.3-0.3-0.8,0-1.1
				C355.1,322.3,355.6,322.3,355.9,322.6z"/>
		</g>
	</g>
	<g>
		<g>
			<path class="st1" d="M245.2,265.2c0,0.3-0.2,0.5-0.5,0.5h-4.8c-0.3,0-0.5-0.2-0.5-0.5l1-7.2c0-0.3,0.3-0.5,0.6-0.5h2.6
				c0.3,0,0.6,0.2,0.6,0.5L245.2,265.2z"/>
			<path class="st1" d="M236.9,266.3c0.2,0.2,0.3,0.5,0,0.7l-3.4,3.4c-0.2,0.2-0.5,0.2-0.7,0l-4.4-5.8c-0.2-0.2-0.2-0.6,0.1-0.8
				l1.9-1.9c0.2-0.2,0.6-0.2,0.8-0.1L236.9,266.3z"/>
			<path class="st1" d="M231.8,272.9c0.3,0,0.5,0.2,0.5,0.5v4.8c0,0.3-0.2,0.5-0.5,0.5l-7.2-1c-0.3,0-0.5-0.3-0.5-0.6v-2.6
				c0-0.3,0.2-0.6,0.5-0.6L231.8,272.9z"/>
			<path class="st1" d="M232.8,281.2c0.2-0.2,0.5-0.3,0.7,0l3.4,3.4c0.2,0.2,0.2,0.5,0,0.7l-5.8,4.4c-0.2,0.2-0.6,0.2-0.8-0.1
				l-1.9-1.9c-0.2-0.2-0.2-0.6-0.1-0.8L232.8,281.2z"/>
			<path class="st1" d="M239.4,286.3c0-0.3,0.2-0.5,0.5-0.5l4.8,0c0.3,0,0.5,0.2,0.5,0.5l-1,7.2c0,0.3-0.3,0.5-0.6,0.5l-2.6,0
				c-0.3,0-0.6-0.2-0.6-0.5L239.4,286.3z"/>
			<path class="st1" d="M247.7,285.3c-0.2-0.2-0.3-0.5,0-0.7l3.4-3.4c0.2-0.2,0.5-0.2,0.7,0l4.4,5.8c0.2,0.2,0.2,0.6-0.1,0.8
				l-1.9,1.9c-0.2,0.2-0.6,0.2-0.8,0.1L247.7,285.3z"/>
			<path class="st1" d="M252.8,278.7c-0.3,0-0.5-0.2-0.5-0.5v-4.8c0-0.3,0.2-0.5,0.5-0.5l7.2,1c0.3,0,0.5,0.3,0.5,0.6v2.6
				c0,0.3-0.2,0.6-0.5,0.6L252.8,278.7z"/>
			<path class="st1" d="M251.8,270.4c-0.2,0.2-0.5,0.3-0.7,0l-3.4-3.4c-0.2-0.2-0.2-0.5,0-0.7l5.8-4.4c0.2-0.2,0.6-0.2,0.8,0.1
				l1.9,1.9c0.2,0.2,0.2,0.6,0.1,0.8L251.8,270.4z"/>
			<path class="st7" d="M242.3,260.3c-8.5,0-15.4,6.9-15.4,15.4c0,8.5,6.9,15.4,15.4,15.4c8.5,0,15.4-6.9,15.4-15.4
				C257.8,267.2,250.9,260.3,242.3,260.3z M242.3,282.6c-3.8,0-6.9-3.1-6.9-6.9s3.1-6.9,6.9-6.9c3.8,0,6.9,3.1,6.9,6.9
				S246.1,282.6,242.3,282.6z"/>
			<path class="st1" d="M242.3,265.9c-5.5,0-9.9,4.4-9.9,9.9c0,5.5,4.4,9.9,9.9,9.9s9.9-4.4,9.9-9.9
				C252.3,270.3,247.8,265.9,242.3,265.9z M242.3,282.6c-3.8,0-6.9-3.1-6.9-6.9s3.1-6.9,6.9-6.9c3.8,0,6.9,3.1,6.9,6.9
				S246.1,282.6,242.3,282.6z"/>
		</g>
		<g>
			<g class="st12">
				<path class="st2" d="M251.8,267.3c-0.4,0.3-0.9,0.3-1.3,0c-4.6-4.6-12-4.7-16.7-0.2c-0.4,0.3-0.9,0.3-1.3,0
					c-0.3-0.4-0.3-0.9,0-1.3c5.4-5.3,14-5.2,19.2,0.2C252.2,266.4,252.2,267,251.8,267.3z"/>
			</g>
			<path class="st2" d="M242.2,262.3c0.4,0.4,0.4,1,0,1.3c-0.4,0.4-1,0.4-1.3,0c-0.4-0.4-0.4-1,0-1.3
				C241.2,261.9,241.8,261.9,242.2,262.3z"/>
			<path class="st2" d="M244.4,263.1c0.2,0.2,0.2,0.5,0,0.8c-0.2,0.2-0.5,0.2-0.8,0c-0.2-0.2-0.2-0.5,0-0.8
				C243.9,262.8,244.2,262.8,244.4,263.1z"/>
		</g>
	</g>
	<g>
		<g>
			<path class="st1" d="M209.7,148.8c0,0.3-0.2,0.6-0.5,0.6h-5c-0.3,0-0.5-0.3-0.5-0.6l1-7.5c0-0.3,0.3-0.6,0.6-0.6h2.7
				c0.3,0,0.6,0.3,0.6,0.6L209.7,148.8z"/>
			<path class="st1" d="M201.1,149.9c0.2,0.2,0.3,0.5,0,0.7l-3.6,3.6c-0.2,0.2-0.6,0.2-0.7,0l-4.6-6c-0.2-0.2-0.2-0.6,0.1-0.9
				l1.9-1.9c0.2-0.2,0.6-0.2,0.9-0.1L201.1,149.9z"/>
			<path class="st1" d="M195.8,156.7c0.3,0,0.6,0.2,0.6,0.5v5c0,0.3-0.3,0.5-0.6,0.5l-7.5-1c-0.3,0-0.6-0.3-0.6-0.6l0-2.7
				c0-0.3,0.3-0.6,0.6-0.6L195.8,156.7z"/>
			<path class="st1" d="M196.8,165.4c0.2-0.2,0.5-0.3,0.7,0l3.6,3.6c0.2,0.2,0.2,0.6,0,0.7l-6,4.6c-0.2,0.2-0.6,0.2-0.9-0.1
				l-1.9-1.9c-0.2-0.2-0.2-0.6-0.1-0.9L196.8,165.4z"/>
			<path class="st1" d="M203.7,170.7c0-0.3,0.2-0.6,0.5-0.6l5,0c0.3,0,0.5,0.3,0.5,0.6l-1,7.5c0,0.3-0.3,0.6-0.6,0.6l-2.7,0
				c-0.3,0-0.6-0.3-0.6-0.6L203.7,170.7z"/>
			<path class="st1" d="M212.3,169.7c-0.2-0.2-0.3-0.5,0-0.7l3.6-3.6c0.2-0.2,0.6-0.2,0.7,0l4.6,6c0.2,0.2,0.2,0.6-0.1,0.9l-1.9,1.9
				c-0.2,0.2-0.6,0.2-0.9,0.1L212.3,169.7z"/>
			<path class="st1" d="M217.6,162.8c-0.3,0-0.6-0.2-0.6-0.5v-5c0-0.3,0.3-0.5,0.6-0.5l7.5,1c0.3,0,0.6,0.3,0.6,0.6v2.7
				c0,0.3-0.3,0.6-0.6,0.6L217.6,162.8z"/>
			<path class="st1" d="M216.6,154.2c-0.2,0.2-0.5,0.3-0.7,0l-3.6-3.6c-0.2-0.2-0.2-0.6,0-0.7l6-4.6c0.2-0.2,0.6-0.2,0.9,0.1
				l1.9,1.9c0.2,0.2,0.2,0.6,0.1,0.9L216.6,154.2z"/>
			<path class="st7" d="M206.7,143.7c-8.9,0-16,7.2-16,16c0,8.9,7.2,16,16,16c8.9,0,16-7.2,16-16
				C222.8,150.9,215.6,143.7,206.7,143.7z M206.7,166.9c-3.9,0-7.1-3.2-7.1-7.1c0-3.9,3.2-7.1,7.1-7.1c3.9,0,7.1,3.2,7.1,7.1
				C213.8,163.7,210.6,166.9,206.7,166.9z"/>
			<path class="st1" d="M206.7,149.5c-5.7,0-10.3,4.6-10.3,10.3c0,5.7,4.6,10.3,10.3,10.3c5.7,0,10.3-4.6,10.3-10.3
				C217,154.1,212.4,149.5,206.7,149.5z M206.7,166.9c-3.9,0-7.1-3.2-7.1-7.1c0-3.9,3.2-7.1,7.1-7.1c3.9,0,7.1,3.2,7.1,7.1
				C213.8,163.7,210.6,166.9,206.7,166.9z"/>
		</g>
		<g>
			<g class="st12">
				<path class="st2" d="M216.5,150.6c-0.4,0.3-0.9,0.3-1.3,0c-4.6-4.6-12-4.7-16.7-0.2c-0.4,0.3-0.9,0.3-1.3,0
					c-0.3-0.4-0.3-0.9,0-1.3c5.4-5.3,14-5.2,19.2,0.2C216.9,149.7,216.8,150.2,216.5,150.6z"/>
			</g>
			<path class="st2" d="M206.8,145.5c0.4,0.4,0.4,1,0,1.3c-0.4,0.4-1,0.4-1.3,0c-0.4-0.4-0.4-1,0-1.3
				C205.9,145.1,206.5,145.1,206.8,145.5z"/>
			<path class="st2" d="M209.1,146.3c0.2,0.2,0.2,0.5,0,0.8c-0.2,0.2-0.5,0.2-0.8,0c-0.2-0.2-0.2-0.5,0-0.8
				C208.6,146.1,208.9,146.1,209.1,146.3z"/>
		</g>
	</g>
	<g>
		<g>
			<path class="st5" d="M224.8,62.7C224.8,62.8,224.8,62.8,224.8,62.7l0,38.8c0,4.3,1.8,8.2,4.6,11c2.8,2.8,6.7,4.6,11,4.6
				c8.6,0,15.6-7,15.6-15.6V62.8c0,0,0,0,0,0H224.8z"/>
			<rect x="226.3" y="99.5" class="st5" width="26.5" height="22.2"/>
			<path class="st4" d="M240.5,93.5c-6.4,0-11.6-5.2-11.6-11.6c0-6.4,5.2-11.6,11.6-11.6c6.4,0,11.6,5.2,11.6,11.6
				C252,88.3,246.8,93.5,240.5,93.5z"/>
			<polygon class="st4" points="232.2,121.7 232.2,99.5 224.8,99.5 214.3,131 			"/>
			<polygon class="st4" points="248.8,121.7 248.8,99.5 256.1,99.5 266.6,131 			"/>
			<polygon class="st4" points="240.5,28.1 240.5,28.1 224.8,62.8 256.1,62.8 			"/>
		</g>
		<rect x="232.2" y="121.7" class="st0" width="16.4" height="71.3"/>
	</g>
	<text transform="matrix(1 0 0 1 157.7783 283.7979)" class="st13 st14 st15">SEO</text>
</g>
<g id="DESIGNED_BY_FREEPIK" class="st16">
	<g id="XMLID_76_" class="st17">
		<g id="XMLID_929_">
			<path id="XMLID_958_" class="st1" d="M178.4,472c-0.2,0-0.4,0.1-0.6,0.3c-0.1,0.2-0.2,0.4-0.2,0.8v2.4c-0.3-0.3-0.6-0.6-0.9-0.7
				c-0.3-0.2-0.7-0.2-1.2-0.2c-0.8,0-1.5,0.3-2,0.8c-0.5,0.6-0.7,1.4-0.7,2.4c0,0.5,0.1,0.9,0.2,1.3s0.3,0.8,0.5,1.1
				c0.2,0.3,0.5,0.5,0.9,0.7c0.3,0.2,0.7,0.2,1.1,0.2c0.3,0,0.6,0,0.8-0.1c0.2-0.1,0.5-0.2,0.7-0.4c0.2-0.2,0.4-0.4,0.6-0.6v0.2
				c0,0.3,0.1,0.5,0.2,0.7c0.1,0.2,0.3,0.2,0.5,0.2c0.2,0,0.4-0.1,0.6-0.2c0.1-0.2,0.2-0.4,0.2-0.7v-7.1c0-0.3-0.1-0.5-0.2-0.7
				C178.8,472,178.6,472,178.4,472z M177.3,478.8c-0.1,0.3-0.3,0.5-0.6,0.7c-0.2,0.1-0.5,0.2-0.8,0.2c-0.3,0-0.5-0.1-0.8-0.2
				c-0.2-0.2-0.4-0.4-0.6-0.7c-0.1-0.3-0.2-0.7-0.2-1.1c0-0.4,0.1-0.8,0.2-1.1c0.1-0.3,0.3-0.6,0.5-0.7c0.2-0.2,0.5-0.3,0.8-0.3
				c0.3,0,0.5,0.1,0.8,0.2c0.2,0.2,0.4,0.4,0.6,0.7c0.1,0.3,0.2,0.7,0.2,1.1C177.5,478.1,177.4,478.5,177.3,478.8z"/>
			<path id="XMLID_954_" class="st1" d="M185.7,477.9c0.2-0.1,0.4-0.4,0.4-0.8c0-0.4-0.1-0.9-0.3-1.3c-0.2-0.4-0.6-0.8-1-1
				c-0.5-0.3-1-0.4-1.6-0.4c-0.5,0-0.9,0.1-1.3,0.2c-0.4,0.2-0.7,0.4-1,0.7c-0.3,0.3-0.5,0.6-0.6,1.1c-0.1,0.4-0.2,0.9-0.2,1.3
				c0,1,0.3,1.8,0.9,2.4c0.6,0.6,1.4,0.9,2.4,0.9c0.5,0,0.9-0.1,1.2-0.2c0.4-0.1,0.6-0.3,0.9-0.4c0.2-0.2,0.4-0.4,0.5-0.6
				c0.1-0.2,0.2-0.4,0.2-0.5c0-0.2-0.1-0.3-0.2-0.4c-0.1-0.1-0.2-0.1-0.4-0.1c-0.2,0-0.3,0-0.4,0.1c-0.2,0.2-0.4,0.3-0.5,0.5
				c-0.1,0.1-0.3,0.2-0.4,0.3c-0.2,0.1-0.3,0.2-0.5,0.2c-0.2,0-0.3,0.1-0.5,0.1c-0.3,0-0.6-0.1-0.8-0.2c-0.2-0.1-0.4-0.4-0.6-0.6
				c-0.1-0.3-0.2-0.6-0.2-1h3.2C185.2,478.1,185.5,478,185.7,477.9z M181.6,477.1c0.1-0.5,0.2-1,0.5-1.2c0.3-0.3,0.6-0.4,1-0.4
				c0.4,0,0.8,0.1,1,0.4c0.3,0.3,0.4,0.7,0.4,1.2H181.6z"/>
			<path id="XMLID_952_" class="st1" d="M191.1,477.4c-0.3-0.2-0.7-0.3-1.2-0.4c-0.4-0.1-0.8-0.2-1-0.3c-0.2-0.1-0.4-0.2-0.6-0.3
				c-0.1-0.1-0.2-0.2-0.2-0.4c0-0.2,0.1-0.3,0.3-0.5c0.2-0.1,0.4-0.2,0.7-0.2c0.3,0,0.5,0,0.7,0.1c0.2,0.1,0.3,0.2,0.4,0.4
				c0.2,0.2,0.3,0.3,0.4,0.4c0.1,0.1,0.3,0.1,0.4,0.1c0.2,0,0.4-0.1,0.5-0.2c0.1-0.1,0.2-0.3,0.2-0.5c0-0.2-0.1-0.3-0.2-0.5
				c-0.1-0.2-0.3-0.3-0.5-0.5c-0.2-0.1-0.5-0.3-0.8-0.4c-0.3-0.1-0.7-0.1-1.1-0.1c-0.5,0-1,0.1-1.4,0.3c-0.4,0.2-0.7,0.4-0.9,0.7
				c-0.2,0.3-0.3,0.6-0.3,0.9c0,0.4,0.1,0.7,0.3,0.9c0.2,0.2,0.5,0.5,0.8,0.6c0.4,0.2,0.8,0.3,1.4,0.4c0.5,0.1,0.8,0.2,1.1,0.4
				c0.2,0.1,0.3,0.3,0.3,0.6c0,0.2-0.1,0.4-0.3,0.5c-0.2,0.1-0.5,0.2-0.8,0.2c-0.4,0-0.7-0.1-0.9-0.2c-0.2-0.1-0.4-0.4-0.6-0.6
				c-0.1-0.1-0.2-0.3-0.3-0.4c-0.1-0.1-0.2-0.1-0.4-0.1c-0.2,0-0.4,0.1-0.5,0.2c-0.1,0.1-0.2,0.3-0.2,0.5c0,0.3,0.1,0.5,0.3,0.8
				c0.2,0.3,0.5,0.5,0.9,0.7c0.4,0.2,0.9,0.3,1.5,0.3c0.6,0,1.1-0.1,1.6-0.2c0.4-0.2,0.7-0.4,1-0.7c0.2-0.3,0.3-0.7,0.3-1.1
				c0-0.3-0.1-0.6-0.2-0.8C191.7,477.8,191.5,477.6,191.1,477.4z"/>
			<path id="XMLID_950_" class="st1" d="M193.8,474.4c-0.2,0-0.4,0.1-0.6,0.2c-0.1,0.2-0.2,0.4-0.2,0.7v4.6c0,0.3,0.1,0.6,0.2,0.7
				c0.1,0.2,0.3,0.3,0.6,0.3s0.4-0.1,0.6-0.2c0.2-0.2,0.2-0.4,0.2-0.7v-4.7c0-0.3-0.1-0.5-0.2-0.7
				C194.2,474.5,194,474.4,193.8,474.4z"/>
			<path id="XMLID_949_" class="st1" d="M193.8,472c-0.2,0-0.4,0.1-0.6,0.2c-0.2,0.1-0.2,0.3-0.2,0.6c0,0.3,0.1,0.4,0.2,0.6
				c0.2,0.1,0.4,0.2,0.6,0.2c0.2,0,0.4-0.1,0.6-0.2c0.2-0.1,0.2-0.3,0.2-0.6c0-0.3-0.1-0.5-0.2-0.6C194.2,472.1,194,472,193.8,472z"
				/>
			<path id="XMLID_945_" class="st1" d="M200.9,474.4c-0.2,0-0.4,0.1-0.5,0.2c-0.1,0.2-0.2,0.4-0.2,0.7v0.2
				c-0.3-0.4-0.6-0.7-0.9-0.8c-0.3-0.2-0.7-0.3-1.2-0.3c-0.4,0-0.7,0.1-1.1,0.2c-0.3,0.1-0.6,0.3-0.8,0.6c-0.2,0.3-0.4,0.6-0.6,1
				c-0.1,0.4-0.2,0.8-0.2,1.3c0,0.7,0.1,1.2,0.3,1.7c0.2,0.5,0.5,0.9,0.9,1.2c0.4,0.3,0.9,0.4,1.4,0.4c0.5,0,0.8-0.1,1.2-0.3
				c0.3-0.2,0.6-0.4,0.9-0.8c0,0.5,0,0.9,0,1.2c0,0.2-0.1,0.5-0.2,0.7c-0.1,0.2-0.3,0.4-0.5,0.5c-0.2,0.1-0.6,0.2-1,0.2
				c-0.2,0-0.4,0-0.5-0.1c-0.2,0-0.3-0.1-0.4-0.2c-0.1-0.1-0.2-0.2-0.3-0.3c-0.1-0.1-0.2-0.2-0.3-0.3c-0.2-0.2-0.4-0.3-0.6-0.3
				c-0.2,0-0.4,0.1-0.5,0.2c-0.1,0.1-0.2,0.3-0.2,0.5c0,0.3,0.1,0.5,0.4,0.8c0.2,0.2,0.6,0.4,1,0.6c0.4,0.2,0.9,0.2,1.5,0.2
				c0.6,0,1.1-0.1,1.5-0.2c0.4-0.1,0.7-0.3,1-0.6c0.3-0.3,0.4-0.6,0.6-1c0.1-0.4,0.2-0.9,0.2-1.4v-4.7c0-0.4-0.1-0.7-0.2-0.9
				C201.4,474.5,201.2,474.4,200.9,474.4z M199.9,478.7c-0.2,0.3-0.3,0.5-0.6,0.7c-0.2,0.1-0.5,0.2-0.8,0.2c-0.5,0-0.8-0.2-1.1-0.5
				c-0.3-0.3-0.4-0.8-0.4-1.5c0-0.6,0.1-1.1,0.4-1.5c0.3-0.4,0.6-0.5,1.1-0.5c0.5,0,0.9,0.2,1.1,0.6c0.3,0.4,0.4,0.9,0.4,1.5
				C200.1,478.1,200,478.4,199.9,478.7z"/>
			<path id="XMLID_944_" class="st1" d="M208.2,475.4c-0.2-0.3-0.4-0.6-0.8-0.8c-0.3-0.2-0.7-0.3-1.1-0.3c-0.4,0-0.8,0.1-1.2,0.3
				c-0.3,0.2-0.7,0.5-0.9,0.8v-0.2c0-0.2,0-0.4-0.1-0.5c-0.1-0.1-0.2-0.2-0.3-0.3c-0.1-0.1-0.2-0.1-0.4-0.1c-0.2,0-0.4,0.1-0.6,0.2
				c-0.1,0.2-0.2,0.4-0.2,0.7v4.7c0,0.3,0.1,0.6,0.2,0.7c0.2,0.2,0.3,0.3,0.6,0.3c0.2,0,0.4-0.1,0.6-0.2c0.2-0.2,0.2-0.4,0.2-0.7v-2
				c0-0.7,0-1.1,0.1-1.4c0.1-0.3,0.3-0.5,0.5-0.7c0.2-0.2,0.5-0.3,0.8-0.3c0.4,0,0.7,0.1,0.9,0.4c0.1,0.3,0.2,0.7,0.2,1.2v2.7
				c0,0.3,0.1,0.6,0.2,0.7c0.2,0.2,0.3,0.3,0.6,0.3c0.2,0,0.4-0.1,0.6-0.2c0.1-0.2,0.2-0.4,0.2-0.7v-3c0-0.4,0-0.6,0-0.9
				C208.4,475.9,208.4,475.6,208.2,475.4z"/>
			<path id="XMLID_939_" class="st1" d="M215.1,477.9c0.2-0.1,0.4-0.4,0.4-0.8c0-0.4-0.1-0.9-0.3-1.3c-0.2-0.4-0.6-0.8-1-1
				c-0.5-0.3-1-0.4-1.6-0.4c-0.5,0-0.9,0.1-1.3,0.2c-0.4,0.2-0.7,0.4-1,0.7c-0.3,0.3-0.5,0.6-0.6,1.1c-0.1,0.4-0.2,0.9-0.2,1.3
				c0,1,0.3,1.8,0.9,2.4c0.6,0.6,1.4,0.9,2.4,0.9c0.5,0,0.9-0.1,1.2-0.2c0.4-0.1,0.6-0.3,0.9-0.4c0.2-0.2,0.4-0.4,0.5-0.6
				c0.1-0.2,0.2-0.4,0.2-0.5c0-0.2-0.1-0.3-0.2-0.4c-0.1-0.1-0.2-0.1-0.4-0.1c-0.2,0-0.3,0-0.4,0.1c-0.2,0.2-0.4,0.3-0.5,0.5
				c-0.1,0.1-0.3,0.2-0.4,0.3c-0.2,0.1-0.3,0.2-0.5,0.2c-0.2,0-0.3,0.1-0.5,0.1c-0.3,0-0.6-0.1-0.8-0.2c-0.2-0.1-0.4-0.4-0.6-0.6
				c-0.1-0.3-0.2-0.6-0.2-1h3.2C214.5,478.1,214.9,478,215.1,477.9z M210.9,477.1c0.1-0.5,0.2-1,0.5-1.2c0.3-0.3,0.6-0.4,1-0.4
				c0.4,0,0.8,0.1,1,0.4c0.3,0.3,0.4,0.7,0.4,1.2H210.9z"/>
			<path id="XMLID_936_" class="st1" d="M221.5,472c-0.2,0-0.4,0.1-0.6,0.3c-0.1,0.2-0.2,0.4-0.2,0.8v2.4c-0.3-0.3-0.6-0.6-0.9-0.7
				c-0.3-0.2-0.7-0.2-1.2-0.2c-0.8,0-1.5,0.3-2,0.8c-0.5,0.6-0.7,1.4-0.7,2.4c0,0.5,0.1,0.9,0.2,1.3s0.3,0.8,0.5,1.1
				c0.2,0.3,0.5,0.5,0.9,0.7c0.3,0.2,0.7,0.2,1.1,0.2c0.3,0,0.6,0,0.8-0.1c0.2-0.1,0.5-0.2,0.7-0.4c0.2-0.2,0.4-0.4,0.6-0.6v0.2
				c0,0.3,0.1,0.5,0.2,0.7c0.1,0.2,0.3,0.2,0.5,0.2c0.2,0,0.4-0.1,0.6-0.2c0.1-0.2,0.2-0.4,0.2-0.7v-7.1c0-0.3-0.1-0.5-0.2-0.7
				C221.9,472,221.7,472,221.5,472z M220.4,478.8c-0.1,0.3-0.3,0.5-0.6,0.7c-0.2,0.1-0.5,0.2-0.8,0.2c-0.3,0-0.5-0.1-0.8-0.2
				c-0.2-0.2-0.4-0.4-0.6-0.7c-0.1-0.3-0.2-0.7-0.2-1.1c0-0.4,0.1-0.8,0.2-1.1c0.1-0.3,0.3-0.6,0.5-0.7c0.2-0.2,0.5-0.3,0.8-0.3
				c0.3,0,0.5,0.1,0.8,0.2c0.2,0.2,0.4,0.4,0.6,0.7c0.1,0.3,0.2,0.7,0.2,1.1C220.6,478.1,220.6,478.5,220.4,478.8z"/>
			<path id="XMLID_933_" class="st1" d="M230.9,474.8c-0.4-0.3-0.9-0.4-1.4-0.4c-0.5,0-0.9,0.1-1.2,0.3c-0.3,0.2-0.6,0.4-0.9,0.7
				v-2.5c0-0.3-0.1-0.5-0.2-0.7c-0.1-0.2-0.3-0.2-0.6-0.2c-0.2,0-0.4,0.1-0.6,0.3c-0.1,0.2-0.2,0.4-0.2,0.7v7.1
				c0,0.3,0.1,0.5,0.2,0.7c0.1,0.2,0.3,0.2,0.5,0.2c0.2,0,0.4-0.1,0.6-0.2c0.1-0.2,0.2-0.4,0.2-0.7v-0.2c0.2,0.2,0.3,0.4,0.4,0.5
				c0.1,0.1,0.2,0.2,0.4,0.3c0.2,0.1,0.3,0.2,0.6,0.2c0.2,0.1,0.5,0.1,0.7,0.1c0.4,0,0.8-0.1,1.1-0.2c0.3-0.2,0.6-0.4,0.9-0.7
				c0.2-0.3,0.4-0.7,0.5-1.1c0.1-0.4,0.2-0.9,0.2-1.3c0-0.7-0.1-1.2-0.3-1.7C231.6,475.4,231.3,475,230.9,474.8z M230.1,479.2
				c-0.3,0.4-0.6,0.5-1.1,0.5c-0.5,0-0.9-0.2-1.2-0.5c-0.3-0.3-0.4-0.8-0.4-1.5c0-0.4,0.1-0.8,0.2-1.1c0.1-0.3,0.3-0.6,0.6-0.7
				c0.2-0.2,0.5-0.3,0.8-0.3c0.3,0,0.6,0.1,0.8,0.3c0.2,0.2,0.4,0.4,0.5,0.7c0.1,0.3,0.2,0.7,0.2,1.1
				C230.5,478.3,230.4,478.8,230.1,479.2z"/>
			<path id="XMLID_931_" class="st1" d="M237.8,474.5c-0.1-0.1-0.2-0.1-0.4-0.1c-0.2,0-0.3,0-0.4,0.1c-0.1,0.1-0.2,0.2-0.3,0.3
				c-0.1,0.2-0.2,0.4-0.3,0.7l-1.3,3.7l-1.4-4c-0.1-0.3-0.2-0.5-0.3-0.6c-0.1-0.1-0.3-0.2-0.5-0.2c-0.1,0-0.3,0-0.4,0.1
				c-0.1,0.1-0.2,0.2-0.3,0.3c-0.1,0.1-0.1,0.2-0.1,0.4c0,0.1,0.1,0.3,0.2,0.6l2,5l-0.1,0.4c-0.1,0.3-0.2,0.5-0.3,0.6
				c-0.1,0.1-0.2,0.2-0.3,0.3c-0.1,0.1-0.3,0.1-0.4,0.1c-0.1,0-0.2,0-0.3,0c-0.1,0-0.2,0-0.3,0c-0.2,0-0.4,0.1-0.5,0.2
				c-0.1,0.1-0.2,0.2-0.2,0.4c0,0.3,0.1,0.5,0.4,0.6c0.2,0.1,0.6,0.2,1.1,0.2c0.5,0,0.9-0.1,1.2-0.2c0.3-0.1,0.5-0.4,0.7-0.6
				c0.2-0.3,0.4-0.7,0.5-1.1l2.1-5.5c0.1-0.1,0.1-0.3,0.1-0.4c0-0.1,0.1-0.2,0.1-0.3c0-0.1,0-0.2-0.1-0.3
				C238,474.6,237.9,474.5,237.8,474.5z"/>
		</g>
		<g id="XMLID_365_">
			<g id="XMLID_380_">
				<path id="XMLID_928_" class="st1" d="M260.2,472c-0.5,0-1,0.1-1.3,0.2c-0.3,0.1-0.5,0.4-0.7,0.7c-0.1,0.3-0.2,0.7-0.2,1.2v0.5
					h-0.4c-0.5,0-0.8,0.2-0.8,0.6c0,0.2,0.1,0.3,0.2,0.4c0.1,0.1,0.3,0.2,0.6,0.2h0.4v4.3c0,0.3,0.1,0.6,0.2,0.7
					c0.2,0.2,0.3,0.3,0.6,0.3c0.2,0,0.4-0.1,0.6-0.3c0.2-0.2,0.2-0.4,0.2-0.7v-4.3h0.4c0.3,0,0.5,0,0.7-0.1c0.2-0.1,0.2-0.2,0.2-0.5
					c0-0.4-0.3-0.6-0.9-0.6h-0.4v-0.4c0-0.3,0-0.6,0.1-0.7c0.1-0.2,0.3-0.3,0.6-0.3c0.1,0,0.2,0,0.4,0c0.2,0,0.3,0,0.3,0
					c0.1,0,0.3-0.1,0.3-0.2c0.1-0.1,0.2-0.2,0.2-0.4C261.6,472.2,261.2,472,260.2,472z"/>
				<path id="XMLID_926_" class="st1" d="M265.4,474.6c-0.3-0.2-0.6-0.3-1-0.3c-0.3,0-0.6,0.1-0.8,0.3c-0.2,0.2-0.4,0.4-0.6,0.8
					c0-0.3-0.1-0.6-0.2-0.8c-0.1-0.2-0.3-0.3-0.6-0.3c-0.5,0-0.8,0.4-0.8,1.1v4.5c0,0.3,0.1,0.6,0.2,0.7c0.1,0.2,0.3,0.3,0.6,0.3
					c0.2,0,0.4-0.1,0.6-0.2c0.2-0.2,0.2-0.4,0.2-0.7v-1.4c0-0.5,0-0.9,0-1.2c0-0.3,0.1-0.6,0.2-0.9c0.1-0.2,0.2-0.4,0.4-0.6
					c0.1-0.1,0.3-0.2,0.6-0.2c0.2,0,0.4,0,0.6,0.1c0.2,0.1,0.4,0.1,0.4,0.1c0.2,0,0.3-0.1,0.4-0.2c0.1-0.1,0.2-0.3,0.2-0.5
					C265.8,475,265.7,474.8,265.4,474.6z"/>
				<path id="XMLID_922_" class="st1" d="M271.4,477.9c0.2-0.1,0.4-0.4,0.4-0.8c0-0.4-0.1-0.9-0.3-1.3c-0.2-0.4-0.6-0.8-1-1
					c-0.5-0.3-1-0.4-1.6-0.4c-0.5,0-0.9,0.1-1.3,0.2c-0.4,0.2-0.7,0.4-1,0.7c-0.3,0.3-0.5,0.6-0.6,1.1c-0.1,0.4-0.2,0.9-0.2,1.3
					c0,1,0.3,1.8,0.9,2.4c0.6,0.6,1.4,0.9,2.4,0.9c0.5,0,0.9-0.1,1.2-0.2c0.3-0.1,0.6-0.3,0.9-0.4c0.2-0.2,0.4-0.4,0.5-0.6
					c0.1-0.2,0.2-0.4,0.2-0.5c0-0.2,0-0.3-0.2-0.4c-0.1-0.1-0.2-0.1-0.4-0.1c-0.2,0-0.3,0-0.4,0.1c-0.2,0.2-0.4,0.3-0.5,0.4
					c-0.1,0.1-0.3,0.2-0.4,0.3c-0.2,0.1-0.3,0.2-0.5,0.2c-0.2,0-0.3,0.1-0.5,0.1c-0.3,0-0.6-0.1-0.8-0.2c-0.2-0.1-0.4-0.4-0.6-0.6
					c-0.1-0.3-0.2-0.6-0.2-1h3.2C270.9,478.1,271.2,478,271.4,477.9z M267.3,477.1c0.1-0.5,0.2-1,0.5-1.2c0.3-0.3,0.6-0.4,1-0.4
					c0.4,0,0.8,0.1,1,0.4c0.3,0.3,0.4,0.7,0.4,1.2H267.3z"/>
				<path id="XMLID_919_" class="st1" d="M278.2,477.9c0.2-0.1,0.4-0.4,0.4-0.8c0-0.4-0.1-0.9-0.3-1.3c-0.2-0.4-0.6-0.8-1-1
					c-0.5-0.3-1-0.4-1.6-0.4c-0.5,0-0.9,0.1-1.3,0.2c-0.4,0.2-0.7,0.4-1,0.7c-0.3,0.3-0.5,0.6-0.6,1.1c-0.1,0.4-0.2,0.9-0.2,1.3
					c0,1,0.3,1.8,0.9,2.4c0.6,0.6,1.4,0.9,2.4,0.9c0.5,0,0.9-0.1,1.2-0.2c0.3-0.1,0.6-0.3,0.9-0.4c0.2-0.2,0.4-0.4,0.5-0.6
					c0.1-0.2,0.2-0.4,0.2-0.5c0-0.2,0-0.3-0.2-0.4c-0.1-0.1-0.2-0.1-0.4-0.1c-0.2,0-0.3,0-0.4,0.1c-0.2,0.2-0.4,0.3-0.5,0.4
					c-0.1,0.1-0.3,0.2-0.4,0.3c-0.2,0.1-0.3,0.2-0.5,0.2c-0.2,0-0.3,0.1-0.5,0.1c-0.3,0-0.6-0.1-0.8-0.2c-0.2-0.1-0.4-0.4-0.6-0.6
					c-0.1-0.3-0.2-0.6-0.2-1h3.2C277.6,478.1,278,478,278.2,477.9z M274,477.1c0.1-0.5,0.2-1,0.5-1.2c0.3-0.3,0.6-0.4,1-0.4
					c0.4,0,0.8,0.1,1,0.4c0.3,0.3,0.4,0.7,0.4,1.2H274z"/>
				<path id="XMLID_390_" class="st1" d="M284.2,474.8c-0.4-0.3-0.9-0.4-1.4-0.4c-0.4,0-0.8,0.1-1.1,0.3c-0.3,0.2-0.6,0.5-1,0.8
					v-0.2c0-0.3-0.1-0.5-0.2-0.7c-0.1-0.2-0.3-0.2-0.6-0.2c-0.2,0-0.4,0.1-0.6,0.2c-0.1,0.2-0.2,0.4-0.2,0.7v7
					c0,0.4,0.1,0.6,0.1,0.8c0.1,0.2,0.3,0.3,0.6,0.3c0.5,0,0.8-0.4,0.8-1.1v-2.4c0.3,0.4,0.6,0.6,0.9,0.8c0.3,0.2,0.7,0.3,1.2,0.3
					c0.4,0,0.7-0.1,1.1-0.2c0.3-0.2,0.6-0.4,0.9-0.7c0.2-0.3,0.4-0.6,0.6-1c0.1-0.4,0.2-0.9,0.2-1.4c0-0.7-0.1-1.3-0.4-1.8
					C284.9,475.4,284.6,475,284.2,474.8z M283.7,478.8c-0.1,0.3-0.3,0.5-0.6,0.7c-0.2,0.2-0.5,0.2-0.7,0.2c-0.5,0-0.8-0.2-1.1-0.5
					c-0.3-0.4-0.5-0.9-0.5-1.5c0-0.7,0.2-1.2,0.5-1.6c0.3-0.3,0.7-0.5,1.1-0.5c0.3,0,0.5,0.1,0.8,0.2c0.2,0.2,0.4,0.4,0.5,0.7
					c0.1,0.3,0.2,0.7,0.2,1.1C283.9,478.1,283.9,478.5,283.7,478.8z"/>
				<path id="XMLID_389_" class="st1" d="M287.2,474.4c-0.2,0-0.4,0.1-0.6,0.2c-0.1,0.2-0.2,0.4-0.2,0.7v4.6c0,0.3,0.1,0.6,0.2,0.7
					c0.2,0.2,0.3,0.3,0.6,0.3c0.2,0,0.4-0.1,0.6-0.3c0.2-0.2,0.2-0.4,0.2-0.7v-4.7c0-0.3-0.1-0.5-0.2-0.7
					C287.6,474.4,287.4,474.4,287.2,474.4z"/>
				<path id="XMLID_388_" class="st1" d="M287.2,472c-0.2,0-0.4,0.1-0.6,0.2c-0.2,0.1-0.2,0.3-0.2,0.6c0,0.3,0.1,0.4,0.2,0.6
					c0.2,0.1,0.3,0.2,0.6,0.2c0.2,0,0.4-0.1,0.6-0.2c0.2-0.1,0.2-0.3,0.2-0.6c0-0.3-0.1-0.5-0.2-0.6
					C287.6,472.1,287.4,472,287.2,472z"/>
				<path id="XMLID_387_" class="st1" d="M294.5,479.4l-1.7-2.6l0.9-0.8c0.4-0.4,0.7-0.7,0.7-1c0-0.2-0.1-0.4-0.2-0.5
					c-0.1-0.1-0.3-0.2-0.5-0.2c-0.2,0-0.3,0-0.4,0.1c-0.1,0.1-0.3,0.3-0.5,0.5l-1.8,1.9V473c0-0.3-0.1-0.6-0.2-0.8
					c-0.1-0.2-0.3-0.3-0.6-0.3c-0.3,0-0.5,0.1-0.6,0.3c-0.1,0.2-0.2,0.5-0.2,0.8v6.9c0,0.3,0.1,0.6,0.2,0.7c0.1,0.2,0.3,0.3,0.6,0.3
					c0.2,0,0.4-0.1,0.6-0.3c0.2-0.2,0.2-0.4,0.2-0.7v-1.3l0.9-0.8l1.4,2.4c0.2,0.3,0.3,0.5,0.4,0.6c0.1,0.1,0.3,0.2,0.5,0.2
					c0.2,0,0.4-0.1,0.6-0.2c0.1-0.2,0.2-0.4,0.2-0.6c0-0.1,0-0.2-0.1-0.3C294.7,479.7,294.7,479.6,294.5,479.4z"/>
				<path id="XMLID_386_" class="st1" d="M296.7,479.2c-0.3,0-0.5,0.1-0.6,0.3s-0.3,0.4-0.3,0.6c0,0.3,0.1,0.5,0.3,0.7
					c0.2,0.2,0.4,0.2,0.6,0.2c0.2,0,0.4-0.1,0.6-0.2c0.2-0.2,0.3-0.4,0.3-0.7c0-0.2-0.1-0.5-0.3-0.6
					C297.2,479.3,297,479.2,296.7,479.2z"/>
				<path id="XMLID_385_" class="st1" d="M304.1,478.2c-0.2,0-0.3,0.1-0.4,0.2c-0.1,0.1-0.2,0.2-0.3,0.4c-0.2,0.3-0.4,0.5-0.6,0.7
					c-0.2,0.1-0.5,0.2-0.8,0.2c-0.2,0-0.5,0-0.7-0.1c-0.2-0.1-0.4-0.2-0.5-0.4c-0.1-0.2-0.3-0.4-0.3-0.7c-0.1-0.3-0.1-0.5-0.1-0.8
					c0-0.6,0.1-1.2,0.4-1.5c0.3-0.4,0.7-0.6,1.2-0.6c0.3,0,0.6,0.1,0.8,0.2c0.2,0.1,0.4,0.4,0.6,0.7c0.1,0.2,0.2,0.3,0.3,0.3
					c0.1,0.1,0.2,0.1,0.3,0.1c0.2,0,0.4-0.1,0.5-0.2c0.1-0.1,0.2-0.3,0.2-0.5c0-0.2-0.1-0.4-0.2-0.6c-0.1-0.2-0.3-0.4-0.6-0.6
					c-0.2-0.2-0.5-0.4-0.9-0.5c-0.4-0.1-0.7-0.2-1.2-0.2c-0.7,0-1.3,0.1-1.7,0.4c-0.5,0.3-0.9,0.7-1.1,1.2c-0.3,0.5-0.4,1.1-0.4,1.8
					c0,1,0.3,1.8,0.8,2.3c0.6,0.6,1.3,0.9,2.3,0.9c0.5,0,0.9-0.1,1.3-0.2c0.4-0.1,0.7-0.3,0.9-0.5c0.2-0.2,0.4-0.4,0.6-0.7
					c0.1-0.2,0.2-0.4,0.2-0.6c0-0.2-0.1-0.3-0.2-0.5C304.5,478.3,304.3,478.2,304.1,478.2z"/>
				<path id="XMLID_382_" class="st1" d="M310.9,475.3c-0.3-0.3-0.6-0.5-1-0.7c-0.4-0.2-0.8-0.2-1.3-0.2c-0.5,0-0.9,0.1-1.3,0.2
					c-0.4,0.2-0.7,0.4-1,0.7c-0.3,0.3-0.5,0.6-0.6,1c-0.1,0.4-0.2,0.9-0.2,1.3c0,0.5,0.1,0.9,0.2,1.3c0.2,0.4,0.4,0.8,0.7,1
					c0.3,0.3,0.6,0.5,1,0.7c0.4,0.2,0.8,0.2,1.3,0.2c0.5,0,0.9-0.1,1.3-0.2c0.4-0.2,0.7-0.4,1-0.7c0.3-0.3,0.5-0.6,0.7-1
					c0.1-0.4,0.2-0.9,0.2-1.3c0-0.5-0.1-0.9-0.2-1.3C311.4,475.9,311.2,475.6,310.9,475.3z M309.7,479.2c-0.3,0.4-0.7,0.6-1.2,0.6
					c-0.3,0-0.6-0.1-0.8-0.3c-0.2-0.2-0.4-0.4-0.6-0.7c-0.1-0.3-0.2-0.7-0.2-1.1c0-0.4,0.1-0.8,0.2-1.1c0.1-0.3,0.3-0.6,0.6-0.7
					c0.2-0.2,0.5-0.2,0.8-0.2c0.5,0,0.9,0.2,1.2,0.6c0.3,0.4,0.4,0.9,0.4,1.5C310.2,478.3,310,478.8,309.7,479.2z"/>
				<path id="XMLID_381_" class="st1" d="M320.8,474.6c-0.3-0.2-0.7-0.3-1.1-0.3c-0.4,0-0.7,0.1-1,0.2c-0.3,0.2-0.6,0.4-0.9,0.7
					c-0.2-0.3-0.4-0.6-0.7-0.7c-0.3-0.2-0.6-0.2-1-0.2c-0.4,0-0.7,0.1-1.1,0.2c-0.3,0.2-0.6,0.4-0.9,0.7v-0.2c0-0.3-0.1-0.5-0.2-0.6
					c-0.1-0.1-0.3-0.2-0.6-0.2c-0.2,0-0.4,0.1-0.6,0.2c-0.1,0.2-0.2,0.4-0.2,0.7v4.6c0,0.3,0.1,0.6,0.2,0.8c0.2,0.2,0.4,0.3,0.6,0.3
					c0.2,0,0.4-0.1,0.6-0.3c0.1-0.2,0.2-0.4,0.2-0.8v-2.2c0-0.7,0.1-1.2,0.3-1.6c0.2-0.4,0.5-0.5,1-0.5c0.3,0,0.5,0.1,0.6,0.2
					c0.1,0.1,0.2,0.3,0.2,0.6c0,0.2,0,0.5,0,1v2.6c0,0.3,0.1,0.6,0.2,0.8c0.1,0.2,0.3,0.3,0.6,0.3c0.3,0,0.5-0.1,0.6-0.3
					c0.2-0.2,0.2-0.4,0.2-0.8v-2.2c0-0.7,0.1-1.2,0.2-1.5c0.1-0.2,0.3-0.4,0.5-0.5c0.2-0.1,0.4-0.2,0.6-0.2c0.3,0,0.5,0.1,0.6,0.2
					c0.1,0.1,0.2,0.3,0.2,0.5c0,0.2,0,0.5,0,0.8v2.7c0,0.3,0.1,0.6,0.2,0.8c0.2,0.2,0.4,0.3,0.6,0.3c0.3,0,0.5-0.1,0.6-0.3
					c0.2-0.2,0.2-0.4,0.2-0.8v-3.2c0-0.6-0.1-1.1-0.2-1.4C321.4,475.1,321.2,474.8,320.8,474.6z"/>
			</g>
			<g id="XMLID_366_">
				<path id="XMLID_379_" class="st1" d="M242.5,477.3C242.5,477.3,242.5,477.3,242.5,477.3C242.5,477.3,242.5,477.3,242.5,477.3z"
					/>
				<path id="XMLID_378_" class="st1" d="M242.6,477.8C242.6,477.8,242.6,477.8,242.6,477.8c0-0.1-0.1-0.3-0.1-0.4
					C242.6,477.5,242.6,477.6,242.6,477.8z"/>
				<path id="XMLID_377_" class="st1" d="M243.2,479.3C243.2,479.3,243.2,479.3,243.2,479.3C243.2,479.3,243.2,479.3,243.2,479.3z"
					/>
				<path id="XMLID_376_" class="st1" d="M243.1,479.2C243.1,479.2,243.1,479.1,243.1,479.2C243.1,479.1,243.1,479.2,243.1,479.2z"
					/>
				<path id="XMLID_375_" class="st1" d="M242.8,478.4c0.1,0.3,0.2,0.5,0.3,0.7C242.9,478.9,242.9,478.6,242.8,478.4L242.8,478.4z"
					/>
				<path id="XMLID_374_" class="st1" d="M248,470.5l-0.1-0.3c0.3-0.1,0.5-0.3,0.5-0.6c0-0.4-0.3-0.7-0.7-0.7
					c-0.4,0-0.7,0.3-0.7,0.7c0,0.3,0.2,0.6,0.5,0.6l0.1,0.3c-1,0.1-1.8,0.5-1.8,0.5l0.1,0.4c0.6-0.2,1.2-0.3,1.6-0.4
					c0.5-0.1,0.8-0.1,1.1-0.1c0.3,0,0.5,0,0.8,0.1l0.1-0.5C249.7,470.7,249,470.4,248,470.5z"/>
				<path id="XMLID_373_" class="st1" d="M242.7,473c0,0-0.5,0.5-0.9,1.3c0,0,0-0.1-0.1-0.1c-0.1-0.1-0.3-0.2-0.5-0.2c0,0,0,0,0,0
					c-0.1,0-0.2,0-0.3-0.1c0.1-0.1,0.1-0.2,0.1-0.3c0-0.2-0.2-0.4-0.4-0.4c-0.2,0-0.4,0.2-0.4,0.4c0,0.2,0.2,0.4,0.4,0.4
					c0,0,0.1,0,0.1,0c0.1,0.1,0.3,0.2,0.5,0.2c0.1,0,0.2,0,0.3,0.1c0.1,0.1,0.1,0.2,0.1,0.3c0,0,0,0,0,0c-0.3,0.7-0.2,1.7-0.2,1.7
					l0.7,0c0-0.3,0.1-0.9,0.2-1.4c0.3-0.9,0.7-1.5,0.8-1.5l0,0c0,0,0-0.1,0.1-0.1l-0.2-0.1L242.7,473z"/>
				<path id="XMLID_372_" class="st1" d="M254.6,471.6c-0.2,0-0.4,0.2-0.4,0.4c0,0,0,0.1,0,0.1c-0.1,0.1-0.2,0.3-0.2,0.5
					c0,0.1,0,0.2-0.1,0.3c-0.1,0-0.1,0.1-0.2,0.1c-0.5-0.7-1.1-1.1-1.1-1.1l-0.5,0.5c0.4,0.3,0.7,0.7,1.1,1.2
					c0.2,0.4,0.5,0.8,0.7,1.3l0.6-0.3c0,0-0.3-0.7-0.7-1.4c0.1,0,0.1-0.1,0.2-0.1c0.1-0.1,0.2-0.3,0.2-0.5c0-0.1,0-0.2,0.1-0.3
					c0.1,0.1,0.2,0.1,0.3,0.1c0.2,0,0.4-0.2,0.4-0.4C255,471.8,254.8,471.6,254.6,471.6z"/>
				<path id="XMLID_371_" class="st1" d="M252.9,477.4c-0.9,0.4-2.3,1-4.2,1.3c-0.7,0.1-1.5,0.1-2.1,0.1c-0.9,0-1.6-0.1-2.2-0.1
					c-0.7-0.1-1.2-0.2-1.5-0.3c0.1,0.2,0.2,0.5,0.3,0.7c0,0,0,0,0,0c0,0,0,0.1,0,0.1c0,0,0,0.1,0,0.1c0,0,0,0,0,0
					c0.2,0.4,0.4,0.7,0.7,1c0.9,1,1.8,1.1,1.8,1.1l0,0l0,0c0,0,0.8,0.3,2.1,0.3c1.2,0,2.4-0.2,3.5-0.7c0.8-0.4,1.6-1.1,2-1.7
					c0.3-0.5,0.5-0.9,0.7-1.4c0.1-0.3,0.1-0.7,0.1-1.1C253.8,476.9,253.4,477.1,252.9,477.4z"/>
				<path id="XMLID_367_" class="st1" d="M249.6,471.5c-0.3,0-0.5-0.1-0.8-0.1c-0.3,0-0.6,0-1.1,0.1c-0.5,0-1,0.2-1.6,0.4
					c-0.8,0.3-1.6,0.7-2.2,1.3l0,0c-0.1,0.1-0.3,0.3-0.5,0.5c0,0-0.4,0.6-0.7,1.4c-0.2,0.6-0.2,1.5-0.2,1.5v0c0,0.2,0,0.4,0,0.6
					c0,0,0,0,0,0c0,0,0,0.1,0,0.1c0,0.1,0,0.3,0.1,0.4c0.4,0.1,3,0.7,6,0.3c1.8-0.3,3.2-0.8,4.1-1.2c0.7-0.3,1.2-0.6,1.3-0.8
					c-0.2-0.6-0.7-1.7-1.1-2.3C251.6,472.1,250.3,471.6,249.6,471.5z M246,476.7c-1,0-1.8-0.8-1.8-1.8c0-1,0.8-1.8,1.8-1.8
					c1,0,1.8,0.8,1.8,1.8C247.7,476,246.9,476.7,246,476.7z M251.1,475.4c-0.6,0-1.1-0.5-1.1-1.1c0-0.6,0.5-1.1,1.1-1.1
					s1.1,0.5,1.1,1.1C252.2,475,251.7,475.4,251.1,475.4z"/>
			</g>
		</g>
	</g>
	<g id="XMLID_1_" class="st17">
		<g id="XMLID_38_">
			<path id="XMLID_59_" class="st1" d="M833.3,472c-0.2,0-0.4,0.1-0.6,0.3c-0.1,0.2-0.2,0.4-0.2,0.8v2.4c-0.3-0.3-0.6-0.6-0.9-0.7
				c-0.3-0.2-0.7-0.2-1.2-0.2c-0.8,0-1.5,0.3-2,0.8c-0.5,0.6-0.7,1.4-0.7,2.4c0,0.5,0.1,0.9,0.2,1.3c0.1,0.4,0.3,0.8,0.5,1.1
				c0.2,0.3,0.5,0.5,0.9,0.7c0.3,0.2,0.7,0.2,1.1,0.2c0.3,0,0.6,0,0.8-0.1c0.2-0.1,0.5-0.2,0.7-0.4c0.2-0.2,0.4-0.4,0.6-0.6v0.2
				c0,0.3,0.1,0.5,0.2,0.7c0.1,0.2,0.3,0.2,0.5,0.2c0.2,0,0.4-0.1,0.6-0.2c0.1-0.2,0.2-0.4,0.2-0.7v-7.1c0-0.3-0.1-0.5-0.2-0.7
				C833.8,472,833.6,472,833.3,472z M832.3,478.8c-0.1,0.3-0.3,0.5-0.6,0.7c-0.2,0.1-0.5,0.2-0.8,0.2c-0.3,0-0.5-0.1-0.8-0.2
				c-0.2-0.2-0.4-0.4-0.6-0.7c-0.1-0.3-0.2-0.7-0.2-1.1c0-0.4,0.1-0.8,0.2-1.1c0.1-0.3,0.3-0.6,0.5-0.7c0.2-0.2,0.5-0.3,0.8-0.3
				c0.3,0,0.5,0.1,0.8,0.2c0.2,0.2,0.4,0.4,0.6,0.7c0.1,0.3,0.2,0.7,0.2,1.1C832.5,478.1,832.4,478.5,832.3,478.8z"/>
			<path id="XMLID_56_" class="st1" d="M840.7,477.9c0.2-0.1,0.3-0.4,0.3-0.8c0-0.4-0.1-0.9-0.3-1.3c-0.2-0.4-0.6-0.8-1-1
				c-0.5-0.3-1-0.4-1.6-0.4c-0.5,0-0.9,0.1-1.3,0.2c-0.4,0.2-0.7,0.4-1,0.7c-0.3,0.3-0.5,0.6-0.6,1.1c-0.1,0.4-0.2,0.9-0.2,1.3
				c0,1,0.3,1.8,0.9,2.4c0.6,0.6,1.4,0.9,2.4,0.9c0.5,0,0.9-0.1,1.2-0.2c0.4-0.1,0.6-0.3,0.9-0.4c0.2-0.2,0.4-0.4,0.5-0.6
				c0.1-0.2,0.2-0.4,0.2-0.5c0-0.2-0.1-0.3-0.2-0.4c-0.1-0.1-0.2-0.1-0.4-0.1c-0.2,0-0.3,0-0.4,0.1c-0.2,0.2-0.4,0.3-0.5,0.5
				c-0.1,0.1-0.3,0.2-0.4,0.3c-0.2,0.1-0.3,0.2-0.5,0.2c-0.2,0-0.3,0.1-0.5,0.1c-0.3,0-0.6-0.1-0.8-0.2c-0.2-0.1-0.4-0.4-0.6-0.6
				c-0.1-0.3-0.2-0.6-0.2-1h3.2C840.1,478.1,840.5,478,840.7,477.9z M836.5,477.1c0.1-0.5,0.2-1,0.5-1.2c0.3-0.3,0.6-0.4,1-0.4
				c0.4,0,0.8,0.1,1,0.4c0.3,0.3,0.4,0.7,0.4,1.2H836.5z"/>
			<path id="XMLID_55_" class="st1" d="M846.1,477.4c-0.3-0.2-0.7-0.3-1.2-0.4c-0.4-0.1-0.8-0.2-1-0.3c-0.2-0.1-0.4-0.2-0.6-0.3
				c-0.1-0.1-0.2-0.2-0.2-0.4c0-0.2,0.1-0.3,0.3-0.5c0.2-0.1,0.4-0.2,0.7-0.2c0.3,0,0.5,0,0.7,0.1c0.2,0.1,0.3,0.2,0.4,0.4
				c0.2,0.2,0.3,0.3,0.4,0.4c0.1,0.1,0.3,0.1,0.4,0.1c0.2,0,0.4-0.1,0.5-0.2c0.1-0.1,0.2-0.3,0.2-0.5c0-0.2-0.1-0.3-0.2-0.5
				c-0.1-0.2-0.3-0.3-0.5-0.5c-0.2-0.1-0.5-0.3-0.8-0.4c-0.3-0.1-0.7-0.1-1.1-0.1c-0.5,0-1,0.1-1.4,0.3c-0.4,0.2-0.7,0.4-0.9,0.7
				c-0.2,0.3-0.3,0.6-0.3,0.9c0,0.4,0.1,0.7,0.3,0.9c0.2,0.2,0.5,0.5,0.8,0.6c0.4,0.2,0.8,0.3,1.4,0.4c0.5,0.1,0.8,0.2,1.1,0.4
				c0.2,0.1,0.3,0.3,0.3,0.6c0,0.2-0.1,0.4-0.3,0.5c-0.2,0.1-0.5,0.2-0.8,0.2c-0.4,0-0.7-0.1-0.9-0.2c-0.2-0.1-0.4-0.4-0.6-0.6
				c-0.1-0.1-0.2-0.3-0.3-0.4c-0.1-0.1-0.2-0.1-0.4-0.1c-0.2,0-0.4,0.1-0.5,0.2c-0.1,0.1-0.2,0.3-0.2,0.5c0,0.3,0.1,0.5,0.3,0.8
				c0.2,0.3,0.5,0.5,0.9,0.7c0.4,0.2,0.9,0.3,1.5,0.3c0.6,0,1.1-0.1,1.6-0.2c0.4-0.2,0.7-0.4,1-0.7c0.2-0.3,0.3-0.7,0.3-1.1
				c0-0.3-0.1-0.6-0.2-0.8C846.7,477.8,846.4,477.6,846.1,477.4z"/>
			<path id="XMLID_54_" class="st1" d="M848.7,474.4c-0.2,0-0.4,0.1-0.6,0.2c-0.1,0.2-0.2,0.4-0.2,0.7v4.6c0,0.3,0.1,0.6,0.2,0.7
				c0.1,0.2,0.3,0.3,0.6,0.3c0.2,0,0.4-0.1,0.6-0.2c0.2-0.2,0.2-0.4,0.2-0.7v-4.7c0-0.3-0.1-0.5-0.2-0.7
				C849.2,474.5,849,474.4,848.7,474.4z"/>
			<path id="XMLID_53_" class="st1" d="M848.8,472c-0.2,0-0.4,0.1-0.6,0.2c-0.2,0.1-0.2,0.3-0.2,0.6c0,0.3,0.1,0.4,0.2,0.6
				c0.2,0.1,0.4,0.2,0.6,0.2c0.2,0,0.4-0.1,0.6-0.2c0.2-0.1,0.2-0.3,0.2-0.6c0-0.3-0.1-0.5-0.2-0.6C849.2,472.1,849,472,848.8,472z"
				/>
			<path id="XMLID_50_" class="st1" d="M855.9,474.4c-0.2,0-0.4,0.1-0.5,0.2c-0.1,0.2-0.2,0.4-0.2,0.7v0.2c-0.3-0.4-0.6-0.7-0.9-0.8
				c-0.3-0.2-0.7-0.3-1.2-0.3c-0.4,0-0.7,0.1-1.1,0.2c-0.3,0.1-0.6,0.3-0.8,0.6c-0.2,0.3-0.4,0.6-0.6,1c-0.1,0.4-0.2,0.8-0.2,1.3
				c0,0.7,0.1,1.2,0.3,1.7c0.2,0.5,0.5,0.9,0.9,1.2c0.4,0.3,0.9,0.4,1.4,0.4c0.5,0,0.8-0.1,1.2-0.3c0.3-0.2,0.6-0.4,0.9-0.8
				c0,0.5,0,0.9,0,1.2c0,0.2-0.1,0.5-0.2,0.7c-0.1,0.2-0.3,0.4-0.5,0.5c-0.2,0.1-0.6,0.2-1,0.2c-0.2,0-0.4,0-0.5-0.1
				c-0.2,0-0.3-0.1-0.4-0.2c-0.1-0.1-0.2-0.2-0.3-0.3c-0.1-0.1-0.2-0.2-0.3-0.3c-0.2-0.2-0.4-0.3-0.6-0.3c-0.2,0-0.4,0.1-0.5,0.2
				c-0.1,0.1-0.2,0.3-0.2,0.5c0,0.3,0.1,0.5,0.4,0.8c0.2,0.2,0.6,0.4,1,0.6c0.4,0.2,0.9,0.2,1.5,0.2c0.6,0,1.1-0.1,1.5-0.2
				c0.4-0.1,0.7-0.3,1-0.6c0.3-0.3,0.4-0.6,0.6-1c0.1-0.4,0.2-0.9,0.2-1.4v-4.7c0-0.4-0.1-0.7-0.2-0.9
				C856.4,474.5,856.2,474.4,855.9,474.4z M854.9,478.7c-0.2,0.3-0.3,0.5-0.6,0.7c-0.2,0.1-0.5,0.2-0.8,0.2c-0.5,0-0.8-0.2-1.1-0.5
				c-0.3-0.3-0.4-0.8-0.4-1.5c0-0.6,0.1-1.1,0.4-1.5c0.3-0.4,0.6-0.5,1.1-0.5c0.5,0,0.9,0.2,1.1,0.6c0.3,0.4,0.4,0.9,0.4,1.5
				C855.1,478.1,855,478.4,854.9,478.7z"/>
			<path id="XMLID_49_" class="st1" d="M863.2,475.4c-0.2-0.3-0.4-0.6-0.8-0.8c-0.3-0.2-0.7-0.3-1.1-0.3c-0.4,0-0.8,0.1-1.2,0.3
				c-0.3,0.2-0.7,0.5-0.9,0.8v-0.2c0-0.2,0-0.4-0.1-0.5c-0.1-0.1-0.2-0.2-0.3-0.3c-0.1-0.1-0.2-0.1-0.4-0.1c-0.2,0-0.4,0.1-0.6,0.2
				c-0.1,0.2-0.2,0.4-0.2,0.7v4.7c0,0.3,0.1,0.6,0.2,0.7c0.2,0.2,0.3,0.3,0.6,0.3c0.2,0,0.4-0.1,0.6-0.2c0.2-0.2,0.2-0.4,0.2-0.7v-2
				c0-0.7,0-1.1,0.1-1.4c0.1-0.3,0.3-0.5,0.5-0.7c0.2-0.2,0.5-0.3,0.8-0.3c0.4,0,0.7,0.1,0.9,0.4c0.1,0.3,0.2,0.7,0.2,1.2v2.7
				c0,0.3,0.1,0.6,0.2,0.7c0.2,0.2,0.3,0.3,0.6,0.3c0.2,0,0.4-0.1,0.6-0.2c0.1-0.2,0.2-0.4,0.2-0.7v-3c0-0.4,0-0.6,0-0.9
				C863.4,475.9,863.3,475.6,863.2,475.4z"/>
			<path id="XMLID_46_" class="st1" d="M870.1,477.9c0.2-0.1,0.3-0.4,0.3-0.8c0-0.4-0.1-0.9-0.3-1.3c-0.2-0.4-0.6-0.8-1-1
				c-0.5-0.3-1-0.4-1.6-0.4c-0.5,0-0.9,0.1-1.3,0.2c-0.4,0.2-0.7,0.4-1,0.7c-0.3,0.3-0.5,0.6-0.6,1.1c-0.1,0.4-0.2,0.9-0.2,1.3
				c0,1,0.3,1.8,0.9,2.4c0.6,0.6,1.4,0.9,2.4,0.9c0.5,0,0.9-0.1,1.2-0.2c0.4-0.1,0.6-0.3,0.9-0.4c0.2-0.2,0.4-0.4,0.5-0.6
				c0.1-0.2,0.2-0.4,0.2-0.5c0-0.2-0.1-0.3-0.2-0.4c-0.1-0.1-0.2-0.1-0.4-0.1c-0.2,0-0.3,0-0.4,0.1c-0.2,0.2-0.4,0.3-0.5,0.5
				c-0.1,0.1-0.3,0.2-0.4,0.3c-0.2,0.1-0.3,0.2-0.5,0.2c-0.2,0-0.3,0.1-0.5,0.1c-0.3,0-0.6-0.1-0.8-0.2c-0.2-0.1-0.4-0.4-0.6-0.6
				c-0.1-0.3-0.2-0.6-0.2-1h3.2C869.5,478.1,869.8,478,870.1,477.9z M865.9,477.1c0.1-0.5,0.2-1,0.5-1.2c0.3-0.3,0.6-0.4,1-0.4
				c0.4,0,0.8,0.1,1,0.4c0.3,0.3,0.4,0.7,0.4,1.2H865.9z"/>
			<path id="XMLID_43_" class="st1" d="M876.5,472c-0.2,0-0.4,0.1-0.6,0.3c-0.1,0.2-0.2,0.4-0.2,0.8v2.4c-0.3-0.3-0.6-0.6-0.9-0.7
				c-0.3-0.2-0.7-0.2-1.2-0.2c-0.8,0-1.5,0.3-2,0.8c-0.5,0.6-0.7,1.4-0.7,2.4c0,0.5,0.1,0.9,0.2,1.3c0.1,0.4,0.3,0.8,0.5,1.1
				c0.2,0.3,0.5,0.5,0.9,0.7c0.3,0.2,0.7,0.2,1.1,0.2c0.3,0,0.6,0,0.8-0.1c0.2-0.1,0.5-0.2,0.7-0.4c0.2-0.2,0.4-0.4,0.6-0.6v0.2
				c0,0.3,0.1,0.5,0.2,0.7c0.1,0.2,0.3,0.2,0.5,0.2c0.2,0,0.4-0.1,0.6-0.2c0.1-0.2,0.2-0.4,0.2-0.7v-7.1c0-0.3-0.1-0.5-0.2-0.7
				C876.9,472,876.7,472,876.5,472z M875.4,478.8c-0.1,0.3-0.3,0.5-0.6,0.7c-0.2,0.1-0.5,0.2-0.8,0.2c-0.3,0-0.5-0.1-0.8-0.2
				c-0.2-0.2-0.4-0.4-0.6-0.7c-0.1-0.3-0.2-0.7-0.2-1.1c0-0.4,0.1-0.8,0.2-1.1c0.1-0.3,0.3-0.6,0.5-0.7c0.2-0.2,0.5-0.3,0.8-0.3
				c0.3,0,0.5,0.1,0.8,0.2c0.2,0.2,0.4,0.4,0.6,0.7c0.1,0.3,0.2,0.7,0.2,1.1C875.6,478.1,875.5,478.5,875.4,478.8z"/>
			<path id="XMLID_40_" class="st1" d="M885.8,474.8c-0.4-0.3-0.9-0.4-1.4-0.4c-0.5,0-0.9,0.1-1.2,0.3c-0.3,0.2-0.6,0.4-0.9,0.7
				v-2.5c0-0.3-0.1-0.5-0.2-0.7c-0.1-0.2-0.3-0.2-0.6-0.2c-0.2,0-0.4,0.1-0.6,0.3c-0.1,0.2-0.2,0.4-0.2,0.7v7.1
				c0,0.3,0.1,0.5,0.2,0.7c0.1,0.2,0.3,0.2,0.5,0.2c0.2,0,0.4-0.1,0.6-0.2c0.1-0.2,0.2-0.4,0.2-0.7v-0.2c0.2,0.2,0.3,0.4,0.4,0.5
				c0.1,0.1,0.2,0.2,0.4,0.3c0.2,0.1,0.3,0.2,0.6,0.2c0.2,0.1,0.5,0.1,0.7,0.1c0.4,0,0.8-0.1,1.1-0.2c0.3-0.2,0.6-0.4,0.9-0.7
				c0.2-0.3,0.4-0.7,0.5-1.1c0.1-0.4,0.2-0.9,0.2-1.3c0-0.7-0.1-1.2-0.3-1.7C886.6,475.4,886.2,475,885.8,474.8z M885,479.2
				c-0.3,0.4-0.6,0.5-1.1,0.5c-0.5,0-0.9-0.2-1.2-0.5c-0.3-0.3-0.4-0.8-0.4-1.5c0-0.4,0.1-0.8,0.2-1.1c0.1-0.3,0.3-0.6,0.6-0.7
				c0.2-0.2,0.5-0.3,0.8-0.3c0.3,0,0.6,0.1,0.8,0.3c0.2,0.2,0.4,0.4,0.5,0.7c0.1,0.3,0.2,0.7,0.2,1.1
				C885.5,478.3,885.3,478.8,885,479.2z"/>
			<path id="XMLID_39_" class="st1" d="M892.8,474.5c-0.1-0.1-0.2-0.1-0.4-0.1c-0.2,0-0.3,0-0.4,0.1c-0.1,0.1-0.2,0.2-0.3,0.3
				c-0.1,0.2-0.2,0.4-0.3,0.7l-1.3,3.7l-1.4-4c-0.1-0.3-0.2-0.5-0.3-0.6c-0.1-0.1-0.3-0.2-0.5-0.2c-0.1,0-0.3,0-0.4,0.1
				c-0.1,0.1-0.2,0.2-0.3,0.3c-0.1,0.1-0.1,0.2-0.1,0.4c0,0.1,0.1,0.3,0.2,0.6l2,5l-0.1,0.4c-0.1,0.3-0.2,0.5-0.3,0.6
				c-0.1,0.1-0.2,0.2-0.3,0.3c-0.1,0.1-0.3,0.1-0.4,0.1c-0.1,0-0.2,0-0.3,0c-0.1,0-0.2,0-0.3,0c-0.2,0-0.4,0.1-0.5,0.2
				c-0.1,0.1-0.2,0.2-0.2,0.4c0,0.3,0.1,0.5,0.4,0.6c0.2,0.1,0.6,0.2,1.1,0.2c0.5,0,0.9-0.1,1.2-0.2c0.3-0.1,0.5-0.4,0.7-0.6
				c0.2-0.3,0.4-0.7,0.5-1.1l2.1-5.5c0.1-0.1,0.1-0.3,0.1-0.4c0-0.1,0.1-0.2,0.1-0.3c0-0.1,0-0.2-0.1-0.3
				C893,474.6,892.9,474.5,892.8,474.5z"/>
		</g>
		<g id="XMLID_2_">
			<g id="XMLID_17_">
				<path id="XMLID_37_" class="st1" d="M915.2,472c-0.5,0-1,0.1-1.3,0.2c-0.3,0.1-0.5,0.4-0.7,0.7c-0.1,0.3-0.2,0.7-0.2,1.2v0.5
					h-0.4c-0.5,0-0.8,0.2-0.8,0.6c0,0.2,0.1,0.3,0.2,0.4c0.1,0.1,0.3,0.2,0.6,0.2h0.4v4.3c0,0.3,0.1,0.6,0.2,0.7
					c0.2,0.2,0.3,0.3,0.6,0.3c0.2,0,0.4-0.1,0.6-0.3c0.2-0.2,0.2-0.4,0.2-0.7v-4.3h0.4c0.3,0,0.5,0,0.7-0.1c0.2-0.1,0.2-0.2,0.2-0.5
					c0-0.4-0.3-0.6-0.9-0.6h-0.4v-0.4c0-0.3,0-0.6,0.1-0.7c0.1-0.2,0.3-0.3,0.6-0.3c0.1,0,0.2,0,0.4,0c0.2,0,0.3,0,0.3,0
					c0.1,0,0.3-0.1,0.3-0.2c0.1-0.1,0.2-0.2,0.2-0.4C916.6,472.2,916.1,472,915.2,472z"/>
				<path id="XMLID_36_" class="st1" d="M920.3,474.6c-0.3-0.2-0.6-0.3-1-0.3c-0.3,0-0.6,0.1-0.8,0.3c-0.2,0.2-0.4,0.4-0.6,0.8
					c0-0.3-0.1-0.6-0.2-0.8c-0.1-0.2-0.3-0.3-0.6-0.3c-0.5,0-0.8,0.4-0.8,1.1v4.5c0,0.3,0.1,0.6,0.2,0.7c0.1,0.2,0.3,0.3,0.6,0.3
					c0.2,0,0.4-0.1,0.6-0.2c0.2-0.2,0.2-0.4,0.2-0.7v-1.4c0-0.5,0-0.9,0-1.2c0-0.3,0.1-0.6,0.2-0.9c0.1-0.2,0.2-0.4,0.4-0.6
					c0.1-0.1,0.3-0.2,0.6-0.2c0.2,0,0.4,0,0.6,0.1c0.2,0.1,0.4,0.1,0.4,0.1c0.2,0,0.3-0.1,0.4-0.2c0.1-0.1,0.2-0.3,0.2-0.5
					C920.8,475,920.7,474.8,920.3,474.6z"/>
				<path id="XMLID_33_" class="st1" d="M926.4,477.9c0.2-0.1,0.4-0.4,0.4-0.8c0-0.4-0.1-0.9-0.3-1.3c-0.2-0.4-0.6-0.8-1-1
					c-0.5-0.3-1-0.4-1.6-0.4c-0.5,0-0.9,0.1-1.3,0.2c-0.4,0.2-0.7,0.4-1,0.7c-0.3,0.3-0.5,0.6-0.6,1.1c-0.1,0.4-0.2,0.9-0.2,1.3
					c0,1,0.3,1.8,0.9,2.4c0.6,0.6,1.4,0.9,2.4,0.9c0.5,0,0.9-0.1,1.2-0.2c0.3-0.1,0.6-0.3,0.9-0.4c0.2-0.2,0.4-0.4,0.5-0.6
					c0.1-0.2,0.2-0.4,0.2-0.5c0-0.2,0-0.3-0.2-0.4c-0.1-0.1-0.2-0.1-0.4-0.1c-0.2,0-0.3,0-0.4,0.1c-0.2,0.2-0.4,0.3-0.5,0.4
					c-0.1,0.1-0.3,0.2-0.4,0.3c-0.2,0.1-0.3,0.2-0.5,0.2c-0.2,0-0.3,0.1-0.5,0.1c-0.3,0-0.6-0.1-0.8-0.2c-0.2-0.1-0.4-0.4-0.6-0.6
					c-0.1-0.3-0.2-0.6-0.2-1h3.2C925.9,478.1,926.2,478,926.4,477.9z M922.3,477.1c0.1-0.5,0.2-1,0.5-1.2c0.3-0.3,0.6-0.4,1-0.4
					c0.4,0,0.8,0.1,1,0.4c0.3,0.3,0.4,0.7,0.4,1.2H922.3z"/>
				<path id="XMLID_30_" class="st1" d="M933.2,477.9c0.2-0.1,0.4-0.4,0.4-0.8c0-0.4-0.1-0.9-0.3-1.3c-0.2-0.4-0.6-0.8-1-1
					c-0.5-0.3-1-0.4-1.6-0.4c-0.5,0-0.9,0.1-1.3,0.2c-0.4,0.2-0.7,0.4-1,0.7c-0.3,0.3-0.5,0.6-0.6,1.1c-0.1,0.4-0.2,0.9-0.2,1.3
					c0,1,0.3,1.8,0.9,2.4c0.6,0.6,1.4,0.9,2.4,0.9c0.5,0,0.9-0.1,1.2-0.2c0.3-0.1,0.6-0.3,0.9-0.4c0.2-0.2,0.4-0.4,0.5-0.6
					c0.1-0.2,0.2-0.4,0.2-0.5c0-0.2,0-0.3-0.2-0.4c-0.1-0.1-0.2-0.1-0.4-0.1c-0.2,0-0.3,0-0.4,0.1c-0.2,0.2-0.4,0.3-0.5,0.4
					c-0.1,0.1-0.3,0.2-0.4,0.3c-0.2,0.1-0.3,0.2-0.5,0.2c-0.2,0-0.3,0.1-0.5,0.1c-0.3,0-0.6-0.1-0.8-0.2c-0.2-0.1-0.4-0.4-0.6-0.6
					c-0.1-0.3-0.2-0.6-0.2-1h3.2C932.6,478.1,932.9,478,933.2,477.9z M929,477.1c0.1-0.5,0.2-1,0.5-1.2c0.3-0.3,0.6-0.4,1-0.4
					c0.4,0,0.8,0.1,1,0.4c0.3,0.3,0.4,0.7,0.4,1.2H929z"/>
				<path id="XMLID_27_" class="st1" d="M939.2,474.8c-0.4-0.3-0.9-0.4-1.4-0.4c-0.4,0-0.8,0.1-1.1,0.3c-0.3,0.2-0.6,0.5-1,0.8v-0.2
					c0-0.3-0.1-0.5-0.2-0.7c-0.1-0.2-0.3-0.2-0.6-0.2c-0.2,0-0.4,0.1-0.6,0.2c-0.1,0.2-0.2,0.4-0.2,0.7v7c0,0.4,0.1,0.6,0.1,0.8
					c0.1,0.2,0.3,0.3,0.6,0.3c0.5,0,0.8-0.4,0.8-1.1v-2.4c0.3,0.4,0.6,0.6,0.9,0.8c0.3,0.2,0.7,0.3,1.2,0.3c0.4,0,0.7-0.1,1.1-0.2
					c0.3-0.2,0.6-0.4,0.9-0.7c0.2-0.3,0.4-0.6,0.6-1c0.1-0.4,0.2-0.9,0.2-1.4c0-0.7-0.1-1.3-0.4-1.8
					C939.9,475.4,939.6,475,939.2,474.8z M938.7,478.8c-0.1,0.3-0.3,0.5-0.6,0.7c-0.2,0.2-0.5,0.2-0.7,0.2c-0.5,0-0.8-0.2-1.1-0.5
					c-0.3-0.4-0.5-0.9-0.5-1.5c0-0.7,0.2-1.2,0.5-1.6c0.3-0.3,0.7-0.5,1.1-0.5c0.3,0,0.5,0.1,0.8,0.2c0.2,0.2,0.4,0.4,0.5,0.7
					c0.1,0.3,0.2,0.7,0.2,1.1C938.9,478.1,938.8,478.5,938.7,478.8z"/>
				<path id="XMLID_26_" class="st1" d="M942.2,474.4c-0.2,0-0.4,0.1-0.6,0.2c-0.1,0.2-0.2,0.4-0.2,0.7v4.6c0,0.3,0.1,0.6,0.2,0.7
					c0.2,0.2,0.3,0.3,0.6,0.3c0.2,0,0.4-0.1,0.6-0.3c0.2-0.2,0.2-0.4,0.2-0.7v-4.7c0-0.3-0.1-0.5-0.2-0.7
					C942.6,474.4,942.4,474.4,942.2,474.4z"/>
				<path id="XMLID_25_" class="st1" d="M942.2,472c-0.2,0-0.4,0.1-0.6,0.2c-0.2,0.1-0.2,0.3-0.2,0.6c0,0.3,0.1,0.4,0.2,0.6
					c0.2,0.1,0.3,0.2,0.6,0.2c0.2,0,0.4-0.1,0.6-0.2c0.2-0.1,0.2-0.3,0.2-0.6c0-0.3-0.1-0.5-0.2-0.6
					C942.6,472.1,942.4,472,942.2,472z"/>
				<path id="XMLID_24_" class="st1" d="M949.5,479.4l-1.7-2.6l0.9-0.8c0.4-0.4,0.7-0.7,0.7-1c0-0.2-0.1-0.4-0.2-0.5
					c-0.1-0.1-0.3-0.2-0.5-0.2c-0.2,0-0.3,0-0.4,0.1c-0.1,0.1-0.3,0.3-0.5,0.5l-1.8,1.9V473c0-0.3-0.1-0.6-0.2-0.8
					c-0.1-0.2-0.3-0.3-0.6-0.3c-0.3,0-0.5,0.1-0.6,0.3c-0.1,0.2-0.2,0.5-0.2,0.8v6.9c0,0.3,0.1,0.6,0.2,0.7c0.1,0.2,0.3,0.3,0.6,0.3
					c0.2,0,0.4-0.1,0.6-0.3c0.2-0.2,0.2-0.4,0.2-0.7v-1.3l0.9-0.8l1.4,2.4c0.2,0.3,0.3,0.5,0.4,0.6c0.1,0.1,0.3,0.2,0.5,0.2
					c0.2,0,0.4-0.1,0.6-0.2c0.1-0.2,0.2-0.4,0.2-0.6c0-0.1,0-0.2-0.1-0.3C949.7,479.7,949.6,479.6,949.5,479.4z"/>
				<path id="XMLID_23_" class="st1" d="M951.7,479.2c-0.3,0-0.5,0.1-0.6,0.3s-0.3,0.4-0.3,0.6c0,0.3,0.1,0.5,0.3,0.7
					c0.2,0.2,0.4,0.2,0.6,0.2c0.2,0,0.4-0.1,0.6-0.2c0.2-0.2,0.3-0.4,0.3-0.7c0-0.2-0.1-0.5-0.3-0.6
					C952.2,479.3,951.9,479.2,951.7,479.2z"/>
				<path id="XMLID_22_" class="st1" d="M959.1,478.2c-0.2,0-0.3,0.1-0.4,0.2c-0.1,0.1-0.2,0.2-0.3,0.4c-0.2,0.3-0.4,0.5-0.6,0.7
					c-0.2,0.1-0.5,0.2-0.8,0.2c-0.2,0-0.5,0-0.7-0.1c-0.2-0.1-0.4-0.2-0.5-0.4c-0.1-0.2-0.3-0.4-0.3-0.7c-0.1-0.3-0.1-0.5-0.1-0.8
					c0-0.6,0.1-1.2,0.4-1.5c0.3-0.4,0.7-0.6,1.2-0.6c0.3,0,0.6,0.1,0.8,0.2c0.2,0.1,0.4,0.4,0.6,0.7c0.1,0.2,0.2,0.3,0.3,0.3
					c0.1,0.1,0.2,0.1,0.3,0.1c0.2,0,0.4-0.1,0.5-0.2c0.1-0.1,0.2-0.3,0.2-0.5c0-0.2-0.1-0.4-0.2-0.6c-0.1-0.2-0.3-0.4-0.6-0.6
					c-0.2-0.2-0.5-0.4-0.9-0.5c-0.4-0.1-0.7-0.2-1.2-0.2c-0.7,0-1.3,0.1-1.7,0.4c-0.5,0.3-0.9,0.7-1.1,1.2c-0.3,0.5-0.4,1.1-0.4,1.8
					c0,1,0.3,1.8,0.8,2.3c0.6,0.6,1.3,0.9,2.3,0.9c0.5,0,0.9-0.1,1.3-0.2c0.4-0.1,0.7-0.3,0.9-0.5c0.2-0.2,0.4-0.4,0.6-0.7
					c0.1-0.2,0.2-0.4,0.2-0.6c0-0.2-0.1-0.3-0.2-0.5C959.4,478.3,959.3,478.2,959.1,478.2z"/>
				<path id="XMLID_19_" class="st1" d="M965.9,475.3c-0.3-0.3-0.6-0.5-1-0.7c-0.4-0.2-0.8-0.2-1.3-0.2c-0.5,0-0.9,0.1-1.3,0.2
					c-0.4,0.2-0.7,0.4-1,0.7c-0.3,0.3-0.5,0.6-0.6,1c-0.1,0.4-0.2,0.9-0.2,1.3c0,0.5,0.1,0.9,0.2,1.3c0.2,0.4,0.4,0.8,0.7,1
					c0.3,0.3,0.6,0.5,1,0.7c0.4,0.2,0.8,0.2,1.3,0.2c0.5,0,0.9-0.1,1.3-0.2c0.4-0.2,0.7-0.4,1-0.7c0.3-0.3,0.5-0.6,0.7-1
					c0.1-0.4,0.2-0.9,0.2-1.3c0-0.5-0.1-0.9-0.2-1.3C966.4,475.9,966.2,475.6,965.9,475.3z M964.7,479.2c-0.3,0.4-0.7,0.6-1.2,0.6
					c-0.3,0-0.6-0.1-0.8-0.3c-0.2-0.2-0.4-0.4-0.6-0.7c-0.1-0.3-0.2-0.7-0.2-1.1c0-0.4,0.1-0.8,0.2-1.1c0.1-0.3,0.3-0.6,0.6-0.7
					c0.2-0.2,0.5-0.2,0.8-0.2c0.5,0,0.9,0.2,1.2,0.6c0.3,0.4,0.4,0.9,0.4,1.5C965.1,478.3,965,478.8,964.7,479.2z"/>
				<path id="XMLID_18_" class="st1" d="M975.8,474.6c-0.3-0.2-0.7-0.3-1.1-0.3c-0.4,0-0.7,0.1-1,0.2c-0.3,0.2-0.6,0.4-0.9,0.7
					c-0.2-0.3-0.4-0.6-0.7-0.7c-0.3-0.2-0.6-0.2-1-0.2c-0.4,0-0.7,0.1-1.1,0.2c-0.3,0.2-0.6,0.4-0.9,0.7v-0.2c0-0.3-0.1-0.5-0.2-0.6
					c-0.1-0.1-0.3-0.2-0.6-0.2c-0.2,0-0.4,0.1-0.6,0.2c-0.1,0.2-0.2,0.4-0.2,0.7v4.6c0,0.3,0.1,0.6,0.2,0.8c0.2,0.2,0.4,0.3,0.6,0.3
					c0.2,0,0.4-0.1,0.6-0.3c0.1-0.2,0.2-0.4,0.2-0.8v-2.2c0-0.7,0.1-1.2,0.3-1.6c0.2-0.4,0.5-0.5,1-0.5c0.3,0,0.5,0.1,0.6,0.2
					c0.1,0.1,0.2,0.3,0.2,0.6c0,0.2,0,0.5,0,1v2.6c0,0.3,0.1,0.6,0.2,0.8c0.1,0.2,0.3,0.3,0.6,0.3c0.3,0,0.5-0.1,0.6-0.3
					c0.2-0.2,0.2-0.4,0.2-0.8v-2.2c0-0.7,0.1-1.2,0.2-1.5c0.1-0.2,0.3-0.4,0.5-0.5c0.2-0.1,0.4-0.2,0.6-0.2c0.3,0,0.5,0.1,0.6,0.2
					c0.1,0.1,0.2,0.3,0.2,0.5c0,0.2,0,0.5,0,0.8v2.7c0,0.3,0.1,0.6,0.2,0.8c0.2,0.2,0.4,0.3,0.6,0.3c0.3,0,0.5-0.1,0.6-0.3
					c0.2-0.2,0.2-0.4,0.2-0.8v-3.2c0-0.6-0.1-1.1-0.2-1.4C976.4,475.1,976.1,474.8,975.8,474.6z"/>
			</g>
			<g id="XMLID_3_">
				<path id="XMLID_16_" class="st1" d="M897.5,477.3C897.5,477.3,897.5,477.3,897.5,477.3C897.5,477.3,897.5,477.3,897.5,477.3z"/>
				<path id="XMLID_15_" class="st1" d="M897.6,477.8C897.6,477.8,897.6,477.8,897.6,477.8c0-0.1-0.1-0.3-0.1-0.4
					C897.6,477.5,897.6,477.6,897.6,477.8z"/>
				<path id="XMLID_14_" class="st1" d="M898.1,479.3C898.1,479.3,898.1,479.3,898.1,479.3C898.1,479.3,898.1,479.3,898.1,479.3z"/>
				<path id="XMLID_13_" class="st1" d="M898.1,479.2C898.1,479.2,898.1,479.1,898.1,479.2C898.1,479.1,898.1,479.2,898.1,479.2z"/>
				<path id="XMLID_12_" class="st1" d="M897.8,478.4c0.1,0.3,0.2,0.5,0.3,0.7C897.9,478.9,897.8,478.6,897.8,478.4L897.8,478.4z"/>
				<path id="XMLID_11_" class="st1" d="M903,470.5l-0.1-0.3c0.3-0.1,0.5-0.3,0.5-0.6c0-0.4-0.3-0.7-0.7-0.7c-0.4,0-0.7,0.3-0.7,0.7
					c0,0.3,0.2,0.6,0.5,0.6l0.1,0.3c-1,0.1-1.8,0.5-1.8,0.5l0.1,0.4c0.6-0.2,1.2-0.3,1.6-0.4c0.5-0.1,0.8-0.1,1.1-0.1
					c0.3,0,0.5,0,0.8,0.1l0.1-0.5C904.7,470.7,903.9,470.4,903,470.5z"/>
				<path id="XMLID_10_" class="st1" d="M897.7,473c0,0-0.5,0.5-0.9,1.3c0,0,0-0.1-0.1-0.1c-0.1-0.1-0.3-0.2-0.5-0.2c0,0,0,0,0,0
					c-0.1,0-0.2,0-0.3-0.1c0.1-0.1,0.1-0.2,0.1-0.3c0-0.2-0.2-0.4-0.4-0.4c-0.2,0-0.4,0.2-0.4,0.4c0,0.2,0.2,0.4,0.4,0.4
					c0,0,0.1,0,0.1,0c0.1,0.1,0.3,0.2,0.5,0.2c0.1,0,0.2,0,0.3,0.1c0.1,0.1,0.1,0.2,0.1,0.3c0,0,0,0,0,0c-0.3,0.7-0.2,1.7-0.2,1.7
					l0.7,0c0-0.3,0.1-0.9,0.2-1.4c0.3-0.9,0.7-1.5,0.8-1.5l0,0c0,0,0-0.1,0.1-0.1l-0.2-0.1L897.7,473z"/>
				<path id="XMLID_9_" class="st1" d="M909.5,471.6c-0.2,0-0.4,0.2-0.4,0.4c0,0,0,0.1,0,0.1c-0.1,0.1-0.2,0.3-0.2,0.5
					c0,0.1,0,0.2-0.1,0.3c-0.1,0-0.1,0.1-0.2,0.1c-0.5-0.7-1.1-1.1-1.1-1.1l-0.5,0.5c0.4,0.3,0.7,0.7,1.1,1.2
					c0.2,0.4,0.5,0.8,0.7,1.3l0.6-0.3c0,0-0.3-0.7-0.7-1.4c0.1,0,0.1-0.1,0.2-0.1c0.1-0.1,0.2-0.3,0.2-0.5c0-0.1,0-0.2,0.1-0.3
					c0.1,0.1,0.2,0.1,0.3,0.1c0.2,0,0.4-0.2,0.4-0.4C910,471.8,909.8,471.6,909.5,471.6z"/>
				<path id="XMLID_8_" class="st1" d="M907.9,477.4c-0.9,0.4-2.3,1-4.2,1.3c-0.7,0.1-1.5,0.1-2.1,0.1c-0.9,0-1.6-0.1-2.2-0.1
					c-0.7-0.1-1.2-0.2-1.5-0.3c0.1,0.2,0.2,0.5,0.3,0.7c0,0,0,0,0,0c0,0,0,0.1,0,0.1c0,0,0,0.1,0,0.1c0,0,0,0,0,0
					c0.2,0.4,0.4,0.7,0.7,1c0.9,1,1.8,1.1,1.8,1.1l0,0l0,0c0,0,0.8,0.3,2.1,0.3c1.2,0,2.4-0.2,3.5-0.7c0.8-0.4,1.6-1.1,2-1.7
					c0.3-0.5,0.5-0.9,0.7-1.4c0.1-0.3,0.1-0.7,0.1-1.1C908.8,476.9,908.4,477.1,907.9,477.4z"/>
				<path id="XMLID_4_" class="st1" d="M904.6,471.5c-0.3,0-0.5-0.1-0.8-0.1c-0.3,0-0.6,0-1.1,0.1c-0.5,0-1,0.2-1.6,0.4
					c-0.8,0.3-1.6,0.7-2.2,1.3l0,0c-0.1,0.1-0.3,0.3-0.5,0.5c0,0-0.4,0.6-0.7,1.4c-0.2,0.6-0.2,1.5-0.2,1.5v0c0,0.2,0,0.4,0,0.6
					c0,0,0,0,0,0c0,0,0,0.1,0,0.1c0,0.1,0,0.3,0.1,0.4c0.4,0.1,3,0.7,6,0.3c1.8-0.3,3.2-0.8,4.1-1.2c0.7-0.3,1.2-0.6,1.3-0.8
					c-0.2-0.6-0.7-1.7-1.1-2.3C906.6,472.1,905.3,471.6,904.6,471.5z M900.9,476.7c-1,0-1.8-0.8-1.8-1.8c0-1,0.8-1.8,1.8-1.8
					c1,0,1.8,0.8,1.8,1.8C902.7,476,901.9,476.7,900.9,476.7z M906.1,475.4c-0.6,0-1.1-0.5-1.1-1.1c0-0.6,0.5-1.1,1.1-1.1
					c0.6,0,1.1,0.5,1.1,1.1C907.2,475,906.7,475.4,906.1,475.4z"/>
			</g>
		</g>
	</g>
</g>
<g id="BACKGROUND_2_1_">
	<g>
		<g>
			<g>
				<path class="st4" d="M164.9,233.1c4,2.2,10.4,4.2,16.9,4.2c7,0,10.7-2.9,10.7-7.3c0-4.1-3.2-6.6-11.3-9.4
					c-11.2-4-18.6-10.1-18.6-19.9c0-11.5,9.6-20.2,25.5-20.2c7.7,0,13.2,1.5,17.2,3.4l-3.4,12.2c-2.7-1.3-7.5-3.2-14-3.2
					c-6.6,0-9.8,3.1-9.8,6.5c0,4.3,3.7,6.2,12.5,9.5c11.9,4.5,17.4,10.6,17.4,20.1c0,11.2-8.6,20.9-27.1,20.9
					c-7.6,0-15.3-2.1-19-4.2L164.9,233.1z"/>
				<path class="st4" d="M258.3,220.3h-24.8v16h27.7v12.5h-42.9v-67.3h41.4v12.5h-26.2v14h24.8V220.3z"/>
				<path class="st4" d="M333.1,214.4c0,22.1-13.3,35.4-33,35.4c-20,0-31.7-15.1-31.7-34.3c0-20.1,12.9-35.2,32.8-35.2
					C321.8,180.4,333.1,195.8,333.1,214.4z M284.5,215.3c0,13.2,6.2,22.5,16.4,22.5c10.3,0,16.2-9.7,16.2-22.8
					c0-12.1-5.7-22.5-16.2-22.5C290.5,192.5,284.5,202.2,284.5,215.3z"/>
			</g>
		</g>
		<g>
			<g>
				<path class="st18" d="M164.9,233.1c4,2.2,10.4,4.2,16.9,4.2c7,0,10.7-2.9,10.7-7.3c0-4.1-3.2-6.6-11.3-9.4
					c-11.2-4-18.6-10.1-18.6-19.9c0-11.5,9.6-20.2,25.5-20.2c7.7,0,13.2,1.5,17.2,3.4l-3.4,12.2c-2.7-1.3-7.5-3.2-14-3.2
					c-6.6,0-9.8,3.1-9.8,6.5c0,4.3,3.7,6.2,12.5,9.5c11.9,4.5,17.4,10.6,17.4,20.1c0,11.2-8.6,20.9-27.1,20.9
					c-7.6,0-15.3-2.1-19-4.2L164.9,233.1z"/>
				<path class="st18" d="M258.3,220.3h-24.8v16h27.7v12.5h-42.9v-67.3h41.4v12.5h-26.2v14h24.8V220.3z"/>
				<path class="st18" d="M333.1,214.4c0,22.1-13.3,35.4-33,35.4c-20,0-31.7-15.1-31.7-34.3c0-20.1,12.9-35.2,32.8-35.2
					C321.8,180.4,333.1,195.8,333.1,214.4z M284.5,215.3c0,13.2,6.2,22.5,16.4,22.5c10.3,0,16.2-9.7,16.2-22.8
					c0-12.1-5.7-22.5-16.2-22.5C290.5,192.5,284.5,202.2,284.5,215.3z"/>
			</g>
		</g>
	</g>
</g>
</svg>
